<?xml version="1.0" standalone="no"?>
<!DOCTYPE svg PUBLIC "-//W3C//DTD SVG 1.1//EN" "http://www.w3.org/Graphics/SVG/1.1/DTD/svg11.dtd" >
<svg xmlns="http://www.w3.org/2000/svg" xmlns:xlink="http://www.w3.org/1999/xlink" version="1.1">
<metadata></metadata>
<defs>
<font id="silicia_scriptregular" horiz-adv-x="1462" >
<font-face units-per-em="2048" ascent="1638" descent="-410" />
<missing-glyph horiz-adv-x="806" />
<glyph horiz-adv-x="0" />
<glyph horiz-adv-x="682" />
<glyph horiz-adv-x="0" />
<glyph horiz-adv-x="0" />
<glyph unicode="&#xd;" horiz-adv-x="806" />
<glyph unicode=" "  horiz-adv-x="806" />
<glyph unicode="&#x09;" horiz-adv-x="806" />
<glyph unicode="&#xa0;" horiz-adv-x="806" />
<glyph unicode="!" horiz-adv-x="591" d="M-25 -125l29 78q19 6 96 6l-28 -78q-78 0 -97 -6zM2 2q95 188 307 503.5t316 450.5q18 16 44 7.5t48.5 -27.5t15.5 -25q-37 -13 -255.5 -344.5t-346.5 -560.5z" />
<glyph unicode="&#x22;" horiz-adv-x="421" d="M113 725v162q35 35 59 26v-161q-8 -11 -31.5 -24.5t-27.5 -2.5zM242 725v162q35 35 59 26v-161q-8 -11 -31.5 -24.5t-27.5 -2.5z" />
<glyph unicode="#" horiz-adv-x="665" d="M27 283q231 -7 532 -4q0 -1 13 -11q30 -24 18 -24q-60 1 -169.5 1t-197.5 1t-166 4l-28 24q-8 9 -2 9zM47 84q113 231 223 483q1 0 13 6q31 18 31 12q0 -1 -1 -3q-22 -49 -69 -153.5t-83 -182t-71 -148.5l-37 -17q-8 -2 -6 3zM61 444q231 -7 533 -4q0 -1 13 -11 q27 -22 18 -23q-60 1 -169.5 1t-197.5 1t-166 4l-29 23q-8 9 -2 9zM270 84q122 251 224 483q1 0 13 6q31 18 31 12q0 -1 -1 -3q-191 -417 -224 -484l-37 -17q-8 -2 -6 3z" />
<glyph unicode="$" horiz-adv-x="575" d="M33 -29q7 20 18 37q-8 0 -12 2h14q37 67 197 316q4 120 14 159q13 52 49 85.5t73 44t67 3.5l12 17q9 10 16.5 5t12.5 -16t2 -14l-6 -3q-5 -3 -7 -7q0 -1 1 -2t1 -2q0 1 -1 2t-1 2q-42 -45 -178 -254q-2 -127 -14 -177q-26 -105 -119 -153q-28 -15 -82 -12 q-11 -18 -16 -31zM100 20l23 13q105 70 123 221q-83 -127 -146 -234zM307 410q75 112 142 202q-38 -3 -76 -36.5t-54 -92.5q-9 -35 -12 -73z" />
<glyph unicode="%" horiz-adv-x="563" d="M2 2q65 129 209.5 344t216.5 309q12 12 30 6t34 -19t12 -17q-27 -9 -176.5 -235.5t-237.5 -385.5zM47 385q-21 28 2.5 91.5t66 117t72.5 61.5q32 9 46.5 -7t11.5 -48q-8 -57 -44 -126t-77 -97q-18 -13 -42 -11t-36 19zM76 397q4 -17 19 -22t28 4q42 34 78.5 101.5 t40.5 119.5q1 18 -2 30.5t-13.5 18.5t-29.5 -8q-38 -25 -85.5 -112t-35.5 -132zM283 43q-21 28 2.5 91.5t66 117t72.5 61.5q32 9 46 -6.5t11 -48.5q-8 -57 -44 -126t-77 -97q-18 -12 -41.5 -10.5t-35.5 18.5zM311 55q4 -17 19 -22t28 4q42 34 78.5 101.5t40.5 119.5 q1 18 -2 30.5t-13.5 18.5t-29.5 -8q-38 -25 -85.5 -112t-35.5 -132z" />
<glyph unicode="&#x26;" horiz-adv-x="1017" d="M98 156.5q0 55.5 41 119.5q71 98 187 130q-113 60 -114 147q0 67 62 112q71 52 159 30q95 -24 161 -128q-7 -10 -16 -9h-2l-5 1q-50 102 -138 118q-68 13 -114 -30q-49 -45 -26 -112q18 -54 82 -103q36 -29 2 -41q-47 -22 -89.5 -58t-66.5 -75q-31 -52 -38 -97.5 t7.5 -75.5t44 -48.5t66.5 -20.5t79.5 13t78.5 47q86 75 61 209q-18 22 -34 18.5t-28 -20t-16 -37.5q-2 -4 -13.5 -10t-21.5 -8.5t-12 1.5q29 48 58.5 67t58.5 17.5t58 -8t67.5 -3.5t75.5 26q52 29 78 43t70.5 30t84.5 21q12 2 9 -2q-7 -8 -37 -16l-5 -1q-49 -5 -101.5 -34 t-107 -62t-100.5 -43q-25 -5 -51 6q6 -138 -82 -209q-52 -43 -118.5 -56t-120 4.5t-94 54.5t-40.5 92.5z" />
<glyph unicode="'" horiz-adv-x="329" d="M78 678q55 88 74 137q14 14 37.5 23.5t39.5 3.5q-20 -53 -73 -137q-7 -11 -40.5 -24.5t-37.5 -2.5z" />
<glyph unicode="(" horiz-adv-x="550" d="M102 133q-6 -85 27 -115q32 -28 84 -10q7 1 39 15l-2 4q-21 -14 -39 -19q-75 -22 -78 78q-4 111 69 290q73 175 151 246q37 33 67 31q12 0 24 -4l2 2q-16 4 -26 6q-34 3 -72 -24q-36 -23 -92 -101q-61 -89 -105 -207t-49 -192z" />
<glyph unicode=")" horiz-adv-x="444" d="M0 -41q12 -3 27 -6q34 -3 71 24q36 23 92 101q61 89 105 207t49 192q6 85 -27 115q-32 28 -84 10q-9 -1 -38 -14l2 -4q18 12 39 18q75 22 78 -78q4 -111 -69 -290q-73 -175 -151 -246q-37 -33 -67 -31q-13 0 -25 4z" />
<glyph unicode="*" horiz-adv-x="569" d="M133 492v2q0 2 2 2h113q-19 19 -84 75l-4 4l12 35l2 2l105 -96q0 72 2 107q2 2 5.5 4.5t12.5 8.5t12.5 7t5.5 0q-4 -82 -4 -121q10 10 21 22t24 26.5t21 23.5l2 4q6 -1 17.5 -5t17.5 -5v-2l2 -2l-80 -88q82 0 123 -2q2 -2 4.5 -5.5t8.5 -13t7 -13t0 -5.5q-49 2 -141 2 l74 -70q0 -3 -1 -7.5t-2.5 -14t-3.5 -14.5t-4 -3l-90 86q0 -82 2 -121v-4l-32 -16h-2q-2 0 -2 2v135l-84 -86q-3 0 -7.5 0.5t-14 1.5t-14.5 2.5t-3 3.5l100 105h-106z" />
<glyph unicode="+" horiz-adv-x="677" d="M43 297q43 0 127.5 1t126.5 1v211l3 5q30 41 30 26v-242q122 0 245 -6l29 -24q8 -9 2 -9q-144 6 -276 6q0 -86 -4 -258l-24 -29q-9 -8 -9 -2q4 200 4 289q-149 0 -223 -2l-5 3q-41 30 -26 30z" />
<glyph unicode="," horiz-adv-x="323" d="M39 -43q-25 -2 11 17q11 6 35 18q26 13 30 16q38 28 47 76q14 14 38 23.5t40 3.5q-13 -61 -72.5 -102.5t-128.5 -51.5z" />
<glyph unicode="-" horiz-adv-x="677" d="M43 297q358 4 532 -4l29 -24q8 -9 2 -9q-246 11 -532 4l-5 3q-41 30 -26 30z" />
<glyph unicode="." horiz-adv-x="262" d="M47 6q-1 9 47 29q48 21 78 14q-20 -31 -85 -44q-40 -9 -40 1z" />
<glyph unicode="/" horiz-adv-x="626" d="M2 2q95 188 307 503.5t316 450.5q18 16 44 7.5t48.5 -27.5t15.5 -25q-37 -13 -255.5 -344.5t-346.5 -560.5z" />
<glyph unicode="0" horiz-adv-x="499" d="M12.5 140q-7.5 -60 16.5 -99q24 -33 71 -37t82 23q82 55 154 191t86 247q6 66 -22 97t-93 13q-35 -9 -83 -56t-91.5 -110.5t-78 -136t-42 -132.5zM86 68q-17 59 26.5 165.5t106 195t105.5 118.5q39 28 59.5 16.5t27 -37t3.5 -59.5q-9 -104 -81 -238t-155 -198 q-26 -19 -54 -8t-38 45z" />
<glyph unicode="1" horiz-adv-x="415" d="M31 436q-4 0 0 4q47 31 138.5 69t137.5 42h68q2 0 2 -2q2 0 2 -4q-163 -358 -248 -522q-2 0 -6 -1t-14.5 -3t-19 -3l-17 -2t-13 0t-2.5 4q132 264 246 525q-56 -9 -139.5 -43.5t-130.5 -65.5q-4 0 -4 2z" />
<glyph unicode="2" horiz-adv-x="569" d="M74 5q-59 18 0 93q26 32 86 85.5t113 99t101.5 103t61.5 103.5q15 52 -49 56q-17 0 -35 -2t-32.5 -4.5t-33.5 -8t-31 -9t-32 -12.5t-29 -13t-30.5 -15t-27.5 -14.5t-29 -16t-27 -14.5q-4 2 -4 6q87 51 160.5 80t150.5 33q57 3 92.5 -12.5t28.5 -57.5q-12 -47 -58.5 -99.5 t-99.5 -94t-115 -99t-96 -106.5q-17 -23 -20 -40.5t13.5 -29t55.5 -10.5l285 2q4 0 4 -2q0 -4 -4 -4l-285 -4q-91 0 -114 7z" />
<glyph unicode="3" horiz-adv-x="671" d="M23 23h4q67 -24 147 12.5t139 95.5q44 47 60 86q14 42 -6 62q-28 24 -123 14q-37 -6 -12 21q25 26 181 134q92 63 97 74q1 3 1.5 6t-0.5 5t-2.5 4t-4 3t-4.5 2t-5.5 2t-5 1.5t-4.5 1t-4 0.5q-121 0 -305 -109q-1 -2 -4 2v4q177 104 311 111q6 0 13.5 -0.5t22 -1.5t24 -4 t20 -7.5t10.5 -12t-4 -17.5q-16 -28 -134.5 -101.5t-139.5 -107.5q115 6 141 -22q18 -24 6 -60q-14 -52 -84 -117q-72 -60 -164 -88t-169 0q-2 2 -2 7z" />
<glyph unicode="4" horiz-adv-x="563" d="M90 307q18 43 73 124.5t85 111.5q8 8 38 -1q29 -9 17 -22q-33 -37 -77.5 -106t-65.5 -113q-6 -8 -2 -12h153q101 218 121 264q4 3 20.5 3t32.5 -6.5t11 -14.5q-198 -429 -244 -521q-8 -5 -37 -9t-39 -1v6q59 112 133 273l-215 -4q-14 8 -4 28z" />
<glyph unicode="5" horiz-adv-x="489" d="M33 51q-3 3 0 6h4q44 -39 104 -44.5t111 24.5q61 34 76.5 118.5t-41.5 125.5t-170 18q-8 0 -8 4q115 217 116 217h228q4 0 4 -2q0 -4 -4 -4h-164l-109 -199q78 3 127 -18q52 -22 74 -64.5t14 -85.5t-41 -81t-82 -52q-55 -19 -125.5 -10.5t-113.5 47.5z" />
<glyph unicode="6" horiz-adv-x="409" d="M25 61q-8 60 49.5 168t120.5 190t112 134q3 4 17 -1t24 -15.5t4 -18.5q-148 -193 -196 -270q46 10 90 -10q35 -15 41.5 -50t-10.5 -71.5t-50.5 -69.5t-72.5 -45q-45 -13 -84 2t-45 57zM78 68q0 -33 21.5 -51t50.5 -9q31 9 63.5 39.5t52 65.5t16.5 69t-38 49q-44 20 -92 9 q-2 -3 -16.5 -27.5t-21 -36.5t-17 -34t-15 -40t-4.5 -34z" />
<glyph unicode="7" horiz-adv-x="473" d="M43 434q0 2 2 4q47 30 142.5 69.5t142.5 43.5h67q2 0 2 -2q2 0 2 -4l-122 -269h79q4 0 4 -4q-2 -2 -4 -2h-84q-85 -181 -127 -260q-1 -1 -20 -4t-35.5 -4t-17.5 4q62 123 129 264h-97l-2 2l2 4h99q7 14 123 267q-57 -9 -144.5 -44.5t-134.5 -66.5q-2 -2 -6 2z" />
<glyph unicode="8" horiz-adv-x="438" d="M51 84q-2 64 88 180q-44 42 -47.5 91t23.5 87t72 64t92 26q73 0 81 -55q11 -70 -92 -186h-4q-3 3 0 6q100 114 90 178q-4 28 -24.5 38.5t-48.5 2.5q-72 -25 -102.5 -79t1.5 -126l29 35q78 90 90 115q8 17 4 26q0 7 2 9l4 -4q4 -10 0 -24t-21.5 -38t-30 -38.5t-42.5 -49.5 l-31 -37q14 -23 48.5 -64t61.5 -78.5t32 -66.5q7 -38 -24 -60t-77 -32q-53 -6 -98 2q-31 8 -53 28.5t-23 49.5zM57 84q3 -27 23 -45.5t49 -24.5q50 -11 92 6q44 21 35 76q-4 23 -24 52t-50 63.5t-39 46.5q-88 -115 -86 -174z" />
<glyph unicode="9" horiz-adv-x="432" d="M20 29q154 200 197 270q-46 -10 -90 10q-35 15 -41.5 50t10.5 71.5t50.5 69.5t72.5 45q45 13 84 -2.5t45 -57.5q6 -46 -25 -119.5t-81.5 -147t-96 -131t-79.5 -93.5q-3 -4 -17.5 1t-24.5 15.5t-4 18.5zM91 364.5q3 -34.5 38 -49.5q43 -19 92 -8q2 3 16.5 27.5t21 36.5 t17 34t15 40t4.5 34q0 33 -21.5 51t-50.5 9q-31 -9 -63.5 -39.5t-52 -65.5t-16.5 -69.5z" />
<glyph unicode=":" horiz-adv-x="358" d="M98 6q-1 9 47 29q48 21 78 14q-20 -31 -85 -44q-40 -9 -40 1zM98 487q-1 9 47 29q48 21 78 14q-20 -31 -85 -44q-40 -9 -40 1z" />
<glyph unicode=";" horiz-adv-x="380" d="M57 -43q-25 -2 11 17q11 6 35 18q26 13 30 16q38 28 47 76q14 14 38 23.5t40 3.5q-13 -61 -72.5 -102.5t-128.5 -51.5zM146 488q0 9 47 28q48 21 77 14q-21 -31 -86 -44q-39 -8 -38 2z" />
<glyph unicode="&#x3c;" horiz-adv-x="1058" d="M143 195q1 6 11 15.5t73.5 57t180.5 131t354 252.5q13 9 26.5 9t23 -8.5t14.5 -19t1.5 -24t-16.5 -22.5l-555 -398l573 -419q21 -16 17 -39.5t-23.5 -31.5t-42.5 5q-304 220 -446 326.5t-167.5 130.5t-23.5 35z" />
<glyph unicode="=" horiz-adv-x="780" d="M84 174q358 4 532 -4l29 -24q8 -9 2 -9q-246 11 -532 4l-5 3q-41 30 -26 30zM84 307q358 4 532 -4l29 -24q8 -9 2 -9q-246 11 -532 4l-5 3q-41 30 -26 30z" />
<glyph unicode="&#x3e;" horiz-adv-x="989" d="M167.5 -253.5q3.5 13.5 16.5 22.5l574 419l-555 398q-21 16 -17 39t23.5 31t42.5 -5q233 -166 353 -252t181.5 -132t72 -56t11.5 -16q2 -11 -23.5 -35t-167.5 -130.5t-446 -326.5q-13 -9 -26.5 -9t-23 8.5t-14.5 19.5t-1.5 24.5z" />
<glyph unicode="?" horiz-adv-x="806" d="M111 403q-7 4 0 11q113 117 305 194q164 65 259 53q83 -11 54 -82q-5 -13 -14 -28q-36 -59 -102 -118.5t-127 -104.5t-117.5 -94t-86 -107t-20.5 -123q-2 -2 -6 -4.5t-17.5 -6.5t-29.5 -3q-12 0 -23.5 3.5t-17.5 6.5l-6 4q3 90 36 159.5t84.5 116.5t106 86t112.5 89.5 t91 103.5q40 62 -24 66q-75 4 -216 -64t-231 -158q-7 -7 -10 0zM142 -128q-8 37 18 62q17 16 45 15q32 -1 30 -36q-1 -36 -31 -59q-16 -12 -32 -12q-23 0 -30 30z" />
<glyph unicode="@" d="M22 228q-6 198 78 382q66 139 187.5 243t260 154t286 47.5t266.5 -65.5q95 -50 159.5 -130t91.5 -169t19.5 -186.5t-48.5 -184t-121.5 -160t-190.5 -114.5q-117 -44 -169 -46q-89 -3 -89 79q0 72 59 178q-72 -72 -115 -109q-173 -149 -290 -149q-39 0 -58.5 23.5t-19 61 t5.5 67t14 57.5q41 101 109 175t159.5 106.5t194.5 -5.5l10 -10q0 -4 -2.5 -6t-4.5 -2h-3q-120 -12 -233 -140q-85 -95 -112 -189q-24 -80 20 -89q56 -11 200 113q86 75 143 145q19 32 59.5 94t51.5 84l21 19q6 8 30 8t47 -8q0 -4 3 -6t5 -2h3q4 -4 8.5 -7t6.5 -3l3 -1 q4 -4 6.5 -8.5t2.5 -6.5l1 -3q-6 -10 -32.5 -50.5t-42.5 -65t-38 -63t-36 -69.5q-6 -17 -17 -49q-31 -91 -27 -114q6 -36 88 -10l38 13q104 40 181 111t116 155t46.5 178.5t-18.5 181.5t-89 165t-156 127q-115 60 -258.5 62t-278 -47t-252 -151t-180.5 -239 q-80 -173 -76 -366.5t92 -339.5q57 -96 145 -154t206.5 -75.5t275.5 29t332 159.5h10v-13q-145 -91 -277.5 -139.5t-238.5 -54t-197 22.5t-157.5 81.5t-114.5 130.5q-93 149 -99 347z" />
<glyph unicode="A" horiz-adv-x="1984" d="M20 -40q-2 17 -2 36q0 34 7 72q14 95 74 178.5t165 134.5q48 24 102 26h7q49 -1 89 -27q42 -28 52 -85q2 -12 2 -25q0 -50 -31 -104q-4 -4 -8 -2q-4 4 -2 8q31 55 31 100q0 11 -2 21q-6 43 -32 69q-27 24 -63 30q-17 3 -35 3q-19 0 -38 -3q-37 -6 -68 -21 q-102 -49 -161.5 -130t-73.5 -175q-6 -38 -6 -72q0 -40 8 -74q15 -66 49 -106t82 -58q36 -14 73 -13q13 -1 27 1q52 6 107 40.5t98 92.5q18 22 36 46.5t37 54.5t32.5 51t34.5 57t29.5 50t30.5 52.5t25 44.5q3 4 7.5 12.5t7.5 12.5q111 197 207 391q-139 -82 -240.5 -125.5 t-192.5 -46.5q-63 0 -101 34.5t-44 82.5q-1 11 -1 21q0 37 15 77q19 51 60 82q8 4 8 -2q2 -2 2 -4t-2 -2q-54 -38 -68 -107q-4 -20 -5 -39q-1 -46 25 -83q32 -48 98 -48h13q91 3 196 48t247 129l174 344q114 227 174 344t138.5 259.5t127.5 211.5q16 16 41.5 11t49.5 -25.5 t26 -38.5q1 -15 1 -33q0 -59 -14 -163q-20 -134 -43.5 -250.5t-72.5 -344.5q201 71 397 72q140 0 277 -37q4 0 4 -6q-4 -4 -8 -4q-132 37 -271 37q-194 0 -401 -72q-6 -27 -26 -114q-129 -543 -165 -876q-18 -164 -17 -297q0 -540 289 -567q16 -2 33 -2q25 0 52 4 q74 11 159 39q139 47 265 130.5t196 172.5q2 1 4 1t2 -1q3 -3 0 -8q-69 -89 -196.5 -173.5t-268.5 -131.5q-79 -27 -159 -39q-42 -6 -81 -6q-71 -1 -129 19q-90 30 -144.5 94t-86.5 160.5t-40 206.5q-4 61 -4 128q1 55 3 113q6 130 24 254t44 255t50 235t48 203 q28 114 37 155q-141 -60 -405 -221q-46 -29 -78 -46q-105 -208 -213 -407l-16 -25q-135 -245 -224 -358q-40 -50 -85 -82.5t-87 -44.5q-37 -11 -75 -11l-9 1q-42 2 -75.5 20t-62.5 46.5t-45 70.5t-22 91zM944 678q2 1 62 37q274 162 411 223q30 136 47 215.5t39 187 t32 171.5q11 64 19 132q7 55 6 93v17q-2 42 -12 63q-48 -69 -130 -217.5t-131 -244.5t-177 -349q-31 -64 -94 -187t-72 -141z" />
<glyph unicode="B" horiz-adv-x="2553" d="M29 20q0 142 82 283q74 135 190 193q37 17 78 22q16 2 32 2q24 0 46 -4q37 -8 63.5 -35.5t32.5 -70.5q1 -11 1 -22q0 -55 -30 -105q-1 -3 -4 -3.5t-4 1.5q-6 0 -2 4q31 56 31 103q0 11 -2 22q-9 55 -51 80q-37 22 -79 22h-13q-50 -4 -93 -25q-109 -54 -188 -190 q-78 -132 -78 -267v-10q0 -89 25.5 -156t70 -99.5t99.5 -36.5h9q51 0 110 36q64 38 124 113q63 78 132 186.5t151.5 263.5t125.5 238.5t133.5 269t96.5 197.5q8 14 56.5 109.5t105 204t117 221.5t106 189t58.5 79q3 2 14 -2q4 -1 14 -8q7 -7 13 -10q25 -29 14 -48 q-29 -45 -80 -135l12 6q174 89 295 113q67 15 135 17h17q60 0 125 -16q74 -18 118 -60q66 -64 67 -139q0 -256 -778 -638l-20 -10q24 4 68 8q43 4 84 4q97 0 189 -20q130 -28 227 -86t155 -147q58 -88 64 -190q1 -10 0 -20q0 -94 -56 -205q-62 -123 -192 -243 q-187 -172 -447 -276q-55 -20 -125 -36q-69 -18 -154 -30q-61 -9 -118 -8q-23 0 -45 1q-78 5 -143 26q-64 21 -102 74q-35 49 -35 122v12q3 81 47 156q57 102 174 185t276 120q4 0 8 -4q0 -4 -4 -4q-157 -38 -272 -120t-174 -183q-45 -85 -45 -152q0 -71 29.5 -119.5 t77.5 -69.5q46 -22 110 -28q26 -2 53 -2q39 0 77 4q66 8 133 25t120.5 36t95.5 38q249 117 416 295q95 102 141 210q43 102 42 191v12q-3 94 -48 177.5t-123.5 140.5t-191.5 86q-82 21 -173 21q-35 0 -71 -3q-97 -9 -195 -39q-187 -57 -193 -58q-7 0 7 7q24 14 174 82 q184 85 390 215q400 252 442 429q5 19 5 38q0 85 -100 145q-56 35 -138 35q-55 0 -122 -16q-141 -33 -293 -113l-26 -16q-117 -213 -316 -606q-6 -11 -62.5 -126.5t-89 -180t-97 -190.5t-113.5 -212t-108.5 -186t-112 -171.5t-95.5 -113.5q-67 -64 -139 -96 q-59 -26 -112 -26q-11 0 -23 1q-64 7 -116 42t-82 106.5t-31 166.5z" />
<glyph unicode="C" horiz-adv-x="1501" d="M30 -42q-1 -15 -1 -29q0 -61 14 -116q17 -68 55.5 -113.5t108.5 -67.5q48 -15 108 -14q28 0 58 3q68 12 143 33q212 70 413.5 225t268.5 305q4 9 -2 9q0 3 -6 -3q-68 -149 -268 -302.5t-408 -221.5q-90 -28 -143 -35q-24 -3 -46 -3q-170 0 -190 187q-3 26 -3 55 q0 212 155 570q167 383 425 743q256 357 477 509q130 89 228 89q23 0 45 -5q33 -5 88 -35q111 -71 187 -254q0 -2 2.5 -2.5t3.5 0.5q2 0 2 6q-73 185 -191 260q-47 26 -90 37q-35 8 -72 8q-247 0 -573 -356q-260 -277 -482.5 -666.5t-281.5 -648.5q-21 -90 -25 -167z" />
<glyph unicode="D" horiz-adv-x="2525" d="M18 20q0 142 82 283q74 135 193 193q45 24 101 26q4 0 9 -1q49 1 91 -25q44 -28 49 -86q1 -11 1 -22q0 -55 -30 -105q-2 -5 -8 -2q-6 0 -2 4q30 54 30 102q0 12 -2 23q-6 42 -32.5 67.5t-61.5 30.5q-17 2 -34 2q-19 0 -38 -2q-37 -6 -69 -21q-109 -54 -188 -190 q-78 -137 -78 -277q0 -132 51 -208q30 -48 72 -68q34 -16 69 -16q9 0 19 2q44 6 87 27t81 55q32 28 66.5 71t52 69.5t49.5 78.5l-15 35q-74 192 -111 254q-59 101 -130 101q-11 0 -23 -3q-1 -2 -3.5 -0.5t-2.5 4.5q0 6 4 6q27 6 52 -1t45 -20.5t41.5 -43t36.5 -55.5t35 -72 t32.5 -78.5t33.5 -87.5l13 -27q104 168 241.5 430.5t248.5 489.5t241.5 473.5t226.5 392.5q15 14 47.5 -8.5t22.5 -42.5q-36 -55 -139 -238q45 40 55 47q92 79 212 117q79 26 162 26q42 0 84 -6q126 -20 214 -104q102 -96 147 -230q36 -107 36 -222q0 -28 -2 -56 q-11 -144 -58 -302t-125.5 -309t-173.5 -294.5t-197 -262t-200 -207.5t-179 -134q-202 -115 -362 -115q-217 0 -355 211q-66 106 -117 235q-84 -112 -172 -172q-58 -38 -128 -50q-24 -4 -48 -4q-45 0 -89 15q-68 23 -107 82q-54 83 -54 215zM625 -55q58 -149 118 -240 q55 -85 121.5 -133.5t132.5 -61.5q32 -6 66 -7q37 0 76 8q76 14 145.5 46.5t147.5 84.5q63 42 141 119.5t160.5 182.5t165.5 228.5t153 260t125 274t81 275.5q22 117 22 222v36q-4 121 -54.5 227.5t-146.5 179.5q-61 47 -135 62q-37 8 -73 7.5t-72 -7.5q-72 -15 -139 -48 t-126 -82q-20 -16 -76 -72q-15 -30 -110 -215.5t-123.5 -241t-111 -215t-127 -242t-114 -211.5t-129 -233t-118.5 -204z" />
<glyph unicode="E" horiz-adv-x="1542" d="M52 158q-4 -32 -4 -63q0 -65 18 -123q26 -86 80.5 -150t143.5 -92q52 -17 110 -17q41 0 85 8q66 10 128.5 39.5t124 82t102 94.5t104.5 114q126 135 179 180q102 89 196 115q4 0 4 4q0 3 -2.5 4.5t-3.5 -0.5q-41 -11 -84 -34t-75.5 -47t-77 -67t-69.5 -69.5t-73 -79.5 q-41 -45 -59 -64t-57.5 -59t-62.5 -59.5t-61 -48.5t-68.5 -44.5t-69.5 -29.5t-77 -20q-26 -4 -51 -4q-117 0 -193 90q-82 96 -83 249q0 9 1 18q6 198 139 374q180 238 524 336q86 24 179 39q7 0 7 6q-4 4 -5 4q-99 65 -178.5 154t-128.5 185q-49 95 -58 193q-2 21 -2 42 q0 74 26 137q33 81 128 141.5t244 81.5q39 5 78 5q152 0 285 -85q3 -3 8 2q0 6 -2 8q-145 91 -333 90h-38q-104 -5 -200 -40t-169 -93.5t-111 -144.5q-29 -65 -29 -136q0 -24 3 -49q44 -270 369 -491q-148 -25 -275.5 -74.5t-223 -116.5t-165 -142.5t-114.5 -160.5 q-51 -92 -63 -192z" />
<glyph unicode="F" horiz-adv-x="1849" d="M7 52q25 143 143 278q99 119 256 157q4 0 8 -4q0 -6 -4 -6q-151 -36 -250 -153q-130 -152 -139 -317q-1 -11 -1 -22q0 -119 71 -190q59 -59 147 -59q39 0 84 12q148 39 315 203q94 93 189 216t186 270.5t140.5 233.5t123.5 220q-112 -24 -229 -66q-5 -2 -9 2q0 7 4 7 q131 50 240 69q42 77 270 510q55 112 160 307q-108 21 -188.5 31.5t-181.5 12.5q-10 0 -21 1q-90 0 -171 -20q-91 -22 -169 -68q67 -26 100 -80q18 -27 27 -61q4 -23 5 -46q0 -75 -44 -157q-62 -111 -149 -164q-46 -31 -100 -41q-26 -5 -50 -5q-25 -1 -48 5q-44 10 -68 52 q-16 28 -17 65q0 18 4 39q12 72 74.5 157.5t127 144t113.5 87.5q-46 17 -88 17q-30 3 -63 3q-133 0 -320 -51q-1 0 -6 5q0 1 1 3t1 3q201 51 336 51q27 0 51 -2q44 -5 99 -21q92 56 210 82.5t233 27.5h12q110 0 232 -17q130 -18 236 -44t215 -61q126 -42 194 -61 q69 -20 175 -34q58 -8 111 -9q44 0 86 6q6 3 6 -4q0 -4 -4 -4q-51 -12 -112 -12q-54 -1 -117 9q-133 20 -347 72l-293 70l-151 -293q-203 -390 -258 -491q23 2 45 2q43 0 83 -6q61 -10 95.5 -21.5t87.5 -34.5q44 -18 67.5 -26t67.5 -18q38 -9 72 -9q5 1 10 1q38 2 94 11.5 t119 32.5q4 0 4 -4v-6q-65 -23 -122 -33q-56 -10 -94 -11h-7q-35 0 -77 10q-46 10 -68.5 17.5t-69.5 26.5q-54 22 -88 33t-96 20q-40 6 -82 6q-23 0 -47 -2q-9 -16 -28 -51q-53 -97 -84.5 -152.5t-91 -158t-109 -176t-113 -162t-130 -163t-133.5 -134.5q-221 -196 -418 -199 h-8q-136 0 -213 95q-60 75 -60 178q0 33 6 68zM649 1284q-4 -21 -4 -39q1 -37 17 -63q24 -38 68 -44q17 -3 34 -3q28 0 59 7q50 11 90 36q98 65 146 161q43 76 43 146q0 25 -6 49q-6 32 -23 57q-37 56 -104 78q-52 -31 -117.5 -89t-128 -142t-74.5 -154z" />
<glyph unicode="G" horiz-adv-x="1206" d="M20 -90q-2 24 -2 47q0 67 16 130q22 84 64 157q85 143 195 194q51 22 99 22q2 1 3 1q47 0 79 -19q34 -18 54 -49q16 -26 16 -63v-13q-4 -45 -32 -94q0 -2 -4 -2q-4 1 -2 6q29 55 29 102q0 6 -1 13q-4 51 -38.5 76.5t-85.5 31.5q-10 2 -21 2q-43 0 -92 -22 q-113 -57 -188 -190q-43 -72 -65 -156q-16 -64 -16 -130q0 -22 2 -45q7 -90 52 -155q37 -55 92 -76q27 -9 55 -9q195 0 430 440q11 21 35 67q44 85 127.5 236.5t100.5 183.5q73 140 176 344q-65 -74 -180 -147q-188 -118 -363 -154q-94 -20 -167 -20q-167 0 -226 104 q-29 52 -29 122q0 93 51 219q87 213 275 415q209 224 435 312q116 45 221 45q61 0 118 -15q105 -28 105 -96q0 -48 -53 -116q-95 -121 -312 -260q-153 -98 -215 -113q-6 -1 -10 -1q-7 0 -7 4q0 6 7 6q35 0 178 85q213 128 324 249q78 84 78 140t-77 84q-10 4 -22 7 q-40 11 -83 11q-154 0 -345 -137q-195 -141 -356 -370t-197 -415q-8 -44 -8 -81q0 -122 92 -164q44 -20 106 -20q51 0 115 13q190 42 358 156q135 81 207 176q45 83 56 106q10 12 29.5 5t35.5 -27.5t8 -34.5q-85 -171 -235 -461q-41 -78 -234 -430q-24 -43 -41.5 -73.5 t-47.5 -78.5t-55 -82t-60.5 -76t-68.5 -70t-74 -54t-81 -37t-86 -12h-3q-45 0 -91 16q-57 18 -98 78q-45 70 -52 162z" />
<glyph unicode="H" horiz-adv-x="2054" d="M14 -80v20q0 73 19 150q22 87 61 154q38 66 88.5 117t106.5 77q37 18 77 23q15 2 29 1q25 0 48 -4q37 -8 63.5 -35.5t32.5 -70.5q2 -11 2 -22q0 -48 -31 -107q-2 -2 -8 -2q-2 0 -2.5 2.5t0.5 3.5q30 56 30 102q0 11 -2 21q-6 43 -32 68q-26 24 -62 30q-19 3 -37 3 q-17 0 -35 -2q-36 -5 -69 -19q-54 -28 -103 -77.5t-86 -112.5q-40 -69 -62 -154q-17 -66 -16 -130q0 -18 1 -36q2 -42 15 -85.5t35.5 -82.5t60.5 -61q31 -18 66 -18q8 0 17 1q61 3 121 50q54 38 109.5 96.5t109 136t98.5 149.5t96.5 171t84 163t80 162.5t65.5 134.5 q-160 -56 -273 -56q-25 0 -48 3q-64 9 -95 45q-29 33 -32 78v13q0 37 14 71q28 68 90 98q6 0 6 -4q1 -1 0.5 -3.5t-2.5 -2.5q-58 -28 -84 -92q-14 -38 -14 -69v-11q3 -42 31 -70q29 -32 88 -41q25 -4 53 -4q112 0 274 58q32 62 105 207.5t122 241t111 215t110.5 204.5 t82.5 135q-51 -29 -120.5 -45.5t-128.5 -21.5q-28 -2 -64 -2q-39 0 -89 2q-94 6 -147 11.5t-160 18.5q-145 18 -218 25q-44 4 -99 4q-36 1 -74 -1q-100 -4 -160 -32q-62 -27 -94.5 -76t-34.5 -110q0 -55 23 -105q31 -53 78 -84q45 -31 104 -41q24 -4 53 -4q41 0 89 8 q82 15 173 60q3 3 6 0q1 0 1 -2q0 -3 -3 -6q-94 -46 -178 -62q-48 -9 -89 -9q-30 1 -56 5q-60 12 -107 43q-53 38 -79 88q-25 54 -25 99v10q0 63 35 116t102 80q62 26 160 30q39 2 73 2q55 0 103 -4q78 -7 217 -24q105 -13 163 -19q60 -6 154 -11q43 -2 79 -2q43 0 77 3 q62 6 132.5 25t121.5 52q20 11 43 11q20 0 42 -9q13 -7 13 -11q-97 -133 -467 -866q-34 -66 -51 -100q17 6 49 19t46 18q123 51 204 81.5t202 65.5t228 49q144 261 278 454.5t232 272.5q55 40 88 49q29 8 58 7q36 0 71 -11q5 -2 5 -8q-3 -3 -11 0q-8 2 -17 2 q-79 0 -221 -180q-158 -200 -374 -578q23 1 45 0q229 0 440 -92q2 0 2 -6q0 -7 -6 -4q-206 93 -431 93q-28 0 -56 -1q-162 -298 -180 -332q-395 -756 -395 -1138q0 -189 97 -287q100 -100 300 -101q31 0 65 3q130 10 252.5 47t204.5 90q4 4 4 0q3 -5 0 -8 q-84 -54 -207 -91.5t-252 -46.5q-48 -4 -92 -4q-480 0 -479 425v15q7 379 401 1110q42 78 116 211q39 69 54 97q-104 -13 -225 -48.5t-194.5 -63.5t-202.5 -81q-6 -3 -107 -43q-23 -45 -64 -131t-73.5 -153.5t-81 -160t-91 -165t-97.5 -154t-107 -141t-113 -111t-122 -79.5 q-68 -35 -142 -35q-65 3 -112.5 45t-70 99t-26.5 122z" />
<glyph unicode="I" horiz-adv-x="1189" d="M16 -37q0 141 80 281q38 66 88.5 117t106.5 77q48 24 96 26h9q42 0 73 -18q34 -20 55 -51q19 -29 19 -68q-1 -5 -1 -10q-2 -46 -30 -94q-2 -2 -8 -2q-2 0 -2.5 2.5t0.5 3.5q23 43 28 81q2 12 2 23q0 25 -8 43q-11 28 -34 46q-22 18 -52 26q-20 5 -43 5q-11 0 -25 -1 q-38 -4 -75 -20q-110 -55 -189 -190q-77 -132 -77 -277q0 -96 30 -165.5t79 -101.5q39 -25 88 -24q12 0 26 1q64 8 129 59q79 63 168 194q102 157 206 354.5t191 383.5t176.5 373.5t196.5 380t217 347.5q-168 52 -324 52q-199 0 -381 -84q-153 -71 -268 -189 q-147 -163 -160 -311q-2 -15 -2 -29q0 -51 23 -89q29 -49 92 -64q25 -6 54 -6q72 0 174 35q143 49 337 177q3 3 6 0q0 -6 -2 -8q-195 -130 -339 -180q-105 -36 -178 -36q-28 0 -52 5q-69 18 -100 70q-26 44 -26 103q0 12 1 24q20 160 166 315q117 127 268 191q96 43 183 64 t179 21q5 0 10 1q86 -1 157 -9q75 -8 192 -28l20 -4q68 -12 68 -27q0 -4 -4 -8q-111 -156 -219 -355t-196.5 -390t-177 -381.5t-194.5 -384t-214 -342.5q-101 -143 -215 -203q-60 -33 -118 -42q-21 -3 -41 -3q-35 0 -67 10q-50 16 -88.5 54.5t-60.5 102.5t-23 146z" />
<glyph unicode="J" horiz-adv-x="1302" d="M35 -37q0 146 80 281q82 144 194 194q40 20 80 24q13 2 25 2q25 0 47 -6q32 -10 55.5 -32.5t34.5 -52.5q7 -20 7 -44q0 -12 -2 -25q-5 -40 -28 -81q-2 -2 -6 -2q-2 0 -2.5 2.5t0.5 3.5q25 52 26 96q1 3 1 6q0 40 -19 66q-19 28 -51 44q-28 14 -64 14q-6 0 -12 -1 q-44 -2 -90 -22q-109 -54 -188 -190q-78 -139 -78 -277q0 -96 30 -165.5t79 -101.5q39 -25 88 -25q12 0 26 2q64 8 129 59q83 64 168 194q104 159 207.5 353.5t189.5 377t173.5 366t193.5 376.5t215 354q-52 -29 -121.5 -45.5t-128.5 -21.5q-28 -2 -64 -2q-40 0 -90 2 q-95 6 -147 11.5t-159 18.5q-143 18 -216 25q-44 4 -99 4q-35 0 -73 -1q-100 -5 -161 -32q-64 -27 -96.5 -76t-34.5 -110q0 -52 24 -105q25 -48 76 -84q45 -31 104 -41q25 -5 53 -5q41 0 89 9q83 15 174 60q4 2 6 -2q3 -3 -2 -6q-94 -47 -178 -62q-48 -9 -89 -9q-30 0 -55 5 q-61 11 -108 43q-55 39 -80 88q-25 55 -25 109q0 63 35.5 116t102.5 80q62 26 161 30q39 2 74 2q56 0 103 -4q78 -7 217 -24q131 -16 205.5 -23t182.5 -9h15q99 0 174 18q81 20 143 60q13 9 39 9q17 0 39 -4q26 -6 25 -12l-35 -51q-102 -159 -206 -358.5t-190 -383 t-174.5 -368.5t-193.5 -371t-213 -335q-106 -146 -215 -203q-60 -33 -118 -42q-21 -3 -41 -3q-36 0 -68 10q-50 17 -88 55t-59.5 102t-22.5 146z" />
<glyph unicode="K" horiz-adv-x="1763" d="M49 -37v9q0 131 80 272q81 143 193 194q56 28 107 28q17 0 34 -3q43 -9 69 -35t34 -60q4 -19 5 -39q0 -17 -3 -33q-6 -38 -23 -73q-2 -2 -8 -2q-4 1 -2 6q17 33 23 69q3 17 2 34q0 18 -3 35q-6 33 -30.5 57.5t-63.5 30.5q-15 3 -31 3q-47 0 -104 -26q-112 -55 -191 -190 q-78 -134 -78 -277q0 -130 52 -209q39 -60 93 -77q25 -8 50 -8q28 0 58 11q54 20 102.5 56.5t85.5 83.5q96 118 178 255.5t145 271.5t121 264.5t132 280t151 273.5q-211 -98 -387 -123q-69 -9 -131 -9q-163 0 -269 65q-86 54 -118 142q-20 54 -20 106q0 33 8 65 q20 83 79 137q51 46 117 55q18 2 35 2q47 -1 87 -17q56 -24 98.5 -78t49.5 -126q0 -6 -6 -6q-1 -1 -3.5 0.5t-2.5 3.5q-6 68 -46 120q-39 52 -93 76q-40 18 -85 18q-15 0 -31 -2q-62 -8 -110 -52q-58 -54 -78 -134q-8 -31 -7 -62q0 -51 19 -103q32 -85 116 -137 q102 -62 254 -62q64 0 137 11q179 23 395 125q316 586 483 643q29 10 53 11q35 0 61 -21q35 -28 35 -76q0 -13 -3 -27q-10 -54 -51 -114t-95 -111t-121 -101.5t-122 -85t-105 -61.5q-67 -121 -256 -489q169 169 356 284q322 189 701 189q6 0 6 -7q0 -6 -6 -6 q-379 0 -696 -186q-188 -111 -375 -305l-60 -123q234 108 363 108q159 0 162 -112v-7q-1 -58 -43 -163q-46 -111 -110.5 -234.5t-128 -249.5t-102.5 -244q-30 -92 -30 -156q0 -18 2 -34q5 -53 53 -54q14 0 31 5q105 31 338 182q13 9 37 24.5t36.5 23.5t28.5 18.5t27.5 16 t19.5 8.5q4 0 9 -5q0 -4 -4 -6q-21 -7 -148 -86q-214 -147 -340 -186q-40 -11 -72 -11q-44 0 -73 21q-48 39 -48 119q0 74 35 168q36 96 89 204.5t112 218t106 205t69 173.5q12 42 12 72q0 26 -9 44q-16 29 -57 35q-10 1 -22 1q-114 0 -351 -115l-18 -39q-18 -36 -59.5 -123 t-64 -131t-62 -120.5t-69.5 -124.5t-70 -107t-81 -104.5t-84 -82.5q-47 -38 -104 -62t-116 -31q-13 -2 -26 -2q-46 0 -88 19q-54 24 -88 78q-53 77 -53 215zM1380 1253q74 42 141.5 88t141.5 107t125 130t65 134q4 19 4 34q1 40 -25 56q-12 7 -25 7q-27 0 -62 -31 q-84 -77 -205.5 -263.5t-159.5 -261.5z" />
<glyph unicode="L" horiz-adv-x="1501" d="M24 -259q-9 28 -9 56q0 52 32 107q62 105 202 140q32 8 66 11q24 3 50 3q98 0 217 -42q100 157 198.5 349.5t211.5 432.5t177 365q-203 -95 -383 -121q-61 -9 -117 -9q-143 0 -251 59q-88 46 -137 129q-37 67 -37 136q0 18 2 36q7 60 43.5 106t86.5 68.5t108 24.5h8 q54 0 100 -20q50 -20 86.5 -69t42.5 -119q3 -6 -4 -6q-2 0 -4 4q-8 66 -43 112q-34 48 -82 68q-46 20 -100 20h-3q-55 0 -102.5 -21.5t-83 -65.5t-43.5 -104q-2 -17 -1 -32q0 -72 36 -132q38 -74 129 -125q105 -56 245 -56q57 0 119 9q181 22 392 123q144 279 262 443.5 t227 201.5q28 10 52 10q37 1 64 -23q32 -28 31 -73q0 -17 -4 -37q-16 -67 -73.5 -139.5t-138 -135.5t-149.5 -108.5t-138 -83.5q-74 -142 -194 -398.5t-228 -467.5t-219 -379q65 -30 159.5 -80.5t168 -92.5t169.5 -86t176.5 -69.5t176.5 -33.5q29 -3 57 -3q64 -1 123 13 q85 20 178.5 76.5t179.5 150.5q3 3 6 0q2 -2 0 -6q-70 -77 -144.5 -129t-144 -78t-145.5 -33q-34 -3 -67 -3q-40 0 -77 4q-68 8 -144 31.5t-141 52.5t-140 67t-136 72.5t-134.5 72.5t-129.5 63q-219 -336 -457 -336q-35 0 -71 7q-81 17 -107 93zM29 -237q14 -76 85 -101 q10 -4 21 -6q17 -3 34 -3q175 0 406 355q-127 40 -227 40q-17 0 -33 -1q-162 -18 -242 -123q-47 -62 -47 -126q0 -18 3 -35zM1319 1249q72 42 139 87.5t143 106.5t129 129t68 130q5 22 5 41q0 37 -21 57q-13 13 -31 14q-25 0 -59 -26q-60 -50 -150 -179.5t-143.5 -220 t-79.5 -139.5z" />
<glyph unicode="M" horiz-adv-x="2441" d="M23 20q0 141 79 283q78 137 193 193q47 24 95 26q3 0 7 -1q43 0 75 -17q34 -18 56 -50q19 -28 20 -68v-10q-2 -46 -32 -93q-1 -4 -6 -2q-4 0 -4 4q28 49 30 93q0 5 1 10q0 38 -18 63q-20 29 -53 45q-29 15 -68 15h-10q-45 -2 -89 -24q-110 -57 -188 -190 q-78 -143 -78 -277q0 -127 51 -208q36 -55 96 -74q28 -9 55 -10q30 0 60 12q107 33 202.5 114t171 192.5t144 248.5t127.5 286.5t114.5 300t111.5 296.5t112.5 269.5t125 224t140.5 155.5q11 7 34.5 4.5t47.5 -14.5t23 -23q-10 -105 -111 -549q-139 -643 -174 -878 q74 141 126.5 238t139 249.5t155.5 261t159 235t167 210.5t162.5 149.5t161.5 87.5q20 5 54.5 -2.5t41.5 -23.5q-22 -62 -49.5 -127.5t-68 -158t-54.5 -124.5q-101 -231 -162.5 -375t-143 -350t-140.5 -383q-61 -163 -107 -336q173 -10 258 -113q68 -74 82 -198q4 -36 4 -70 q0 -148 -79 -282q-72 -121 -175 -171q-50 -24 -93 -24q-51 0 -92 33q-95 76 -95 295q0 36 3 76q12 187 81 442q-154 -14 -350 -90q-212 -85 -397.5 -212.5t-260.5 -240.5q-2 -2 -8 -2q-5 5 -2 8q77 115 264.5 243.5t399.5 211.5q194 77 356 92q42 157 113 356 q136 393 452 1117q137 311 168 399q-62 -19 -131 -67.5t-134 -113.5t-137.5 -156.5t-134.5 -181.5t-132.5 -204t-125.5 -209.5t-118.5 -211.5t-105.5 -196t-93 -178.5t-76 -144.5q-2 -2 -6 -2q-4 2 -4 4q0 101 37 320t66.5 357.5t95.5 442.5l18 81q90 420 92 484 q-73 -59 -141.5 -161t-124 -224.5t-111 -266.5t-110 -292t-112 -295t-125.5 -282t-144 -246.5t-173 -194.5t-206 -120q-35 -12 -67 -12q-30 0 -59 10q-60 20 -97 77q-53 82 -53 215zM1737 -801q36 -102 115 -102h9q80 6 159 101q96 116 116 276q4 33 4 65.5t-4 65.5 q-14 120 -78 196q-90 101 -256 107q-90 -330 -91 -532q1 -106 26 -177z" />
<glyph unicode="N" horiz-adv-x="1740" d="M20 20q0 142 82 283q75 137 193 193q49 25 103 26h4q52 0 93 -28q42 -28 50 -84q1 -9 1 -18q0 -54 -30 -109q-1 -3 -4 -3.5t-4 1.5q-6 0 -2 4q30 54 30 105q0 10 -1 20q-9 54 -51 79q-38 22 -81 22h-11q-50 -3 -93 -24q-112 -56 -190 -190q-78 -143 -78 -277 q0 -76 19.5 -135.5t51.5 -94.5q34 -35 78 -49q27 -8 54 -9q19 0 38 4q48 10 100.5 46t98.5 95q84 104 223 356q154 278 406 777q129 253 179 350.5t132.5 246.5t130.5 218q13 13 36.5 6.5t46 -25.5t20.5 -32q-10 -92 -109 -529q-139 -643 -174 -878q55 105 97 183.5t106 194 t116.5 203.5t121 196t127.5 189t127.5 165t129.5 141.5t126 100t124 58.5q4 2 8 -2q0 -6 -4 -6q-308 -82 -783 -902q-120 -207 -317 -583l-96 -180q0 -2 -4 -2t-4 4q0 101 35.5 314t68 368.5t93.5 437.5q112 499 110 565q-111 -160 -434 -806q-239 -479 -405 -779 q-135 -245 -224 -358q-58 -73 -124 -111q-60 -34 -114 -34h-11q-58 4 -106.5 36.5t-77 100.5t-28.5 159z" />
<glyph unicode="O" d="M-293.5 127.5q-1.5 2.5 0.5 3.5q74 284 208 456t321 267q156 300 448 602q52 52 110.5 100.5t130 98t147 84.5t152.5 57q65 18 131 18q12 0 25 -1q79 -4 148 -37q77 -34 106 -96q19 -40 18 -82q0 -23 -5 -47q-16 -67 -59 -132t-105 -114q12 -28 24 -84q13 -65 13 -134 q0 -260 -193 -557q-69 -109 -180 -239q-212 -248 -414 -383q-104 -69 -195 -108q-92 -40 -163 -48q-26 -3 -51 -3q-42 -1 -79 9q-59 14 -100 51t-69.5 90t-41.5 120.5t-13 144.5t13.5 160t39.5 169.5t63 170.5q55 119 86 174q-85 -47 -157 -107.5t-139 -145.5t-121 -200 t-91 -256q-1 -4 -4 -4t-4.5 2.5zM124 195q-1 -26 -2 -50q0 -47 4 -89q6 -66 27.5 -119t53.5 -91.5t82 -55.5q39 -13 85 -13q14 0 28 1q62 5 146 40t181 100q199 135 410 379q102 120 178 238q192 294 192 554q0 65 -12 128q-4 28 -20 79q-90 -69 -113 -86 q-100 -67 -237 -114t-254 -69t-263.5 -55t-244.5 -71q-77 -128 -132 -258q-31 -71 -54.5 -147t-37 -152t-17.5 -149zM375 915q102 37 249.5 69.5t260 53.5t244.5 68t229 115q65 44 112 88q-61 136 -165 178q-47 19 -98 19q-26 0 -52 -5q-6 0 -6 2q0 6 4 6q32 7 61 7 q50 0 95 -19q118 -52 170 -182q42 39 76.5 84t57.5 98t26 101v10q0 44 -25 84q-28 45 -90 75q-53 25 -116 27h-10q-58 0 -114 -16q-60 -17 -125 -49.5t-122 -71.5t-114 -86t-100.5 -88t-81.5 -82q-176 -186 -366 -486z" />
<glyph unicode="P" horiz-adv-x="1705" d="M78 53q0 10 -1 19q0 86 28 166q31 90 103 167t175 117q59 23 117 28q15 1 30 1q40 0 78 -10q50 -14 89.5 -51.5t58.5 -94.5q3 -6 -2 -6q-9 0 -9 2q-18 55 -55 91q-38 34 -86 48q-37 10 -79 11q-11 0 -25 -1q-56 -4 -113 -26q-71 -27 -127.5 -72.5t-91 -99.5t-56.5 -116 t-23 -124v-11q0 -55 9 -109q10 -60 38.5 -110.5t66.5 -88t93 -57.5q48 -17 102 -18q8 0 16 1q76 4 155 47.5t146.5 109.5t139 164.5t127 193t118 214.5t105 210.5t93.5 199t78 162.5q130 255 180.5 354t133.5 248t131 217l2 2q5 8 18 2q9 -3 14 -8l15 -10q26 -30 16 -46 q-48 -76 -124.5 -218t-121.5 -229t-161 -316l-17 -31q133 3 254 43q82 25 154 63t141.5 99t127 135t89.5 157q32 84 36 164q0 6 1 12q1 74 -41 144q-44 76 -137 131q-103 65 -233 93q-86 18 -175 19q-45 0 -92 -5q-167 -17 -312 -86.5t-253 -194.5t-148 -287 q-11 -52 -12 -106q0 -3 -1 -6q0 -50 18 -96q18 -48 46.5 -84t77.5 -52q29 -10 63 -10q22 0 46 4q75 14 139.5 73t96.5 154q0 4 6 4q4 0 4 -8q-34 -97 -100.5 -158t-143.5 -75q-26 -5 -50 -5q-32 -1 -62 9q-50 16 -80 53t-50 87q-19 49 -20 104q0 56 12 112q31 126 101.5 230 t167.5 174.5t212 115t242 60.5q72 10 144 10q66 0 132 -8q137 -18 246 -70q108 -50 171 -120q64 -70 78 -146q7 -36 7 -73q0 -41 -9 -83q-16 -82 -63 -159.5t-110 -146.5t-139.5 -123.5t-153.5 -86.5q-86 -34 -164 -47q-94 -18 -268 -26q-30 -59 -84.5 -174.5t-97 -205.5 t-107.5 -211t-122.5 -211.5t-134.5 -184.5t-151 -154t-165 -96q-80 -32 -162 -32q-11 0 -22 1q-104 4 -180.5 56t-113 129.5t-40.5 172.5z" />
<glyph unicode="Q" horiz-adv-x="1705" d="M-293 131q75 283 209.5 455.5t319.5 267.5q101 179 249.5 370t309.5 332q46 41 98 77.5t112.5 71t124 58.5t127.5 38q51 11 103 11h26q66 -4 125 -26q81 -26 119 -96q22 -41 24 -86v-9q0 -40 -12 -75q-14 -40 -40 -81t-54 -72t-61 -62q22 -74 24 -84q11 -58 11 -120 q0 -85 -21 -177q-36 -157 -114.5 -298t-187 -277.5t-220 -241.5t-221.5 -183q29 -87 93.5 -151.5t145.5 -75.5q21 -3 42 -3q90 0 195 60q130 75 222 172q106 106 182 267q2 4 9 4q5 -5 2 -9q-73 -151 -185 -270q-100 -106 -223 -173t-246 -67h-13q-86 0 -157 37 q-46 22 -82 58q-37 32 -69 98q-189 -113 -349 -113h-8q-107 4 -176 52t-95 124t-28 174v14q0 92 20 186q20 102 53 204.5t68 183.5t68 142q-87 -47 -159.5 -107.5t-139.5 -145.5t-120.5 -200t-90.5 -256q0 -7 -6 -4q-4 0 -4 6zM120 194q-5 -46 -5 -89q0 -51 7 -95 q12 -83 63.5 -143t140.5 -78q26 -5 55 -5q122 0 291 97q-48 107 -62 257q-6 70 -6 140q0 82 8 166q17 154 48.5 297t74.5 260q-221 -44 -366 -100q-31 -52 -67.5 -127t-75 -174.5t-67.5 -201t-39 -204.5zM379 915q127 47 358 99q97 249 217 375q97 103 201 120q31 7 61 7 q50 0 95 -19q69 -25 127 -100q33 -52 43 -82q161 155 161 279q0 47 -22 89q-40 73 -113 95q-56 16 -111 16h-4q-56 -1 -120 -22t-121 -49t-115.5 -67.5t-104 -75.5t-87.5 -75q-245 -227 -465 -590zM708 288q-1 -16 -1 -32q0 -181 47 -322q93 66 187 151.5t188 191.5 t169.5 220t131 237.5t73.5 243.5q8 55 8 108q0 66 -12 131q-9 47 -22 79q-18 -16 -111 -86q-99 -68 -221.5 -108t-298.5 -78q-60 -157 -97 -346t-41 -390zM852 1038q167 35 289 75.5t221 107.5q71 48 111 88q-15 36 -43 80q-53 71 -123 98q-32 11 -62 11q-7 0 -13 -1 q-37 -3 -73.5 -26t-69.5 -53.5t-65 -72t-58 -82.5t-49 -84.5t-38.5 -78t-26.5 -62.5z" />
<glyph unicode="R" horiz-adv-x="2240" d="M16 111q12 91 56.5 179t111.5 152q91 86 225 104q25 3 48 3q103 0 180 -64q38 -35 57 -90l-2 -6q-6 0 -8 2q-17 50 -53 86q-59 55 -143 63l-34 2q-68 0 -128 -24q-76 -30 -133 -84q-66 -63 -110 -149.5t-56 -175.5q-5 -34 -5 -66q0 -57 15 -107q23 -78 72 -128 q49 -48 119 -72q53 -18 110 -19q18 1 36 3q76 8 159 50.5t153 118.5q37 41 76 94.5t65 93t68.5 117t58 107t64 125t57.5 113.5l242 471q324 652 444 819q26 14 46 -20t8 -56q-100 -161 -398 -747l-14 -31q353 48 580 239q171 145 215 323q13 52 13 101q0 112 -68 203 q-114 155 -381 186q-64 7 -136 7q-123 -1 -259 -49t-253 -127.5t-208 -191t-124 -230.5q-11 -42 -11 -82q-1 -48 15 -92q30 -82 102 -124q52 -31 115 -31q23 0 48 5q75 14 139 73t96 154q0 4 6 4q8 0 4 -8q-34 -98 -100 -158.5t-143 -74.5q-26 -5 -51 -5q-64 -1 -118 31 q-76 44 -107 129q-16 45 -16 92q0 43 13 89q34 124 124.5 237t208.5 191.5t254.5 127t264.5 52.5q24 1 48 1q323 0 497 -141q141 -113 144 -282v-7q0 -168 -134 -324q-167 -193 -473 -283q-88 -26 -184 -41q106 -17 178 -61.5t108 -99.5q36 -54 46 -134q6 -49 7 -95 q0 -28 -3 -55q-6 -69 -32.5 -164.5t-49.5 -158t-58 -150.5q179 -56 250 -160q50 -69 51 -157q0 -104 -71 -234q-46 -84 -134 -162t-180 -122q-86 -39 -143 -39q-111 0 -111 150v9q5 199 179 588q46 104 57 133q-49 7 -96 7q-82 0 -158 -20q-120 -32 -166 -101q-3 -3 -6 -2 l-2 6q48 73 172 107q81 22 167 22q46 0 93 -6q27 66 46.5 117.5t41.5 122.5t33 127q11 55 16 121q2 23 2 44q-1 40 -7 72q-10 50 -33.5 101.5t-65 87.5t-107 62.5t-151.5 37.5q-34 -65 -107 -209.5t-112 -218.5q-18 -34 -67.5 -130t-80.5 -151.5t-80 -137t-101.5 -148 t-109.5 -122.5q-74 -70 -163 -108q-88 -39 -172 -44q-13 -1 -27 -1q-70 1 -135 23q-78 26 -132 78q-56 52 -82 134q-17 54 -17 115q0 33 5 68zM1528 -437q-48 -159 -48 -247q0 -108 72 -110h3q32 0 79 22q89 40 173.5 117t131.5 161q70 126 70 228q0 84 -47 151 q-70 107 -246 156l-59 -137q-74 -160 -129 -341z" />
<glyph unicode="S" horiz-adv-x="1439" d="M-317 -686q10 95 36 172.5t60 131t84 98.5t97 73t108 55q-55 107 -55 221q0 57 14 115q41 174 174 293q88 75 166 100q-1 18 -1 36q0 138 60 278q47 114 131 206.5t191 149.5q147 75 405 111q56 245 257 378q147 98 312 104q11 0 21 1q115 0 168 -51q28 -26 28 -61 q0 -13 -4 -27q-24 -96 -227 -205q-97 -51 -202 -79.5t-246 -51.5q-25 -89 -38.5 -205t-15.5 -223t-10 -229.5t-18.5 -231.5t-43.5 -222.5t-84 -208t-140.5 -182t-211.5 -151.5q-102 -54 -229 -63q-20 -1 -40 -1q-104 0 -193 40q-93 47 -152 137q-2 2 -5 7t-5 7 q-76 -33 -133 -71.5t-112 -98.5t-89.5 -148.5t-46.5 -203.5q0 -6 -6 -6q-4 0 -4 6zM24 66q0 -3 -1 -6q0 -110 55 -212q25 11 80 34t80.5 34.5t71.5 33t74 40t64.5 45t67 57.5t59.5 68q40 50 62 102t24 96v13q1 37 -9 71q-12 40 -38 68t-61 47t-80 20h-6q-42 0 -88 -12 q2 -58 27 -141q0 -6 -5 -6q-3 -3 -6 4q-19 52 -26 139q-81 -25 -160 -96q-85 -76 -134 -181t-51 -218zM84 -158q3 -8 8 -16q56 -86 150 -131q66 -31 139 -33h10q67 0 127 19q64 21 129 61q110 71 191 161.5t127.5 184.5t76 203.5t40 212.5t17 219t7.5 216t12 210t31 194 q-88 -14 -142 -25t-126 -33t-129 -52q-105 -53 -186.5 -144.5t-129.5 -205.5q-58 -136 -58 -271q0 -18 1 -37q40 12 76 12h10q40 -2 75.5 -13t61.5 -35.5t44 -54.5q18 -28 24 -68q3 -20 2.5 -40t-2.5 -41q-6 -41 -28 -88t-58 -93q-29 -38 -60.5 -69t-68 -57.5t-65 -45 t-74.5 -40.5t-71.5 -33t-81 -34t-79.5 -33zM1262 1374q283 43 442 127q196 107 221 199q4 14 4 26q0 50 -59 75q-39 17 -90 17q-53 0 -118 -19q-166 -48 -279 -185q-85 -103 -121 -240z" />
<glyph unicode="T" horiz-adv-x="1331" d="M-539.5 690q1.5 2 4.5 2q34 8 68 9h7q31 0 62 -8q35 -9 65.5 -19t67.5 -32.5t64 -39t65 -49t61 -52t62 -58t57.5 -57t57.5 -58.5l17 -17q108 139 266 164q32 5 60 6q103 0 158 -69q40 -50 40 -114q0 -20 -4 -41q-17 -87 -87 -129q-44 -26 -96 -26q-72 0 -160 50 q-85 49 -177 143q-35 -50 -53 -96q-26 -67 -27 -141v-7q0 -69 19 -129q20 -62 60 -111t90 -75q42 -21 92 -21q11 -1 23 1q65 6 132 48q102 64 211.5 216.5t209 347.5t192 392t194.5 397t182 315l6 10q127 179 252 287t229 149l35 12q-93 14 -197 33q-39 7 -155.5 28 t-178 30.5t-159 23.5t-179.5 20q-70 5 -137 5h-22q-89 -1 -174 -14.5t-171 -42t-155.5 -82t-107.5 -126.5q-26 -46 -27 -88q1 -19 7 -37q18 -58 67 -98t132 -56q42 -8 87 -9q43 0 88 8q110 19 186 45l4 -14q-101 -34 -186 -46q-47 -8 -92 -8q-34 0 -64 4q-74 10 -125 37 t-84 68q-34 42 -34 93q0 50 28 105q42 77 115 133t161.5 85t172.5 41.5t172 13.5h16q98 0 218 -11q130 -12 208.5 -24t223.5 -38t170 -30q255 -41 441.5 -65t379.5 -36q112 -7 210 -8q70 0 133 4q150 9 296.5 40.5t275.5 89.5l6 -12q-158 -72 -338 -107q-177 -35 -371 -35 h-5q-196 0 -366.5 16.5t-385.5 49.5q-1 0 -3 -1t-3 -1q-118 -40 -227.5 -130t-198 -210t-171.5 -265t-157.5 -300.5t-147 -311.5t-148.5 -303.5t-153 -270.5t-169 -218t-189 -141q-69 -34 -131 -34h-12q-68 4 -125 30t-99 79t-66 116q-22 59 -23 130q1 5 1 9q2 76 29 149 q16 48 54 100l-17 19q-36 37 -56.5 57.5l-57 57t-60.5 57.5t-60 51.5t-64 48t-63.5 39t-66.5 31.5q-30 12 -64 20q-30 8 -60 7h-8q-34 -1 -66 -9q-7 0 -7 4q-2 2 -0.5 4zM125 305q184 -190 330 -189h17q92 7 136 86q25 45 25 91q0 30 -10 60q-27 83 -115 108q-31 9 -66 9 q-26 0 -55 -5q-148 -23 -262 -160z" />
<glyph unicode="U" horiz-adv-x="1552" d="M-548 1162q-4 16 -4 32q0 26 10 50q17 40 44 74.5t60 59.5q65 50 139.5 88t161 61.5t161 39t177.5 23.5t170.5 11t177.5 5q255 8 373 22q86 120 125 166q58 70 117 101q54 28 99 28h9q50 -2 73 -38q12 -18 12 -39q0 -20 -11 -42q-24 -45 -91.5 -86.5t-181.5 -70.5 l-41 -13q-125 -175 -259.5 -393.5t-270.5 -470t-236.5 -506t-128.5 -442.5q-9 -62 -9 -112q0 -32 4 -58q9 -68 41 -103.5t77 -46.5q21 -5 45 -5q27 1 58 7q58 12 118.5 40t124.5 71q104 70 213 187t187.5 222t182 278t151.5 261t141 263q33 63 49 92q222 412 308 555 q153 253 279 385q80 82 156 128q76 44 158 56q20 3 40 3q63 1 129 -27q86 -36 175 -122q8 -4 0 -8q-3 -3 -6 0q-87 82 -171 118q-64 27 -126 27q-20 -1 -39 -3q-80 -12 -155 -56.5t-152 -124.5q-71 -74 -143.5 -174t-154 -238.5t-138 -242t-150.5 -281.5q-13 -25 -41 -78 q-218 -411 -352 -621q-278 -434 -535 -605q-55 -37 -114 -65t-120 -46t-116 -20h-12q-48 0 -90 14q-46 16 -76.5 56t-42.5 106q-6 30 -6 67q0 43 8 95q27 183 126 435.5t234 504t266.5 468.5t253.5 392q-128 -14 -364 -21q-117 -3 -177 -6t-168 -11t-178.5 -22.5t-158.5 -38 t-162 -60.5t-139 -87q-33 -26 -59 -60q-27 -34 -41 -72q-8 -21 -7 -43q0 -15 4 -31q11 -36 50 -62q38 -26 89 -26q10 0 21 1q71 8 141 68t119 174q4 4 8 2q2 0 3 -2.5t0 -3.5q-52 -116 -124 -177t-145 -71q-14 -2 -27 -2q-50 0 -92 27q-43 29 -54 70zM1040 1649q1 0 31 6 q215 56 264 155q13 25 9 50t-23.5 35t-52.5 -3q-81 -37 -228 -243z" />
<glyph unicode="V" horiz-adv-x="1411" d="M-369 1419q3 80 47 154t111.5 126t141.5 88.5t147 53.5q126 29 301 29q66 0 139 -4q136 -8 291 -25q238 -24 317 -24h103q2 0 2.5 -2.5t-0.5 -4.5q-89 -124 -193.5 -315.5t-168.5 -324t-185 -392.5q-75 -163 -110 -238.5t-103 -215t-113 -221.5t-105 -179.5t-114 -167.5 q5 1 41 11q57 19 115 52.5t107.5 69.5t111.5 96t105.5 106t111.5 127.5t108.5 132.5t116.5 147q90 113 128 160.5t124.5 152.5t146 170t144.5 152t166 161q246 229 526 392q311 180 662 270q5 2 8 -4q0 -6 -4 -6q-352 -90 -662 -271q-267 -155 -524 -387 q-99 -91 -192 -187.5t-196.5 -219t-153.5 -183.5t-164 -204q-87 -111 -137 -173t-126.5 -152.5t-132 -144.5t-124 -113t-133 -95.5t-130.5 -57.5q-88 -24 -132 -24q-19 0 -30 4q69 87 140 201.5t148 266t133 269.5t143 307q116 251 181.5 388t168 326t190.5 312h-16 q-104 0 -299 23q-260 22 -291 24q-75 4 -142 4q-174 0 -294 -28q-77 -18 -152 -54t-140 -87.5t-106.5 -122.5t-43.5 -148q0 -100 84 -164q0 -1 1 -2t1 -2q5 -3 2 -6q-2 -1 -5 -1t-4 1l-2 2q-86 67 -86 165v7z" />
<glyph unicode="W" horiz-adv-x="2310" d="M-383 1419q0 63 28.5 123.5t75 107.5t106 86.5t120.5 65.5t119 39q126 29 301 29q66 0 139 -4q128 -8 291 -25q242 -24 420 -24q1 0 1 -2.5t-1 -4.5q-55 -77 -116 -180.5t-103 -180.5t-115.5 -227.5t-100.5 -208t-110 -235.5q-118 -256 -185.5 -397t-170 -326 t-189.5 -299q82 20 166 69.5t156 111t159.5 158t156 180.5t166.5 208q9 11 13 17q106 133 164 204.5t157.5 188.5t194.5 215.5t195 189.5q26 5 59 -10t23 -39q-78 -168 -198 -497.5t-179 -593.5q-3 -17 -8 -48t-14 -92q-8 -62 -10 -116q-1 -27 -1 -53.5t1 -51.5 q2 -51 18 -76.5t45 -15.5q56 20 155 148.5t284 399.5q25 37 38 56q120 178 192.5 284t203 286t225 293.5t225 253.5t237.5 222.5t228.5 145t230.5 72.5q6 0 6 -6q0 -5 -6 -5q-107 -10 -226 -69.5t-228.5 -147.5t-232.5 -216.5t-226 -255t-221 -287t-205.5 -287.5 t-191.5 -279l-1.5 -3t-1.5 -2.5t-2 -2.5q-104 -155 -157.5 -233t-125 -175.5t-117.5 -143.5t-79 -58q-36 -14 -64 -14q-26 0 -47 12q-67 33 -67 172q0 122 47 321q63 268 182 590.5t196 497.5q-126 -117 -260 -266t-215 -248t-213 -266q-107 -135 -164.5 -205.5t-151 -177 t-159 -161.5t-148.5 -113q-83 -59 -163 -81q-68 -19 -136 -19q-12 0 -24 1q69 87 139.5 201t148 267t132.5 268.5t143 307.5q118 256 181.5 389t166.5 323.5t191 313.5h-15q-100 0 -300 23q-243 21 -291 24q-74 4 -141 4q-173 0 -295 -28q-76 -17 -151 -53.5t-140 -88 t-106 -122.5t-44 -148v-7q0 -95 82 -157l4 -4q2 -2 2 -6q-4 -4 -8 0l-2 2q-88 66 -88 172z" />
<glyph unicode="X" horiz-adv-x="2326" d="M15 -326q-10 46 -10 106q0 121 42 298q40 170 76 227q3 5 6 8q4 4 8 0q3 -3 0 -8q-27 -29 -68 -185q-53 -202 -53 -340q0 -35 3 -66q15 -135 100 -135q33 0 75 20q27 13 56 32q135 90 381 293t471.5 398t255.5 219q181 375 390.5 762t281.5 505h-16q-105 0 -302 23 q-245 21 -289 24q-75 4 -142 4q-174 0 -296 -28q-77 -18 -151.5 -54.5t-139.5 -88t-106 -122t-43 -147.5q0 -102 84 -164q0 -2 2 -4q3 -3 0 -6t-6 0q-2 2 -4 2q-86 67 -86 165v7q3 81 47.5 155t112.5 126.5t142.5 88.5t147.5 52q124 29 300 29q66 0 138 -4q132 -8 291 -25 q242 -24 322 -24h96q6 0 6 -5q-16 -22 -103 -176.5t-232.5 -427.5t-270.5 -526q377 301 541 428q701 548 839 565q4 0 4 -6q0 -4 -4 -4q-130 -16 -835 -563q-264 -205 -557 -443q-150 -300 -248 -526q-35 -73 -101 -253q-103 -284 -103 -393q0 -58 29 -66q11 -4 27 1 q46 14 100 41.5t131.5 79.5t116.5 79.5t138 98.5q89 65 138 99.5t117.5 79.5t116.5 66t82 24q7 0 7 -6q0 -7 -7 -7q-33 -2 -78.5 -22t-117 -66.5t-113.5 -76t-139 -99.5q-112 -81 -180 -129t-158 -100t-150 -70q-18 -6 -30 -8q-20 -4 -37 -4q-39 0 -66 20q-29 21 -29 85 q0 168 203 630q79 180 177 381q-13 -10 -246.5 -213t-471.5 -398t-374 -284q-83 -56 -139 -56q-77 0 -100 107z" />
<glyph unicode="Y" horiz-adv-x="1705" d="M-1180 -1315q19 49 45.5 89.5t55.5 71t70.5 54.5t77 40t90 28.5t93.5 19t103.5 12t105.5 7t111 4.5q11 1 73 4t81.5 4t71.5 5t81.5 8t71 11t76.5 15q-2 10 -2 35q0 94 34 184q38 100 95 172q90 113 209 133q23 4 43 4q64 0 106 -38q37 -34 37 -85q0 -29 -12 -63 q-26 -68 -99 -141q-152 -152 -401 -211q12 -101 59 -166q36 -45 80 -68q47 -20 95 -20q23 0 45 5q71 14 150 80t154 155t153.5 210.5t148.5 246.5t139 262t125.5 258t106.5 234t84 190q44 101 57 130q153 337 208 449q-155 -216 -387 -393q-235 -174 -428 -222 q-49 -14 -106 -14q-39 0 -66 12q-68 37 -68 145q0 22 3 46q10 115 96 334q89 216 231 468t267 431q-89 -9 -242 -13q-7 0 -22 -1q-402 -14 -573 -91q-139 -64 -139 -166q0 -9 1 -18q6 -34 35 -53q25 -18 58 -18q8 0 17 1q47 5 94 45.5t79 116.5l10 -4q-35 -80 -84 -121.5 t-99 -46.5q-8 -1 -15 -1q-33 0 -66 17q-33 23 -39 62q-1 9 -1 18q0 44 25 82q30 45 81 74t123 51t142.5 33.5t147 18.5t128.5 9q35 1 65 1h30q195 9 252 16q67 92 82 109q47 58 98 79q28 11 51 11q25 0 43 -13q14 -10 18 -30t-3 -33q-32 -74 -174 -113 q-109 -150 -238 -371.5t-223 -429.5q-112 -236 -146 -401q-4 -22 -6 -42t-3 -44.5t1 -43.5t7.5 -39.5t16 -33.5t25 -23.5t36.5 -10t50 5.5q192 48 422 221q261 195 422 444q267 554 414 756q22 10 52.5 -8t19.5 -41q-121 -181 -266 -473t-355 -750q-19 -41 -79 -179 q-224 -519 -384 -813q-431 -795 -767 -795q-69 0 -134 34q-44 19 -82 70q-54 66 -63 170q-157 -35 -455 -43q-253 -12 -359 -32q-223 -43 -322 -178q-37 -49 -60 -112q0 -4 -7 -4q-6 3 -4 8zM35 -907v-33q242 54 395 207q106 106 106 193q0 10 -1 20q-10 65 -76 88 q-28 10 -59 10q-56 0 -119 -35q-64 -35 -117 -100q-56 -67 -94 -168q-35 -93 -35 -182zM1315 1858q31 9 48.5 15.5t44 19.5t43 29.5t22.5 37.5q10 37 -9 45q-11 5 -34 -13t-48.5 -48.5t-41 -51t-25.5 -34.5z" />
<glyph unicode="Z" horiz-adv-x="2355" d="M27 -639q-18 14 -18 46q0 141 362 630q240 328 614 772q-121 -11 -247.5 -43.5t-218 -58t-144.5 -25.5q-4 0 -4 4q0 6 4 6q53 0 146.5 26t223 59.5t250.5 45.5q356 428 729 854q97 109 115 131q-109 1 -263 15.5t-267 26.5q-94 10 -208 11q-23 -1 -46 -1 q-141 -2 -258 -29q-77 -18 -152.5 -55t-140.5 -88.5t-106 -122t-44 -146.5q0 -102 84 -164q0 -2 2 -4t2 -6q-3 -3 -6 0l-4 2q-88 66 -88 172q6 81 50 154.5t110 125.5t140.5 88t150.5 54q121 29 265 31h46q117 0 212 -11q114 -13 265 -28t256 -16h103q6 0 6 -5 q0 -4 -15 -20.5t-48 -54t-60 -68.5q-303 -343 -705 -823q381 65 606 65q7 0 7 -4q0 -6 -7 -6q-223 0 -616 -70q-391 -466 -639 -800q-119 -158 -229 -337q-136 -219 -135 -289q0 -34 31 -35q3 0 5 1q10 1 21 4q78 22 210.5 68.5t256 91t282 94t300.5 85.5t299 58 q138 19 257 19h33q133 -3 260.5 -40t223.5 -111q4 -4 0 -9h-9q-91 71 -217 107q-124 36 -256 39h-33q-119 -1 -257 -19q-158 -22 -299 -56.5t-302 -84t-282.5 -93t-256 -90.5t-208.5 -69q-56 -15 -92 -15q-31 0 -47 11z" />
<glyph unicode="[" horiz-adv-x="1138" d="M78 -59l526 811l426 -2l-20 -60h-355l-438 -680l344 -2l-24 -69z" />
<glyph unicode="\" horiz-adv-x="806" d="M16 911q-7 6 15.5 25t49 27.5t44.5 -7.5q104 -135 316 -450.5t307 -503.5l-130 4q-128 229 -346.5 560.5t-255.5 344.5z" />
<glyph unicode="]" horiz-adv-x="1155" d="M100 -59l21 59h354l438 680l-344 2l25 70l459 -2l-527 -811z" />
<glyph unicode="^" horiz-adv-x="1228" d="M151 666q-8 20 5 43q221 305 326.5 446t129.5 167t35 24q6 -1 16 -12t56 -72t133 -182.5t252 -352.5q9 -13 9 -26.5t-8.5 -23t-19.5 -14.5t-24.5 -1.5t-22.5 16.5l-397 555l-420 -574q-16 -21 -39 -17t-31 24z" />
<glyph unicode="_" horiz-adv-x="761" d="M115 -121q358 4 532 -4l29 -24q8 -9 2 -9q-246 11 -533 4l-4 3q-41 30 -26 30z" />
<glyph unicode="`" horiz-adv-x="372" d="M111 811q4 11 37 -2.5t40 -24.5q55 -88 74 -137q-16 -6 -40 3.5t-38 23.5q-20 53 -73 137z" />
<glyph unicode="a" horiz-adv-x="985" d="M-114 86v11q0 30 4 57q6 32 16 59q39 105 110 183q72 80 168 114q41 15 85 14q58 0 120 -26q4 -2 4 -11q-6 -6 -10 -4q-27 11 -54 11q-80 0 -163 -97q-82 -97 -123 -225q-19 -59 -19 -92q0 -26 12 -36q13 -11 36 1q189 92 338 268q47 85 112 181q20 29 58 29q14 0 30 -4 q41 -10 48 -29q3 -6 -1 -11q-32 -40 -75 -112t-72 -140q-46 -112 -46 -160q0 -38 27 -38h5q6 0 12 2q136 36 264 111t213 173q6 3 12 0q1 -1 1 -5t-1 -5q-85 -101 -216.5 -177t-266.5 -112q-30 -8 -58.5 -11.5t-61 -1.5t-52.5 21t-20 54q0 64 61 186q-163 -163 -303 -231 q-72 -33 -112 -33h-5q-37 2 -56.5 26t-20.5 60z" />
<glyph unicode="b" horiz-adv-x="862" d="M-205 10q208 401 297 555q53 88 105.5 167.5t129 179t148.5 175t158 137.5t164 85q29 8 55 9q48 0 88 -29q48 -34 47 -91q0 -17 -4 -35q-16 -74 -85 -152t-134 -128q-186 -133 -463 -211l-68 -113q-37 -62 -110 -199l-14 -26q98 78 196 100q31 6 58 6q73 0 121 -46 q46 -45 47 -118q0 -28 -7 -61q150 9 203 21q88 22 135 79q3 3 10 0q5 -5 2 -10q-22 -24 -50 -41.5t-51 -27t-61 -16.5t-59 -9t-68 -5t-67 -5q-35 -88 -131 -143.5t-199 -63.5q-23 -2 -42 -2q-58 0 -83 22q-21 14 -18 39.5t33 50.5q83 65 291 95q13 35 19.5 68.5t6.5 70 t-21.5 58.5t-62.5 22q-87 -5 -219 -117q-20 -38 -65.5 -126.5t-71.5 -135.5q-3 -6 -27 -16q-73 -31 -114 -31q-12 0 -17 5t-2 13zM60 54.5q-3 -20.5 12 -29.5q23 -20 61 -19q22 0 49 6q50 13 98.5 55.5t81.5 114.5q-202 -31 -274 -88q-25 -19 -28 -39.5zM313 688 q274 85 441 207q68 49 136.5 127t80.5 147q3 16 3 30q0 31 -14 49q-20 26 -55.5 25t-73.5 -22q-53 -30 -124 -92t-110.5 -103t-66.5 -71q-108 -123 -217 -297z" />
<glyph unicode="c" horiz-adv-x="722" d="M-96 129q-1 9 -1 19q0 31 11 69q21 83 84 163q62 82 151 132q78 44 152 44q10 0 21 -1q65 -5 79 -41q10 -28 -20 -46q-15 -9 -37 -11q-6 0 -6 8q0 6 6 6q38 3 43 27q4 21 -18 30q-20 7 -47 -4q-88 -36 -157.5 -121.5t-96.5 -181.5q-14 -48 -14 -87q0 -41 19 -73 q17 -31 59 -37q12 -2 27 -3q35 0 83 12q136 41 272.5 120t208.5 162q0 1 1.5 2t3.5 0.5t3 -2.5q6 -3 2 -10q-72 -85 -210.5 -166t-276.5 -121q-40 -10 -77.5 -16t-76.5 -6q-2 0 -5 -1q-36 -1 -65 7q-31 8 -58 23t-41.5 41t-18.5 63z" />
<glyph unicode="d" horiz-adv-x="952" d="M-94 43q-9 22 -9 52q0 61 38 152q61 143 164 237q96 88 185 87q35 0 68 -13q64 -26 117 -103q43 73 77.5 128t91 140.5t105.5 150.5t113.5 140.5t123 128.5t125.5 96t130 61q29 9 55 9q48 -1 88 -29q48 -34 47 -90q0 -17 -4 -35q-11 -52 -55.5 -113t-85 -100t-78.5 -68 q-184 -132 -463 -210q-224 -370 -313 -564q-59 -127 -65 -171q-1 -9 -1 -17q0 -29 22 -29q11 0 28 8q133 67 296 191t246 221q1 3 5.5 3.5t5.5 -1.5q1 -1 1 -5t-1 -5q-85 -98 -248.5 -223.5t-296.5 -192.5q-73 -37 -127 -47q-11 -2 -20 -2q-33 0 -47 22q-11 18 -11 43 q0 15 4 33q18 70 121 291q-131 -124 -254 -186q-67 -34 -111 -34q-49 0 -67 44zM23 67q3 -30 25 -31q11 0 28 9q138 76 282 213l103 184q-50 70 -113 70q-48 0 -104 -42q-93 -71 -166 -217q-56 -111 -55 -173q-1 -7 0 -13zM752 680q273 85 440 207q68 49 136.5 127t80.5 147 q3 16 3 31q0 20 -6 35q-10 26 -32 33t-49 3t-55 -20q-254 -142 -518 -563z" />
<glyph unicode="e" horiz-adv-x="731" d="M-79 264q47 124 150 214q56 50 115 73q59 19 102 20q34 0 58 -13q36 -19 36 -59q0 -17 -7 -39q-24 -70 -117 -120q-70 -38 -180 -53q-2 -4 -2 -6q-28 -67 -32 -120q-1 -10 -1 -20q0 -41 16 -69q19 -36 65 -46q17 -4 38 -3q35 0 80 10q138 40 277 120t212 162q3 6 10 2 q1 -1 1 -5t-1 -5q-73 -86 -214.5 -167t-282.5 -120q-97 -27 -168 -27q-107 0 -152 63q-28 39 -28 92q0 51 25 116zM86 303q113 20 168 49q86 45 110 108q6 17 6 30q0 22 -18 34q-12 8 -28 8q-36 0 -90 -41q-7 -6 -15 -12q-76 -63 -133 -176z" />
<glyph unicode="f" horiz-adv-x="843" d="M-412 -604q-2 14 -2 30q0 54 21 134q27 102 72 207t74.5 167.5t47.5 96.5q64 122 113 208t125.5 208t160.5 224t171 177q182 156 304 156h12q78 -4 98 -74q6 -22 6 -45q0 -65 -48 -145q-74 -120 -223 -208q-163 -95 -379 -157q-15 -23 -67 -111h2q198 -98 411 -98 q232 3 357 137q1 3 5 3.5t5 -1.5q3 -1 3 -5t-3 -5q-125 -140 -367 -143h-12q-196 0 -395 94q14 -61 14 -137q0 -235 -104 -455q-38 -82 -102 -167t-115 -122q-40 -27 -77 -39q-16 -4 -31 -4q-20 0 -39 8q-31 16 -38 66zM-276 -600q-2 -28 7.5 -34t32.5 11q122 99 209 277 q105 219 105 455q0 73 -12 139q-54 -86 -125 -228q-72 -150 -143 -346.5t-74 -273.5zM154 395q207 61 360 152q149 87 222 214q41 71 41 120q0 18 -5 33q-13 37 -52 37q-18 0 -42 -8q-87 -29 -215 -157q-149 -149 -309 -391z" />
<glyph unicode="g" horiz-adv-x="919" d="M-659 -1102q-5 21 -5 46q0 40 13 93q75 262 307 484q115 107 220.5 163t250.5 107q25 51 192 410q-97 -86 -182 -138q-29 -19 -53 -30q-77 -39 -124 -39q-50 0 -67 43q-9 21 -9 48q0 62 44 158q65 142 171 238q99 89 184 89q31 0 61 -12q55 -22 98 -87l17 37 q10 19 29 26.5t38.5 4.5t37 -10t28 -16t8.5 -15q-206 -452 -297 -641q154 61 303.5 162t325.5 286q7 7 10 0q7 -7 0 -10q-181 -191 -334 -293t-315 -166q-12 -25 -47.5 -103t-53.5 -117t-55 -116t-62.5 -124t-63 -116t-70.5 -117t-71.5 -101t-78.5 -94.5t-80 -73.5 q-50 -39 -109 -60t-111 -21q-1 0 -3 1q-53 0 -93.5 25t-53.5 79zM-650 -1080q5 -48 31.5 -70.5t62.5 -24.5h5q34 0 77 23q47 25 93 73q39 42 78.5 93.5t70 95t70 111.5t61.5 106.5t61.5 117.5l54 108t55.5 115t49 103q-138 -49 -240.5 -103.5t-212.5 -156.5 q-227 -215 -305 -478q-12 -50 -12 -90q0 -12 1 -23zM23 58q6 -21 24 -21q12 0 29 8q51 28 55 31q101 65 205 162q17 37 100 221q-43 49 -94 49q-55 0 -119 -56q-91 -78 -157 -221q-46 -97 -46 -150q0 -13 3 -23z" />
<glyph unicode="h" horiz-adv-x="929" d="M-205 -4q-3 6 0 14q17 32 69.5 135.5t77.5 151t67 125t79 139.5q53 89 106.5 170.5t129.5 181t148.5 175.5t158.5 138t164 85q29 8 55 9q48 0 88 -29q48 -34 47 -91q0 -17 -4 -35q-16 -74 -85 -152t-134 -128q-186 -133 -463 -211l-68 -113q-26 -45 -92 -170 q152 136 273 141h7q65 0 97 -33q24 -24 23 -64q0 -17 -4 -38q-15 -65 -85.5 -207.5t-80.5 -166.5q-39 -93 -39 -128q0 -21 13 -21q3 0 6 1q4 1 7 2l33 14q132 67 295.5 191.5t245.5 220.5q3 6 10 2q7 -7 0 -10q-82 -98 -246.5 -223.5t-298.5 -192.5q-26 -13 -35 -16 q-55 -25 -92 -31q-11 -2 -21 -2q-40 0 -52 31q-5 14 -5 30.5t5 36.5q8 40 36 109q3 6 64 131.5t87 208.5q14 44 14 72q0 25 -11 38q-11 14 -32 14q-27 0 -71 -24q-78 -42 -169 -133q-26 -47 -158 -305q-7 -13 -77 -35q-42 -13 -63 -14q-14 0 -20 6zM311 690q274 85 441 207 q68 49 136.5 127t80.5 147q3 16 3 30q0 31 -14 49q-20 26 -55.5 25t-73.5 -22q-53 -30 -124 -92t-110.5 -103t-66.5 -71q-108 -123 -217 -297z" />
<glyph unicode="i" horiz-adv-x="532" d="M-133 78q1 77 71.5 210t131.5 208q24 30 66 30q14 0 29 -3q39 -9 47 -27q2 -5 -1 -9q-85 -137 -105 -172q-100 -176 -100 -243q0 -40 37 -40h6q11 1 25 5q84 24 180 74q190 98 278 204q6 3 13 0q3 -3 0 -10q-89 -107 -283 -207q-89 -45 -180 -75q-81 -23 -133 -23 q-82 0 -82 78zM168 682q0 19 13 32t32 13t32 -13t13 -32t-13 -32t-32 -13t-32 13t-13 32z" />
<glyph unicode="j" horiz-adv-x="552" d="M-1038 -1102q14 -54 55 -79t94 -25q1 -1 2 -1q52 0 110 21q59 21 109 60q34 26 66.5 58.5t67.5 79.5t61.5 84t65 105t60.5 106.5t65 124.5t62 124.5t68.5 140t67.5 139.5q162 65 315 167t332 292q3 1 3 5t-3 5q-3 7 -10 0q-175 -186 -324.5 -286.5t-304.5 -161.5 q91 189 297 641q5 8 -23 26t-58 22.5t-48 -20.5q-80 -164 -199.5 -423t-144.5 -312q-96 -34 -156.5 -60t-147 -81t-165.5 -129q-235 -214 -309 -484q-13 -52 -13 -92q0 -26 5 -47zM-1027 -1080q-1 11 -1 23q0 40 12 90q69 254 303 478q110 102 212.5 156.5t240.5 103.5 q-11 -22 -54.5 -113.5t-64.5 -133t-64 -127t-74.5 -138.5t-74 -121.5t-83.5 -121.5t-83 -95q-46 -48 -93 -73q-44 -23 -78 -23h-5q-36 2 -62 24.5t-31 70.5zM168 682q0 19 13 32t32 13t32 -13t13 -32t-13 -32t-32 -13t-32 13t-13 32z" />
<glyph unicode="k" horiz-adv-x="983" d="M-205 10q23 44 72 139.5t76.5 148.5t68.5 129t78 138q53 89 105.5 169t128.5 179.5t147.5 175t157.5 137.5t164 85q29 8 55 9q48 0 88 -29q48 -34 47 -91q0 -17 -4 -35q-16 -74 -85 -152t-134 -128q-186 -133 -463 -211l-68 -113q-15 -26 -34.5 -62t-56.5 -108t-75 -143 q44 56 91 106q78 78 149 133q238 180 551 213q8 0 8 -6q0 -8 -6 -8q-293 -28 -524 -194q69 40 133 40h7q64 0 97 -33q24 -24 23 -64q0 -18 -4 -38q-15 -64 -83.5 -203.5t-80.5 -170.5q-40 -95 -39 -130q0 -20 12 -19h3q3 1 8 3l34 14q132 67 295.5 191.5t245.5 220.5 q6 6 10 2q3 -1 3.5 -5t-1.5 -5q-84 -98 -248.5 -223.5t-297.5 -192.5q-26 -13 -35 -16q-56 -26 -92 -31q-12 -2 -22 -2q-40 0 -52 31q-4 12 -4 28.5t4 38.5q10 38 39 109q7 17 23 51t33 68.5t36.5 78t34 79.5t26 73.5t11 60.5t-10.5 39q-12 15 -34 15q-28 0 -70 -24 q-78 -42 -168 -132q-74 -74 -145 -178q-5 -9 -29 -57t-39 -72q-4 -10 -57 -26.5t-84 -18.5q-25 0 -19 16zM309 690q274 85 441 207q68 49 136.5 127t80.5 147q3 16 3 30q0 31 -14 49q-20 26 -55.5 25t-73.5 -22q-53 -30 -124 -92t-110.5 -103t-66.5 -71q-108 -123 -217 -297 z" />
<glyph unicode="l" horiz-adv-x="524" d="M-210 -85q5 84 93 273q40 84 85.5 169t106.5 188.5t124 197t138 187.5t148.5 166.5t155 127t158.5 76.5q29 9 55 9q48 -1 88 -29q48 -34 47 -90q0 -17 -4 -35q-11 -52 -55.5 -113t-85 -100t-78.5 -68q-184 -132 -463 -210q-22 -37 -85 -138.5t-93 -154t-76 -137.5 t-76 -160t-51 -150q-7 -41 5 -47t48 14q131 66 293.5 190.5t247.5 221.5q6 6 10 2q3 -1 3 -5t-3 -5q-85 -99 -248.5 -224.5t-297.5 -191.5q-84 -44 -131 -44q-59 0 -59 69v11zM315 680q274 85 441 207q68 49 136.5 127t80.5 147q3 16 3 31q0 20 -6 35q-10 26 -32 33t-49 3 t-55 -20q-256 -143 -519 -563z" />
<glyph unicode="m" horiz-adv-x="1492" d="M-180 33q14 27 60 115.5t62 119t53.5 100.5t60.5 108.5t56 91.5t64 98q15 8 65 8h17q53 -1 54 -21q0 -4 -3 -10q-99 -141 -229 -391l-12 -21q258 253 389 306q39 14 75 22q28 6 55 6q9 -1 17 -1q36 -2 55 -19q25 -20 25 -57q0 -56 -59 -148q-7 -12 -37 -64t-49 -81 q10 10 27.5 28t32.5 33t30 29q219 205 334 252q38 15 74 23q27 6 54 5l18 -1q36 -2 56 -19q25 -21 26 -57q0 -56 -63 -148q-14 -24 -48 -78q-106 -171 -113 -208q-4 -21 13 -18q2 0 5 1q78 27 189 78q102 51 193 108t126 92q6 6 10 2q7 -7 0 -10q-34 -37 -124.5 -93.5 t-198.5 -111.5q-94 -46 -189 -79q-74 -23 -114 -23q-50 3 -50 45q2 46 106 205q2 4 3.5 6.5t3.5 5.5l4 6q5 8 26 40t28.5 44.5t21.5 35.5t22 39t13 30q6 18 6 32q1 25 -19 37q-13 8 -31 7q-20 0 -46 -11q-105 -41 -330 -252q-80 -77 -106 -111t-76 -128q-25 -25 -77 -32 q-12 -2 -21 -2q-37 0 -41 28q-2 15 10 38q59 111 157 269q44 68 68 125q7 19 7 33q0 24 -20 36q-14 8 -31 7q-21 0 -46 -11q-139 -56 -416 -338l-80 -153q-15 -15 -73 -27q-24 -5 -40 -5q-33 0 -33 21q0 7 3 13z" />
<glyph unicode="n" horiz-adv-x="1005" d="M-182 31q26 48 84.5 160.5t90.5 172.5t84 146.5t101 155.5q17 13 52 13q10 1 24 -1q54 -6 55 -35q-120 -171 -262 -450q279 284 426 344q60 23 113 27l16 2q43 0 76 -21q21 -18 24.5 -44.5t-10 -61t-22.5 -51.5t-27 -48q-13 -21 -42 -67q-112 -177 -120 -217 q-4 -24 16 -20q2 1 3 1q109 41 184 78q104 52 195.5 108.5t126.5 91.5q3 6 10 2q2 -1 2 -5t-2 -5q-69 -75 -324 -205q-78 -39 -188 -79q-74 -23 -113 -23q-51 3 -51 45q1 23 20.5 63.5t38 70.5t56.5 89q94 140 110 189q7 20 7 35q0 24 -18 34q-13 8 -30 8q-21 0 -47 -12 q-144 -57 -452 -375l-62 -116q-18 -18 -80 -28q-20 -3 -34 -3q-35 0 -35 18q0 5 4 13z" />
<glyph unicode="o" horiz-adv-x="948" d="M-93 228q9 52 31.5 108t59 104.5t79 91t91 67.5t96.5 33q14 3 28 3q33 0 64 -14q36 19 80 30t90 12h3q43 0 75 -23q32 -24 37 -73l2 -20q0 -125 -178 -324q37 -24 78 -39q63 -19 127 -19l3 1q65 0 138 37.5t137 111.5q3 7 10 0q3 0 3 -8q-67 -77 -143 -117t-144 -40h-3 q-66 0 -132 22q-40 13 -84 39q-53 -55 -111 -102q-142 -109 -254 -109q-88 0 -133 45q-35 35 -47 83q-7 28 -7 57q0 21 4 43zM20 72q13 -58 68 -58q112 0 246 105q46 37 108 102q-66 48 -106 105q-55 81 -55 155q0 28 8 54q7 21 16 36q-81 -36 -154 -121.5t-111 -189.5 q-26 -71 -26 -132q0 -29 6 -56zM303 530q-7 -23 -7 -47q0 -67 52 -147q44 -64 105 -105q38 45 51 60.5t46 61t46.5 73.5t24.5 68q8 28 8 52q0 11 -2 21q-5 43 -37 63q-30 20 -69 20h-4q-41 -1 -80 -11.5t-64 -26.5q10 -4 30 -20q7 -7 0 -10l-2 -2q-7 -3 -8 -2q-16 3 -32.5 3 t-32.5 -3q-15 -21 -25 -48z" />
<glyph unicode="p" horiz-adv-x="907" d="M-1082 -1102q-6 21 -6 47q0 40 13 92q74 265 307 484q80 74 167 129t147.5 81t156.5 60q138 283 348 746q17 15 46 9.5t56.5 -22t24.5 -26.5q-8 -18 -23.5 -50.5t-21.5 -44.5q154 126 282 126q14 0 27 -1q52 -6 93 -43q41 -49 41 -116q0 -52 -25 -115l-12 -31h45 q86 0 132.5 3t102.5 21.5t88 55.5q6 6 13 2q2 -1 2 -5t-2 -5q-21 -24 -52 -41t-56.5 -25t-72.5 -13t-72 -5.5t-83 -1.5h-54q-74 -140 -226 -201q-78 -31 -143 -31q-27 0 -51 5q-59 13 -59 50t64 83q113 83 276 100q1 3 10 23.5t12 28l11 27.5t10.5 30.5t7.5 29t5.5 31 t0.5 28t-3.5 28.5t-10.5 24q-18 32 -49 37q-11 3 -25 3q-84 0 -241 -134q-307 -670 -459 -959q-115 -221 -166 -300q-99 -154 -205 -238q-50 -39 -109 -60t-111 -21q-1 0 -3 1q-53 0 -94 25t-54 79zM-1072 -1080q4 -48 30 -70.5t62 -24.5h5q35 0 79 23q47 25 93 73 q35 35 71 81t59.5 79t60 96.5t49.5 86.5t52.5 99t45.5 88q83 159 160 320q-91 -33 -150 -58.5t-143 -78.5t-160 -123q-231 -218 -303 -478q-12 -52 -12 -92q0 -11 1 -21zM69 18q10 -14 38 -14q19 0 45 6q98 25 174 112q32 36 55 79q-149 -20 -256 -99q-60 -44 -60 -71 q0 -7 4 -13z" />
<glyph unicode="q" horiz-adv-x="925" d="M-279 -1232v7q0 50 15 119q15 74 36.5 145.5t51.5 151t57.5 144t55.5 124.5q153 328 362 725q-93 -78 -164 -121q-21 -14 -53 -30q-65 -33 -111 -33h-8q-59 3 -76 68q-4 17 -4 37q0 67 43 159q61 126 156 195q50 37 106 53q34 10 74 10q24 0 50 -4q69 -10 137 -51l34 65 q3 18 36 18q16 0 37 -4q54 -9 63 -24q2 -3 -1 -6q-188 -352 -348 -666q127 47 252 125q214 129 404 328q0 5 10 2v-10q-175 -191 -406 -332q-144 -88 -268 -131l-100 -201q12 -50 16 -75q15 -84 15 -180q0 -57 -5 -117q-28 -297 -159 -490q-83 -123 -171 -149q-20 -6 -38 -6 q-52 0 -80 52q-2 4 -4 9q-14 41 -15 93zM-141 -1278q12 -43 43 -43q12 0 27 7q62 28 126 147q96 178 119 426q5 54 5 107q0 94 -15 185q-1 11 -12 60l-76 -160q-53 -112 -106 -247.5t-90 -279.5q-26 -99 -26 -157q0 -27 5 -45zM33 40q14 -9 43 5q3 2 22.5 13t28.5 18 q85 51 192 147l123 232q-36 22 -80 39q-17 6 -34 6q-76 0 -163 -104q-85 -101 -128 -226q-20 -58 -20 -91q0 -29 16 -39z" />
<glyph unicode="r" horiz-adv-x="790" d="M-25 274q-3 6 0 13q16 17 99 96q90 86 137 137l-2 2q-33 32 -51 74q-18 39 -17 76q0 106 82 167q49 36 97 36q12 0 24 -2q54 -10 60 -65v-10q0 -53 -50 -130q-48 -73 -121 -146q18 -12 66.5 -25t80.5 -30t32 -47q0 -26 -21.5 -73t-64.5 -128q-9 -16 -13 -24 q-128 -230 -128 -295q0 -15 7 -21q10 -9 33 2q93 42 228 142q181 129 338 286q6 6 12 0q3 -3 0 -10q-54 -54 -150 -136.5t-194 -152.5q-130 -98 -228 -143q-9 -4 -49 -19q-46 -14 -78 -14q-50 0 -63 35q-4 10 -4 25q1 26 13 65q20 61 44 110t70 134q94 176 94 217 q0 38 -37 88q-59 -64 -137 -135q-50 -47 -98 -99q-7 -4 -11 0zM156 676q-1 -28 9.5 -55.5t22.5 -44.5t33 -44l2 -2q81 88 119 146q48 74 48 121q0 25 -14 42q-18 22 -50 22q-17 0 -38 -6q-68 -19 -105 -84q-26 -43 -27 -95z" />
<glyph unicode="s" horiz-adv-x="622" d="M-449 -225q24 65 115.5 143t259.5 160l27 12q-14 142 -14 194v7q6 152 108 219q44 26 90 35q21 5 41 5q23 0 43 -7q60 -17 74 -72q0 -5 -6 -8q-3 -1 -5.5 0.5t-2.5 3.5q-7 26 -29 32.5t-44 -0.5t-42 -20q-24 -14 -41 -34.5t-25.5 -45t-13 -49t-4 -55.5t2 -55t4 -56 t3.5 -51l148 31q60 12 81.5 16t72 15.5t74.5 20t59 22t57.5 30t38.5 35.5q1 3 5 3.5t5 -1.5q1 -1 1 -5t-1 -5q-26 -30 -65 -53t-100 -40.5t-102 -26.5t-122 -25q-123 -24 -150 -31v-17q0 -210 -143 -346q-102 -97 -229 -120q-31 -6 -58 -6q-63 0 -98 32q-26 24 -26 61 q0 23 11 52zM-436 -231q-11 -29 -11 -50q0 -38 34 -53q17 -7 38 -8q43 0 102 31q106 55 168 168q54 98 56 217l-19 -8q-166 -82 -256 -158.5t-112 -138.5z" />
<glyph unicode="t" horiz-adv-x="522" d="M-219 717q0 6 6 10q127 63 241 79q69 9 147 9q50 0 104 -4q75 90 116 145q18 16 44.5 7.5t49 -27.5t15.5 -25q-9 -12 -41 -52.5t-47 -61.5q185 -15 239 -15q7 0 7 -8q0 -6 -7 -6q-127 0 -249 16q-53 -69 -188 -281q-291 -455 -291 -573q0 -12 3 -20q6 -19 28 -19 q26 0 75 27q129 74 272.5 186.5t216.5 198.5q6 6 13 2q1 -1 1 -5t-1 -5q-75 -88 -220 -201.5t-276 -187.5q-26 -15 -55 -29.5t-73 -31.5q-37 -14 -68 -14h-10q-34 3 -46 30q-6 13 -6 33q0 52 41 151q56 136 147 290t173 279.5t126 182.5q-51 4 -98 4q-76 0 -144 -10 q-110 -16 -233 -78q-6 -2 -12 4z" />
<glyph unicode="u" horiz-adv-x="974" d="M-131 78q0 40 21 97.5t61.5 128t61 103.5t57.5 89q33 28 93 29q51 0 53 -24q1 -7 -3 -14q-52 -71 -120 -195q-87 -158 -87 -220q0 -40 37 -40h1q13 0 30 5q84 24 180 74l76 41q18 41 26 55q108 214 185 311q19 16 49.5 14.5t56.5 -16t19 -29.5q-91 -132 -177 -305 q-83 -167 -107 -258q-6 -23 -7 -36q0 -17 12 -17q4 0 8 2l39 18q133 67 295.5 191t245.5 221q5 5 12 2q1 -1 1 -5t-1 -5q-84 -98 -248.5 -223.5t-296.5 -192.5l-43 -20q-59 -22 -84 -27q-11 -2 -21 -2q-40 0 -52 31q-6 12 -6 28.5t6 38.5q17 75 75 201l-57 -31 q-85 -44 -178 -75q-81 -23 -133 -23q-80 0 -80 78z" />
<glyph unicode="v" horiz-adv-x="972" d="M-221.5 -108.5q1.5 16.5 6.5 36.5q26 99 80 214.5t94.5 185t116.5 192.5q16 10 65 10h4q60 0 60 -30q0 -10 -8 -25q-253 -402 -271 -549q-1 -8 -2 -15q0 -38 35 -38q71 30 158 96.5t168 149.5q-39 59 -39 126v13q4 74 34.5 138t77.5 110q55 53 121 60q8 1 15 1 q49 0 60 -41q3 -9 3 -20q0 -23 -12 -55q-17 -45 -43.5 -90t-64 -91.5t-64 -75.5t-70.5 -75q29 -33 74 -47q34 -10 73 -10q113 0 271 85q22 12 131 76q26 16 51.5 33.5t45 31.5t24.5 17q1 2 5 1.5t5 -3.5q4 -7 -2 -10q-5 -4 -24.5 -17.5t-45.5 -31t-51 -33.5 q-12 -7 -59 -34.5t-74 -41.5q-165 -89 -281 -89q-41 0 -75 11q-47 15 -76 52q-188 -188 -334 -248q-17 -6 -26 -8.5t-26.5 -8t-28 -7.5t-26.5 -4.5t-25 -0.5t-20.5 4.5t-17 10.5t-10 18t-3 26.5zM260 254v-8q0 -63 35 -115q65 68 97.5 104t76 99.5t63.5 120.5q11 31 11 53 q0 41 -40 44q-6 1 -12 1q-44 0 -98 -38l-24 -19q-48 -47 -77.5 -110.5t-31.5 -131.5z" />
<glyph unicode="w" horiz-adv-x="1548" d="M-131 78q2 122 203 418l16 24q10 9 32 9q18 0 45 -6q52 -12 51 -29q0 -4 -3 -7q-119 -177 -175 -308q-29 -69 -29 -106q0 -42 37 -42q4 0 10 1q10 1 22 5q76 22 178 74q197 106 276 202l17 29q60 108 102 178q19 10 68 10h4q58 0 57 -29q0 -11 -8 -26q-28 -44 -80 -139 v-2q-56 -96 -123 -234q-1 -3 -8 -17q-63 -140 -63 -188q0 -26 18 -26h1q6 1 15 4q153 63 328 246q-20 37 -31 88q-5 28 -5 55q0 39 10 79q18 67 57 118q59 83 129 95q11 2 20 2q41 0 60 -36q10 -20 11 -45q0 -54 -49 -133l-22 -33q-61 -85 -159 -190q31 -34 71 -47 q33 -10 71 -10q112 0 273 85q22 12 131 76q25 16 51 33.5t45.5 31t24.5 17.5q8 4 11 -2q3 -7 0 -10q-3 -2 -24.5 -16.5t-47 -32t-51.5 -33.5q-109 -64 -131 -76q-167 -89 -283 -89q-40 0 -74 11q-49 15 -78 52q-191 -191 -333 -248q-31 -12 -35 -13q-18 -8 -43 -14 t-57.5 -1.5t-43.5 28.5q-4 11 -4 25q0 18 6 42q17 66 68 178q41 87 76 156q-97 -90 -242 -164q-93 -47 -178 -75q-84 -23 -133 -23q-82 0 -82 78zM842 211q10 -50 28 -80q83 83 158 186q71 99 71 159q0 17 -6 32q-14 34 -51 34q-9 0 -19 -2q-65 -12 -119 -87l-3 -4 q-38 -51 -54 -115q-9 -38 -9 -74q0 -25 4 -49z" />
<glyph unicode="x" horiz-adv-x="1128" d="M-225.5 -181q1.5 3 4.5 3q57 25 418 303l22 18q35 191 100 385l-317 -233q-7 -4 -10 2q-4 7 2 10l330 244q24 12 56.5 10.5t56 -22.5t14.5 -50q-35 -106 -60 -215q326 247 381 252q2 0 8 -6q0 -8 -8 -8q-49 -5 -387 -260l-12 -62q-5 -24 -9 -48.5t-10 -71.5 q-4 -35 -4 -65v-19q2 -36 8.5 -71t27.5 -49.5t54 -4.5q61 16 148 59q159 79 330 206t210 177q3 3 6.5 3.5t4.5 -1.5q3 -2 4 -5t-2 -5q-40 -52 -213 -180t-332 -207q-77 -39 -150 -62q-33 -11 -67 -14q-18 -3 -35 -3q-54 1 -90 31q-46 40 -49 115v14q0 50 12 134l-12 -8 q-364 -282 -420 -305q-6 -3 -10 4q-2 2 -0.5 5z" />
<glyph unicode="y" horiz-adv-x="968" d="M-620 -1102q-5 20 -5 45q0 41 13 94q77 271 307 484q113 107 219 162.5t252 107.5q160 339 162 344q-43 -26 -68 -37q-90 -47 -178 -75q-84 -23 -133 -23q-80 0 -80 78q0 71 83 230t136 212q16 6 43 6q15 0 35 -2q52 -5 48 -28q0 -4 -3 -9q-108 -159 -167 -291 q-36 -82 -36 -123t37 -41h8q10 1 23 5q76 22 178 74q25 12 84 47q71 151 174 379q15 14 45 11t58.5 -19.5t23.5 -30.5q-207 -454 -299 -641q155 61 304.5 161.5t324.5 286.5q7 7 10 0q3 -1 3.5 -5t-1.5 -5q-180 -190 -333.5 -292t-315.5 -167q-22 -45 -64.5 -138t-72 -155 t-73.5 -151t-84 -155.5t-87 -137.5t-98.5 -127.5t-104.5 -97.5q-50 -39 -109 -60q-58 -21 -110 -21q-1 0 -2 1q-53 0 -94 25t-53 79zM-611 -1080q5 -48 31.5 -70.5t62.5 -24.5h5q34 0 78 23q46 25 92 73q42 42 83 95t83.5 121.5t74 121.5t74.5 138.5t64 127t64.5 133 t54.5 113.5q-91 -33 -150 -58.5t-143 -78.5t-160 -123q-235 -235 -303 -478q-12 -50 -12 -90q0 -12 1 -23z" />
<glyph unicode="z" horiz-adv-x="1005" d="M-471 -604q17 63 60 122.5t115 112.5t129.5 91t158 84t142 63.5t135.5 55.5q8 3 12 5q0 54 -15 95q-11 32 -39 53q-24 18 -60 16t-54 -9.5t-29 5.5q-3 13 38.5 49.5t129.5 106.5q235 175 235 240q0 30 -44 29q-25 0 -63 -9q-127 -31 -263 -121q-67 -44 -115 -92 q-7 -7 -10 0q-7 3 0 10q112 117 303 194q140 56 230 55q16 0 31 -1q62 -8 62 -50q0 -14 -7 -32q-34 -86 -222 -236q-73 -57 -140 -103q-21 -15 -21 -16t11 0q19 3 37 3q30 0 56 -8q44 -14 69 -62q14 -31 19 -61q218 88 358.5 160t227.5 159q7 3 10 0q2 -1 2 -5t-2 -5 q-89 -88 -235.5 -164t-358.5 -160q2 -19 2 -39q0 -54 -18 -114q-24 -82 -73 -156t-117.5 -145t-147 -123.5t-162.5 -91t-165 -47.5q-28 -3 -55 -3q-51 0 -98 11q-44 13 -58 49q-7 19 -7 42q0 20 6 42zM-457 -606q-6 -23 -6 -42q0 -59 55 -77q24 -7 51 -7q69 0 157 46 q122 62 225.5 164.5t178 225t77.5 210.5q-263 -106 -393 -178q-295 -164 -345 -342z" />
<glyph unicode="{" horiz-adv-x="704" d="M90 215q4 51 16 78t50 39q44 16 83 51.5t68 76t59.5 80t71.5 69.5t90 38l-24 -18q-39 -22 -74 -58.5t-61.5 -73t-54 -73t-66 -66t-84.5 -43.5q-20 -6 -30.5 -26.5t-14.5 -73.5q4 -53 14.5 -74t30.5 -26q46 -14 84.5 -43.5t66 -66t54 -73.5t61.5 -73.5t74 -57.5l24 -18 q-49 8 -90 38t-71.5 69.5t-59.5 80t-68 76t-83 51.5q-38 11 -50 38.5t-16 78.5z" />
<glyph unicode="|" horiz-adv-x="346" d="M123 -166v819h70v-819h-70z" />
<glyph unicode="}" horiz-adv-x="653" d="M90 -217l25 18q39 22 74 58.5t61.5 73t54 73t66 66t84.5 43.5q20 6 30.5 26.5t14.5 73.5q-4 53 -14.5 74t-30.5 26q-46 14 -84.5 43.5t-66 66t-54 73.5t-61.5 73.5t-74 57.5l-25 18q49 -8 90 -38t71.5 -69.5t60 -80t68.5 -76t83 -51.5q20 -6 32.5 -16.5t19 -27.5t9 -32 t4.5 -41q-2 -34 -6 -53t-18.5 -37t-40.5 -27q-44 -16 -83 -51.5t-68.5 -76t-60 -80t-71.5 -69.5t-90 -38z" />
<glyph unicode="~" horiz-adv-x="989" d="M61 498q2 2 25.5 21t37.5 29t38 26.5t46 27t42 16.5q17 5 31.5 5t23.5 -2t22 -11.5t18.5 -14.5t21.5 -21.5t22 -22.5q57 -57 107 -77.5t96 -10t87 31t102 45t118 31.5q-17 -3 -108 -62t-150 -83q-3 -1 -18 -7t-18.5 -7.5t-19 -7t-19.5 -5t-20 -2.5t-20 0 q-39 3 -78.5 25.5t-69 50.5t-66 52.5t-70.5 36.5t-81 -3t-100 -61z" />
<glyph unicode="&#xad;" horiz-adv-x="677" d="M43 297q358 4 532 -4l29 -24q8 -9 2 -9q-246 11 -532 4l-5 3q-41 30 -26 30z" />
<glyph unicode="&#xb1;" horiz-adv-x="798" d="M43 41q358 4 532 -4l29 -24q8 -9 2 -9q-246 11 -532 4l-5 3q-41 30 -26 30zM43 397q43 0 127.5 1t126.5 1v211l3 5q30 41 30 26v-242q122 0 245 -6l29 -24q8 -9 2 -9q-168 7 -276 7q0 -86 -4 -258l-24 -29q-9 -8 -9 -2q4 200 4 289q-149 0 -223 -2l-5 3q-41 29 -26 29z " />
<glyph unicode="&#xbc;" horiz-adv-x="1093" d="M33 895q-4 0 0 4q47 31 138.5 69t137.5 42h68q2 0 2 -2q2 0 2 -4q-167 -366 -248 -523q-2 0 -6 -1t-14.5 -2.5t-19 -3t-17 -2t-13 0.5t-2.5 4q135 271 246 524q-56 -9 -139.5 -43t-130.5 -65q-4 0 -4 2zM45 2q95 188 307 503.5t316 450.5q18 16 44 7.5t48.5 -27.5 t15.5 -25q-37 -13 -255.5 -344.5t-346.5 -560.5zM567 315q18 43 73 124.5t85 111.5q8 8 38 -1q29 -9 17 -22q-33 -37 -77.5 -106t-65.5 -113q-6 -8 -2 -12h153q101 218 121 264q4 3 20.5 3t32.5 -6.5t11 -14.5q-192 -416 -244 -520q-8 -5 -37 -9.5t-39 -1.5v6 q59 112 133 273l-215 -4q-14 8 -4 28z" />
<glyph unicode="&#xbd;" horiz-adv-x="1181" d="M53 895q-4 0 0 4q47 31 139 69t138 42h67q2 0 2 -2q2 0 2 -4q-174 -382 -247 -523q-2 0 -6 -1t-14.5 -2.5t-19 -3t-17 -2t-13 0.5t-2.5 4q135 271 246 524q-56 -9 -140 -43t-131 -65q-4 0 -4 2zM66 2q95 188 307 504t315 450q18 16 44.5 7.5t49 -27.5t15.5 -25 q-37 -13 -255.5 -344.5t-346.5 -560.5zM575 5q-59 18 0 93q26 32 86 85.5t113 99t102 103t62 103.5q8 28 -7 43t-57 15q-31 0 -88 -17q-99 -32 -204 -94q-4 -4 -4 0q-3 3 0 6q116 69 206 97q37 10 90 16q19 4 44.5 1t48 -9t35.5 -22.5t8 -39.5q-12 -47 -58.5 -99.5 t-99.5 -94t-115 -99t-96 -106.5q-17 -23 -20 -40.5t13.5 -29t55.5 -10.5l285 2q4 0 4 -2q0 -4 -4 -4l-285 -4q-92 0 -115 7z" />
<glyph unicode="&#xbe;" horiz-adv-x="1286" d="M49 467h4q67 -24 147.5 12.5t139.5 95.5q41 44 59 87q13 42 -6 61q-28 24 -123 14q-37 -6 -12 21q25 26 183 135q91 63 96 74q0 5 1.5 8t-2 5.5t-4.5 4t-6 2.5t-6.5 1.5t-6 1.5t-5.5 1q-67 5 -209 -57q-36 -17 -96 -51q-1 -2 -4 2v4q8 5 98 51q114 54 213 59 q6 0 13.5 -0.5t22 -1.5t24 -4t20 -7.5t10.5 -12t-4 -17.5q-16 -28 -134.5 -101t-139.5 -107q115 6 141 -23q18 -24 6 -59q-14 -52 -84 -117q-72 -60 -164.5 -88t-169.5 0q-2 2 -2 6zM250 2q95 188 307 504t315 450q18 16 44.5 7.5t49 -27.5t15.5 -25q-37 -13 -255.5 -344.5 t-346.5 -560.5zM754 307q18 43 72.5 124.5t84.5 111.5q7 7 37.5 -1t18.5 -22q-33 -38 -78 -106.5t-66 -112.5q-6 -8 -2 -12h154q101 218 121 264q4 3 20 3t32 -6.5t11 -14.5q-198 -429 -244 -521q-8 -5 -36.5 -9t-38.5 -1v6q59 112 133 273l-215 -4q-14 8 -4 28z" />
<glyph unicode="&#xbf;" horiz-adv-x="806" d="M44 -184q5 12 13 26q36 59 102 118.5t127 104.5t117.5 94t86 107t20.5 123q2 2 6 4.5t17.5 6.5t29.5 3q12 0 23.5 -3.5t17.5 -7.5l6 -3q-3 -90 -36 -159.5t-84.5 -116.5t-106 -86t-112.5 -89.5t-91 -103.5q-40 -62 24 -66q75 -4 216 64t231 158q7 7 11 0q7 -3 0 -10 q-113 -117 -305 -194q-165 -66 -261 -54q-82 11 -52 84zM537 480q1 36 31 59q16 12 32 12q23 0 30 -30q8 -37 -18 -62q-17 -16 -45 -15q-32 1 -30 36z" />
<glyph unicode="&#xc0;" horiz-adv-x="1984" d="M20 -40q6 -49 22 -91t45 -70.5t62.5 -47t75.5 -20t84 10.5t87 44.5t85 82.5q89 113 224 358l16 25q108 199 213 407q32 17 78 46q264 161 405 221q-9 -41 -37 -155q-112 -462 -147 -733q-122 -949 396 -935l67 6q80 12 159 39q141 47 268.5 131.5t196.5 173.5q3 5 0 8 q0 1 -2 1t-4 -1q-70 -89 -196 -172.5t-265 -130.5q-85 -28 -159 -39q-304 -41 -361 360q-58 408 148 1290q46 199 47 202q355 123 672 35q4 0 8 4q0 6 -4 6q-329 87 -674 -35q49 228 72.5 344t43 250.5t13.5 196.5q-2 18 -26 38.5t-49.5 25.5t-41.5 -11 q-49 -69 -127.5 -211.5t-138.5 -259.5t-174 -344l-174 -344q-142 -84 -247 -129t-196 -48q-75 -5 -110.5 48t-21 122t68.5 107q2 0 2 2t-2 4q0 6 -8 2q-41 -31 -60 -82t-13.5 -98.5t43.5 -82t101 -34.5q91 3 192.5 46.5t240.5 125.5q-96 -194 -207 -391q-3 -4 -7.5 -12.5 t-7.5 -12.5q-3 -6 -25 -44.5t-30.5 -52.5t-29.5 -50t-34.5 -57t-32.5 -51t-37 -54.5t-36 -46.5q-43 -58 -97.5 -92t-107 -40.5t-101 12t-82 58t-48.5 105t-2 146.5q14 94 73.5 175t161.5 130q31 15 68 21t73 0.5t62.5 -31t32.5 -68.5q9 -53 -29 -121q-2 -4 2 -8q4 -2 8 2 q39 68 29 129q-9 57 -51.5 85.5t-96 26.5t-102.5 -26q-105 -51 -165 -134.5t-74 -178.5q-11 -59 -5 -108zM111 811q4 11 37 -2.5t40 -24.5q55 -88 74 -137q-16 -6 -40 3.5t-38 23.5q-20 53 -73 137zM944 678q9 18 72 141t94 187q128 253 177 349t131 244.5t130 217.5 q28 -62 -6 -265t-125 -614q-137 -61 -411 -223q-60 -36 -62 -37zM1579 2103q4 11 37.5 -2t40.5 -24q54 -86 74 -138q-16 -6 -40 3.5t-38 23.5q-19 49 -74 137z" />
<glyph unicode="&#xc1;" horiz-adv-x="1984" d="M20 -40q6 -49 22 -91t45 -70.5t62.5 -47t75.5 -20t84 10.5t87 44.5t85 82.5q89 113 224 358l16 25q108 199 213 407q32 17 78 46q264 161 405 221q-9 -41 -37 -155q-112 -462 -147 -733q-122 -949 396 -935l67 6q80 12 159 39q141 47 268.5 131.5t196.5 173.5q3 5 0 8 q0 1 -2 1t-4 -1q-70 -89 -196 -172.5t-265 -130.5q-85 -28 -159 -39q-304 -41 -361 360q-58 408 148 1290q46 199 47 202q355 123 672 35q4 0 8 4q0 6 -4 6q-329 87 -674 -35q49 228 72.5 344t43 250.5t13.5 196.5q-2 18 -26 38.5t-49.5 25.5t-41.5 -11 q-49 -69 -127.5 -211.5t-138.5 -259.5t-174 -344l-174 -344q-142 -84 -247 -129t-196 -48q-75 -5 -110.5 48t-21 122t68.5 107q2 0 2 2t-2 4q0 6 -8 2q-41 -31 -60 -82t-13.5 -98.5t43.5 -82t101 -34.5q91 3 192.5 46.5t240.5 125.5q-96 -194 -207 -391q-3 -4 -7.5 -12.5 t-7.5 -12.5q-3 -6 -25 -44.5t-30.5 -52.5t-29.5 -50t-34.5 -57t-32.5 -51t-37 -54.5t-36 -46.5q-43 -58 -97.5 -92t-107 -40.5t-101 12t-82 58t-48.5 105t-2 146.5q14 94 73.5 175t161.5 130q31 15 68 21t73 0.5t62.5 -31t32.5 -68.5q9 -53 -29 -121q-2 -4 2 -8q4 -2 8 2 q39 68 29 129q-9 57 -51.5 85.5t-96 26.5t-102.5 -26q-105 -51 -165 -134.5t-74 -178.5q-11 -59 -5 -108zM944 678q9 18 72 141t94 187q128 253 177 349t131 244.5t130 217.5q28 -62 -6 -265t-125 -614q-137 -61 -411 -223q-60 -36 -62 -37zM1579 1948q55 88 74 137 q13 13 37.5 22.5t40.5 3.5q-19 -49 -74 -137q-7 -11 -40.5 -24t-37.5 -2z" />
<glyph unicode="&#xc2;" horiz-adv-x="1984" d="M20 -40q6 -49 22 -91t45 -70.5t62.5 -47t75.5 -20t84 10.5t87 44.5t85 82.5q89 113 224 358l16 25q108 199 213 407q32 17 78 46q264 161 405 221q-9 -41 -37 -155q-112 -462 -147 -733q-122 -949 396 -935l67 6q80 12 159 39q141 47 268.5 131.5t196.5 173.5q3 5 0 8 q0 1 -2 1t-4 -1q-70 -89 -196 -172.5t-265 -130.5q-85 -28 -159 -39q-304 -41 -361 360q-58 408 148 1290q46 199 47 202q355 123 672 35q4 0 8 4q0 6 -4 6q-329 87 -674 -35q49 228 72.5 344t43 250.5t13.5 196.5q-2 18 -26 38.5t-49.5 25.5t-41.5 -11 q-49 -69 -127.5 -211.5t-138.5 -259.5t-174 -344l-174 -344q-142 -84 -247 -129t-196 -48q-75 -5 -110.5 48t-21 122t68.5 107q2 0 2 2t-2 4q0 6 -8 2q-41 -31 -60 -82t-13.5 -98.5t43.5 -82t101 -34.5q91 3 192.5 46.5t240.5 125.5q-96 -194 -207 -391q-3 -4 -7.5 -12.5 t-7.5 -12.5q-3 -6 -25 -44.5t-30.5 -52.5t-29.5 -50t-34.5 -57t-32.5 -51t-37 -54.5t-36 -46.5q-43 -58 -97.5 -92t-107 -40.5t-101 12t-82 58t-48.5 105t-2 146.5q14 94 73.5 175t161.5 130q31 15 68 21t73 0.5t62.5 -31t32.5 -68.5q9 -53 -29 -121q-2 -4 2 -8q4 -2 8 2 q39 68 29 129q-9 57 -51.5 85.5t-96 26.5t-102.5 -26q-105 -51 -165 -134.5t-74 -178.5q-11 -59 -5 -108zM944 678q9 18 72 141t94 187q128 253 177 349t131 244.5t130 217.5q28 -62 -6 -265t-125 -614q-137 -61 -411 -223q-60 -36 -62 -37zM1440 1939q21 56 73 138 q7 11 40.5 24t37.5 2q-53 -84 -73 -137q-14 -14 -38 -23.5t-40 -3.5zM1630 2103q4 11 37.5 -2t40.5 -24q54 -86 74 -138q-16 -6 -40 3.5t-38 23.5q-19 49 -74 137z" />
<glyph unicode="&#xc3;" horiz-adv-x="1984" d="M20 -40q6 -49 22 -91t45 -70.5t62.5 -47t75.5 -20t84 10.5t87 44.5t85 82.5q89 113 224 358l16 25q108 199 213 407q32 17 78 46q264 161 405 221q-9 -41 -37 -155q-112 -462 -147 -733q-122 -949 396 -935l67 6q80 12 159 39q141 47 268.5 131.5t196.5 173.5q3 5 0 8 q0 1 -2 1t-4 -1q-70 -89 -196 -172.5t-265 -130.5q-85 -28 -159 -39q-304 -41 -361 360q-58 408 148 1290q46 199 47 202q355 123 672 35q4 0 8 4q0 6 -4 6q-329 87 -674 -35q49 228 72.5 344t43 250.5t13.5 196.5q-2 18 -26 38.5t-49.5 25.5t-41.5 -11 q-49 -69 -127.5 -211.5t-138.5 -259.5t-174 -344l-174 -344q-142 -84 -247 -129t-196 -48q-75 -5 -110.5 48t-21 122t68.5 107q2 0 2 2t-2 4q0 6 -8 2q-41 -31 -60 -82t-13.5 -98.5t43.5 -82t101 -34.5q91 3 192.5 46.5t240.5 125.5q-96 -194 -207 -391q-3 -4 -7.5 -12.5 t-7.5 -12.5q-3 -6 -25 -44.5t-30.5 -52.5t-29.5 -50t-34.5 -57t-32.5 -51t-37 -54.5t-36 -46.5q-43 -58 -97.5 -92t-107 -40.5t-101 12t-82 58t-48.5 105t-2 146.5q14 94 73.5 175t161.5 130q31 15 68 21t73 0.5t62.5 -31t32.5 -68.5q9 -53 -29 -121q-2 -4 2 -8q4 -2 8 2 q39 68 29 129q-9 57 -51.5 85.5t-96 26.5t-102.5 -26q-105 -51 -165 -134.5t-74 -178.5q-11 -59 -5 -108zM944 678q9 18 72 141t94 187q128 253 177 349t131 244.5t130 217.5q28 -62 -6 -265t-125 -614q-137 -61 -411 -223q-60 -36 -62 -37zM1462 2011q43 37 70 45 q6 2 11.5 2t9 -0.5t8 -4t6.5 -5.5l8 -8l8 -8q25 -26 48.5 -31t40 3t44.5 20.5t53 15.5q-5 -1 -39 -22.5t-55 -30.5q-26 -13 -43 -13q-19 2 -40.5 18t-37 30t-40 14t-52.5 -25z" />
<glyph unicode="&#xc4;" horiz-adv-x="1984" d="M20 -40q6 -49 22 -91t45 -70.5t62.5 -47t75.5 -20t84 10.5t87 44.5t85 82.5q89 113 224 358l16 25q108 199 213 407q32 17 78 46q264 161 405 221q-9 -41 -37 -155q-112 -462 -147 -733q-122 -949 396 -935l67 6q80 12 159 39q141 47 268.5 131.5t196.5 173.5q3 5 0 8 q0 1 -2 1t-4 -1q-70 -89 -196 -172.5t-265 -130.5q-85 -28 -159 -39q-304 -41 -361 360q-58 408 148 1290q46 199 47 202q355 123 672 35q4 0 8 4q0 6 -4 6q-329 87 -674 -35q49 228 72.5 344t43 250.5t13.5 196.5q-2 18 -26 38.5t-49.5 25.5t-41.5 -11 q-49 -69 -127.5 -211.5t-138.5 -259.5t-174 -344l-174 -344q-142 -84 -247 -129t-196 -48q-75 -5 -110.5 48t-21 122t68.5 107q2 0 2 2t-2 4q0 6 -8 2q-41 -31 -60 -82t-13.5 -98.5t43.5 -82t101 -34.5q91 3 192.5 46.5t240.5 125.5q-96 -194 -207 -391q-3 -4 -7.5 -12.5 t-7.5 -12.5q-3 -6 -25 -44.5t-30.5 -52.5t-29.5 -50t-34.5 -57t-32.5 -51t-37 -54.5t-36 -46.5q-43 -58 -97.5 -92t-107 -40.5t-101 12t-82 58t-48.5 105t-2 146.5q14 94 73.5 175t161.5 130q31 15 68 21t73 0.5t62.5 -31t32.5 -68.5q9 -53 -29 -121q-2 -4 2 -8q4 -2 8 2 q39 68 29 129q-9 57 -51.5 85.5t-96 26.5t-102.5 -26q-105 -51 -165 -134.5t-74 -178.5q-11 -59 -5 -108zM944 678q9 18 72 141t94 187q128 253 177 349t131 244.5t130 217.5q28 -62 -6 -265t-125 -614q-137 -61 -411 -223q-60 -36 -62 -37zM1485 2021q-1 9 47 29 q48 21 78 14q-20 -31 -85 -44q-40 -9 -40 1zM1610 2021q-1 9 47 29q48 21 78 14q-20 -31 -85 -44q-40 -9 -40 1z" />
<glyph unicode="&#xc7;" horiz-adv-x="1501" d="M30 -42q4 77 25 167q59 259 281.5 648.5t482.5 666.5q375 409 645 348q43 -11 90 -37q118 -75 191 -260q0 -6 -2 -6q-1 -1 -3.5 -0.5t-2.5 2.5q-76 183 -187 254q-55 30 -88 35q-168 39 -436 -221q-245 -237 -485 -631q-245 -401 -351 -742q-112 -361 -11 -491 q59 -77 192 -60q53 7 143 35q208 68 408 221.5t268 302.5q6 6 6 3q6 0 2 -9q-67 -150 -268.5 -305t-413.5 -225q-75 -21 -143 -33q-96 -10 -166 11.5t-108.5 67t-55.5 113.5t-13 145zM168 -745q21 26 34 65.5t19 66t34.5 48t82.5 24.5q0 8 1 28t1 32.5t-2 27t-8.5 22 t-18.5 7.5q-19 0 -10 15q6 10 14 10h12q44 0 51 -11t3 -78q-1 -26 -2 -42q-1 -7 -2.5 -11t-5.5 -6t-6.5 -2.5t-11 -1.5t-13.5 -2q-39 3 -64.5 -11.5t-37 -40t-17.5 -51.5t-12 -51.5t-14 -35.5q-20 -20 -27 -2z" />
<glyph unicode="&#xc8;" horiz-adv-x="1542" d="M52.5 158q12.5 100 62.5 192q45 85 114.5 160.5t165 142.5t223 116.5t275.5 74.5q-325 221 -369 491q-13 98 25.5 184.5t111.5 145t169 93.5t200 40q211 10 371 -90q2 -2 2 -8q-5 -5 -8 -2q-167 107 -363 80q-149 -21 -244 -81.5t-128 -141.5t-24 -178.5t58 -193.5 t128.5 -185t178.5 -154q1 0 5 -4q0 -6 -7 -6q-414 -65 -644 -306q-161 -169 -192 -378q-26 -174 49 -295q72 -118 205 -126q32 -2 66 3q38 6 77 20t69.5 29.5t68.5 44.5t61 48.5t62.5 59.5t57.5 59t59 64q48 53 73 79.5t69.5 69.5t77 67t75.5 47t84 34q1 2 3.5 0.5t2.5 -4.5 q0 -4 -4 -4q-48 -13 -92.5 -38t-96.5 -71t-78.5 -73t-88.5 -93q-13 -13 -19 -20q-64 -72 -104.5 -114t-102 -94.5t-124 -82t-128.5 -39.5q-106 -20 -195 8.5t-143 93t-80.5 150t-14 185.5zM111 811q4 11 37 -2.5t40 -24.5q55 -88 74 -137q-16 -6 -40 3.5t-38 23.5 q-20 53 -73 137zM1143 2103q4 11 37.5 -2t40.5 -24q52 -82 73 -138q-16 -6 -39.5 3.5t-37.5 23.5q-19 49 -74 137z" />
<glyph unicode="&#xc9;" horiz-adv-x="1542" d="M52.5 158q12.5 100 62.5 192q45 85 114.5 160.5t165 142.5t223 116.5t275.5 74.5q-325 221 -369 491q-13 98 25.5 184.5t111.5 145t169 93.5t200 40q211 10 371 -90q2 -2 2 -8q-5 -5 -8 -2q-167 107 -363 80q-149 -21 -244 -81.5t-128 -141.5t-24 -178.5t58 -193.5 t128.5 -185t178.5 -154q1 0 5 -4q0 -6 -7 -6q-414 -65 -644 -306q-161 -169 -192 -378q-26 -174 49 -295q72 -118 205 -126q32 -2 66 3q38 6 77 20t69.5 29.5t68.5 44.5t61 48.5t62.5 59.5t57.5 59t59 64q48 53 73 79.5t69.5 69.5t77 67t75.5 47t84 34q1 2 3.5 0.5t2.5 -4.5 q0 -4 -4 -4q-48 -13 -92.5 -38t-96.5 -71t-78.5 -73t-88.5 -93q-13 -13 -19 -20q-64 -72 -104.5 -114t-102 -94.5t-124 -82t-128.5 -39.5q-106 -20 -195 8.5t-143 93t-80.5 150t-14 185.5zM1143 1939q20 52 74 138q7 11 40 24t37 2q-53 -84 -73 -137q-14 -14 -38 -23.5 t-40 -3.5z" />
<glyph unicode="&#xca;" horiz-adv-x="1542" d="M52.5 158q12.5 100 62.5 192q45 85 114.5 160.5t165 142.5t223 116.5t275.5 74.5q-325 221 -369 491q-13 98 25.5 184.5t111.5 145t169 93.5t200 40q211 10 371 -90q2 -2 2 -8q-5 -5 -8 -2q-167 107 -363 80q-149 -21 -244 -81.5t-128 -141.5t-24 -178.5t58 -193.5 t128.5 -185t178.5 -154q1 0 5 -4q0 -6 -7 -6q-414 -65 -644 -306q-161 -169 -192 -378q-26 -174 49 -295q72 -118 205 -126q32 -2 66 3q38 6 77 20t69.5 29.5t68.5 44.5t61 48.5t62.5 59.5t57.5 59t59 64q48 53 73 79.5t69.5 69.5t77 67t75.5 47t84 34q1 2 3.5 0.5t2.5 -4.5 q0 -4 -4 -4q-48 -13 -92.5 -38t-96.5 -71t-78.5 -73t-88.5 -93q-13 -13 -19 -20q-64 -72 -104.5 -114t-102 -94.5t-124 -82t-128.5 -39.5q-106 -20 -195 8.5t-143 93t-80.5 150t-14 185.5zM1055 1939q21 56 73 138q7 11 40.5 24t37.5 2q-53 -84 -73 -137q-14 -14 -38 -23.5 t-40 -3.5zM1245 2103q4 11 37.5 -2t40.5 -24q54 -86 74 -138q-16 -6 -40 3.5t-38 23.5q-19 49 -74 137z" />
<glyph unicode="&#xcb;" horiz-adv-x="1542" d="M52.5 158q12.5 100 62.5 192q45 85 114.5 160.5t165 142.5t223 116.5t275.5 74.5q-325 221 -369 491q-13 98 25.5 184.5t111.5 145t169 93.5t200 40q211 10 371 -90q2 -2 2 -8q-5 -5 -8 -2q-167 107 -363 80q-149 -21 -244 -81.5t-128 -141.5t-24 -178.5t58 -193.5 t128.5 -185t178.5 -154q1 0 5 -4q0 -6 -7 -6q-414 -65 -644 -306q-161 -169 -192 -378q-26 -174 49 -295q72 -118 205 -126q32 -2 66 3q38 6 77 20t69.5 29.5t68.5 44.5t61 48.5t62.5 59.5t57.5 59t59 64q48 53 73 79.5t69.5 69.5t77 67t75.5 47t84 34q1 2 3.5 0.5t2.5 -4.5 q0 -4 -4 -4q-48 -13 -92.5 -38t-96.5 -71t-78.5 -73t-88.5 -93q-13 -13 -19 -20q-64 -72 -104.5 -114t-102 -94.5t-124 -82t-128.5 -39.5q-106 -20 -195 8.5t-143 93t-80.5 150t-14 185.5zM1118 2021q-1 9 47 29q48 21 78 14q-20 -31 -85 -44q-40 -9 -40 1zM1243 2021 q-1 9 47 29q48 21 78 14q-20 -31 -85 -44q-40 -9 -40 1z" />
<glyph unicode="&#xcc;" horiz-adv-x="1189" d="M16 -37q1 -82 23 -146t60.5 -102t88 -54.5t108 -7.5t118.5 42q114 60 215 203q108 149 214 342.5t194.5 384t177 381.5t196.5 390t219 355q15 16 -27 27q-12 3 -37 8l-20 4q-117 20 -192 28.5t-167 8t-179 -21.5t-183 -64q-151 -64 -268 -191q-146 -155 -166 -315 q-6 -75 25 -127.5t100 -69.5q86 -19 230.5 31t338.5 180q2 2 2 8q-3 3 -6 0q-194 -128 -337 -177t-228 -29q-63 15 -92 64t-21 118q13 148 160 311q115 118 268 189q324 150 705 32q-110 -155 -217 -347.5t-196.5 -380t-176.5 -373.5t-191 -383.5t-206 -354.5 q-89 -131 -168 -194q-65 -51 -129.5 -59t-113.5 23.5t-79 101t-30 165.5q0 145 77 277q79 135 189 190q56 24 109.5 21t86 -31t40 -77t-28.5 -116q-1 -1 -0.5 -3.5t2.5 -2.5q6 0 8 2q28 48 30.5 94t-18.5 78t-55 51.5t-82 17.5t-96 -26q-56 -26 -106.5 -77t-88.5 -117 q-80 -140 -80 -281zM111 811q4 11 37 -2.5t40 -24.5q55 -88 74 -137q-16 -6 -40 3.5t-38 23.5q-20 53 -73 137zM1143 2103q4 11 37.5 -2t40.5 -24q52 -82 73 -138q-16 -6 -39.5 3.5t-37.5 23.5q-19 49 -74 137z" />
<glyph unicode="&#xcd;" horiz-adv-x="1189" d="M16 -37q1 -82 23 -146t60.5 -102t88 -54.5t108 -7.5t118.5 42q114 60 215 203q108 149 214 342.5t194.5 384t177 381.5t196.5 390t219 355q15 16 -27 27q-12 3 -37 8l-20 4q-117 20 -192 28.5t-167 8t-179 -21.5t-183 -64q-151 -64 -268 -191q-146 -155 -166 -315 q-6 -75 25 -127.5t100 -69.5q86 -19 230.5 31t338.5 180q2 2 2 8q-3 3 -6 0q-194 -128 -337 -177t-228 -29q-63 15 -92 64t-21 118q13 148 160 311q115 118 268 189q324 150 705 32q-110 -155 -217 -347.5t-196.5 -380t-176.5 -373.5t-191 -383.5t-206 -354.5 q-89 -131 -168 -194q-65 -51 -129.5 -59t-113.5 23.5t-79 101t-30 165.5q0 145 77 277q79 135 189 190q56 24 109.5 21t86 -31t40 -77t-28.5 -116q-1 -1 -0.5 -3.5t2.5 -2.5q6 0 8 2q28 48 30.5 94t-18.5 78t-55 51.5t-82 17.5t-96 -26q-56 -26 -106.5 -77t-88.5 -117 q-80 -140 -80 -281zM1143 1939q20 52 74 138q7 11 40 24t37 2q-53 -84 -73 -137q-14 -14 -38 -23.5t-40 -3.5z" />
<glyph unicode="&#xce;" horiz-adv-x="1189" d="M16 -37q1 -82 23 -146t60.5 -102t88 -54.5t108 -7.5t118.5 42q114 60 215 203q108 149 214 342.5t194.5 384t177 381.5t196.5 390t219 355q15 16 -27 27q-12 3 -37 8l-20 4q-117 20 -192 28.5t-167 8t-179 -21.5t-183 -64q-151 -64 -268 -191q-146 -155 -166 -315 q-6 -75 25 -127.5t100 -69.5q86 -19 230.5 31t338.5 180q2 2 2 8q-3 3 -6 0q-194 -128 -337 -177t-228 -29q-63 15 -92 64t-21 118q13 148 160 311q115 118 268 189q324 150 705 32q-110 -155 -217 -347.5t-196.5 -380t-176.5 -373.5t-191 -383.5t-206 -354.5 q-89 -131 -168 -194q-65 -51 -129.5 -59t-113.5 23.5t-79 101t-30 165.5q0 145 77 277q79 135 189 190q56 24 109.5 21t86 -31t40 -77t-28.5 -116q-1 -1 -0.5 -3.5t2.5 -2.5q6 0 8 2q28 48 30.5 94t-18.5 78t-55 51.5t-82 17.5t-96 -26q-56 -26 -106.5 -77t-88.5 -117 q-80 -140 -80 -281zM1055 1939q21 56 73 138q7 11 40.5 24t37.5 2q-53 -84 -73 -137q-14 -14 -38 -23.5t-40 -3.5zM1245 2103q4 11 37.5 -2t40.5 -24q54 -86 74 -138q-16 -6 -40 3.5t-38 23.5q-19 49 -74 137z" />
<glyph unicode="&#xcf;" horiz-adv-x="1189" d="M16 -37q1 -82 23 -146t60.5 -102t88 -54.5t108 -7.5t118.5 42q114 60 215 203q108 149 214 342.5t194.5 384t177 381.5t196.5 390t219 355q15 16 -27 27q-12 3 -37 8l-20 4q-117 20 -192 28.5t-167 8t-179 -21.5t-183 -64q-151 -64 -268 -191q-146 -155 -166 -315 q-6 -75 25 -127.5t100 -69.5q86 -19 230.5 31t338.5 180q2 2 2 8q-3 3 -6 0q-194 -128 -337 -177t-228 -29q-63 15 -92 64t-21 118q13 148 160 311q115 118 268 189q324 150 705 32q-110 -155 -217 -347.5t-196.5 -380t-176.5 -373.5t-191 -383.5t-206 -354.5 q-89 -131 -168 -194q-65 -51 -129.5 -59t-113.5 23.5t-79 101t-30 165.5q0 145 77 277q79 135 189 190q56 24 109.5 21t86 -31t40 -77t-28.5 -116q-1 -1 -0.5 -3.5t2.5 -2.5q6 0 8 2q28 48 30.5 94t-18.5 78t-55 51.5t-82 17.5t-96 -26q-56 -26 -106.5 -77t-88.5 -117 q-80 -140 -80 -281zM1118 2021q-1 9 47 29q48 21 78 14q-20 -31 -85 -44q-40 -9 -40 1zM1243 2021q-1 9 47 29q48 21 78 14q-20 -31 -85 -44q-40 -9 -40 1z" />
<glyph unicode="&#xd1;" horiz-adv-x="1740" d="M20 20q0 -91 28.5 -159t77 -100.5t107 -36t124.5 34t124 110.5q89 113 224 358q166 300 405 779q323 646 434 806q2 -66 -110 -565q-61 -282 -93.5 -437.5t-68 -368.5t-35.5 -314q0 -4 4 -4t4 2l96 180q267 510 432 776q397 636 668 709q4 0 4 6q-4 4 -8 2 q-59 -16 -124 -58.5t-126 -100t-129.5 -141.5t-127.5 -165t-127.5 -189t-121 -196t-116.5 -203.5t-106 -194t-97 -183.5q35 235 174 878q99 437 109 529q2 13 -20.5 32t-46 25.5t-36.5 -6.5q-48 -69 -130.5 -218t-132.5 -246.5t-179 -350.5q-252 -499 -406 -777 q-139 -252 -223 -356q-46 -59 -98.5 -95t-100.5 -45.5t-92.5 4.5t-77 49t-52 94.5t-19.5 135.5q0 134 78 277q78 134 190 190q44 21 93.5 24t92 -22t50.5 -79q7 -61 -29 -125q-4 -4 2 -4q1 -2 4 -1.5t4 3.5q35 64 29 127q-8 56 -50 84.5t-96.5 27.5t-103.5 -26 q-118 -56 -193 -193q-82 -141 -82 -283zM1780 2011q44 38 69 45q5 2 9.5 2.5t8.5 -0.5t7 -2t7 -4.5t6 -5t7 -7t7 -7.5q25 -26 48.5 -31t40 3t44.5 20.5t53 15.5q-5 -1 -39 -22.5t-55 -30.5q-26 -13 -43 -13q-19 2 -40.5 18t-37 30t-40 14t-52.5 -25z" />
<glyph unicode="&#xd2;" d="M-293.5 127.5q1.5 -2.5 4.5 -2.5q0 -2 2 -0.5t2 4.5q37 141 91 256t121 200t139 145.5t157 107.5q-31 -55 -86 -174q-37 -84 -63 -170.5t-39.5 -169.5t-13.5 -160t13 -144.5t41.5 -120.5t69.5 -89.5t100 -51t130 -6t162.5 47.5t195.5 108q202 135 414 383 q111 130 180 239q244 376 180 691q-12 56 -24 84q62 49 105 114t59 132t-13 128.5t-106 96.5q-69 33 -148 37t-156 -17.5t-152.5 -56.5t-147 -84.5t-130 -98t-110.5 -100.5q-292 -302 -448 -602q-187 -95 -321 -267t-208 -456q-2 -1 -0.5 -3.5zM111 811q4 11 37 -2.5 t40 -24.5q55 -88 74 -137q-16 -6 -40 3.5t-38 23.5q-20 53 -73 137zM123.5 195q3.5 73 17.5 149t37.5 152t54.5 147q55 130 132 258q98 38 244.5 71t263.5 55t254 69t237 114q23 17 113 86q16 -51 20 -79q60 -314 -180 -682q-76 -118 -178 -238q-211 -244 -410 -379 q-97 -65 -181 -100t-146.5 -40t-112.5 12t-82 55.5t-53 92t-27.5 119t-3 138.5zM375 915q190 300 366 486q38 41 81.5 82t100.5 88t114 86t122 71.5t125.5 49.5t123.5 15.5t116 -26.5q62 -30 90 -75t25 -93.5t-26 -101.5t-57.5 -98t-76.5 -84q-52 130 -170 182 q-72 30 -156 12q-4 0 -4 -6q0 -2 6 -2q78 15 150 -14q104 -42 165 -178q-47 -44 -112 -88q-97 -68 -229 -115t-244.5 -68t-260 -53.5t-249.5 -69.5zM1278 2103q4 11 37.5 -2t40.5 -24q54 -86 74 -138q-16 -6 -40 3.5t-38 23.5q-19 49 -74 137z" />
<glyph unicode="&#xd3;" d="M-293.5 127.5q1.5 -2.5 4.5 -2.5q0 -2 2 -0.5t2 4.5q37 141 91 256t121 200t139 145.5t157 107.5q-31 -55 -86 -174q-37 -84 -63 -170.5t-39.5 -169.5t-13.5 -160t13 -144.5t41.5 -120.5t69.5 -89.5t100 -51t130 -6t162.5 47.5t195.5 108q202 135 414 383 q111 130 180 239q244 376 180 691q-12 56 -24 84q62 49 105 114t59 132t-13 128.5t-106 96.5q-69 33 -148 37t-156 -17.5t-152.5 -56.5t-147 -84.5t-130 -98t-110.5 -100.5q-292 -302 -448 -602q-187 -95 -321 -267t-208 -456q-2 -1 -0.5 -3.5zM123.5 195q3.5 73 17.5 149 t37.5 152t54.5 147q55 130 132 258q98 38 244.5 71t263.5 55t254 69t237 114q23 17 113 86q16 -51 20 -79q60 -314 -180 -682q-76 -118 -178 -238q-211 -244 -410 -379q-97 -65 -181 -100t-146.5 -40t-112.5 12t-82 55.5t-53 92t-27.5 119t-3 138.5zM375 915 q190 300 366 486q38 41 81.5 82t100.5 88t114 86t122 71.5t125.5 49.5t123.5 15.5t116 -26.5q62 -30 90 -75t25 -93.5t-26 -101.5t-57.5 -98t-76.5 -84q-52 130 -170 182q-72 30 -156 12q-4 0 -4 -6q0 -2 6 -2q78 15 150 -14q104 -42 165 -178q-47 -44 -112 -88 q-97 -68 -229 -115t-244.5 -68t-260 -53.5t-249.5 -69.5zM1434 1948q53 84 73 137q13 13 37.5 22.5t40.5 3.5q-19 -49 -74 -137q-7 -11 -40 -24t-37 -2z" />
<glyph unicode="&#xd4;" d="M-293.5 127.5q1.5 -2.5 4.5 -2.5q0 -2 2 -0.5t2 4.5q37 141 91 256t121 200t139 145.5t157 107.5q-31 -55 -86 -174q-37 -84 -63 -170.5t-39.5 -169.5t-13.5 -160t13 -144.5t41.5 -120.5t69.5 -89.5t100 -51t130 -6t162.5 47.5t195.5 108q202 135 414 383 q111 130 180 239q244 376 180 691q-12 56 -24 84q62 49 105 114t59 132t-13 128.5t-106 96.5q-69 33 -148 37t-156 -17.5t-152.5 -56.5t-147 -84.5t-130 -98t-110.5 -100.5q-292 -302 -448 -602q-187 -95 -321 -267t-208 -456q-2 -1 -0.5 -3.5zM123.5 195q3.5 73 17.5 149 t37.5 152t54.5 147q55 130 132 258q98 38 244.5 71t263.5 55t254 69t237 114q23 17 113 86q16 -51 20 -79q60 -314 -180 -682q-76 -118 -178 -238q-211 -244 -410 -379q-97 -65 -181 -100t-146.5 -40t-112.5 12t-82 55.5t-53 92t-27.5 119t-3 138.5zM375 915 q190 300 366 486q38 41 81.5 82t100.5 88t114 86t122 71.5t125.5 49.5t123.5 15.5t116 -26.5q62 -30 90 -75t25 -93.5t-26 -101.5t-57.5 -98t-76.5 -84q-52 130 -170 182q-72 30 -156 12q-4 0 -4 -6q0 -2 6 -2q78 15 150 -14q104 -42 165 -178q-47 -44 -112 -88 q-97 -68 -229 -115t-244.5 -68t-260 -53.5t-249.5 -69.5zM1253 1939q20 52 74 138q7 11 40.5 24t37.5 2q-55 -88 -74 -137q-14 -14 -38 -23.5t-40 -3.5zM1444 2103q4 11 37.5 -2t40.5 -24q52 -82 73 -138q-16 -6 -39.5 3.5t-37.5 23.5q-19 49 -74 137z" />
<glyph unicode="&#xd5;" d="M-293.5 127.5q1.5 -2.5 4.5 -2.5q0 -2 2 -0.5t2 4.5q37 141 91 256t121 200t139 145.5t157 107.5q-31 -55 -86 -174q-37 -84 -63 -170.5t-39.5 -169.5t-13.5 -160t13 -144.5t41.5 -120.5t69.5 -89.5t100 -51t130 -6t162.5 47.5t195.5 108q202 135 414 383 q111 130 180 239q244 376 180 691q-12 56 -24 84q62 49 105 114t59 132t-13 128.5t-106 96.5q-69 33 -148 37t-156 -17.5t-152.5 -56.5t-147 -84.5t-130 -98t-110.5 -100.5q-292 -302 -448 -602q-187 -95 -321 -267t-208 -456q-2 -1 -0.5 -3.5zM123.5 195q3.5 73 17.5 149 t37.5 152t54.5 147q55 130 132 258q98 38 244.5 71t263.5 55t254 69t237 114q23 17 113 86q16 -51 20 -79q60 -314 -180 -682q-76 -118 -178 -238q-211 -244 -410 -379q-97 -65 -181 -100t-146.5 -40t-112.5 12t-82 55.5t-53 92t-27.5 119t-3 138.5zM375 915 q190 300 366 486q38 41 81.5 82t100.5 88t114 86t122 71.5t125.5 49.5t123.5 15.5t116 -26.5q62 -30 90 -75t25 -93.5t-26 -101.5t-57.5 -98t-76.5 -84q-52 130 -170 182q-72 30 -156 12q-4 0 -4 -6q0 -2 6 -2q78 15 150 -14q104 -42 165 -178q-47 -44 -112 -88 q-97 -68 -229 -115t-244.5 -68t-260 -53.5t-249.5 -69.5zM1278 2011q43 37 70 45q6 2 11.5 2t9 -0.5t8 -4t6.5 -5.5l8 -8l8 -8q25 -26 48.5 -31t40 3t44.5 20.5t53 15.5q-5 -1 -39 -22.5t-55 -30.5q-26 -13 -43 -13q-19 2 -40.5 18t-37 30t-40 14t-52.5 -25z" />
<glyph unicode="&#xd6;" d="M-293.5 127.5q1.5 -2.5 4.5 -2.5q0 -2 2 -0.5t2 4.5q37 141 91 256t121 200t139 145.5t157 107.5q-31 -55 -86 -174q-37 -84 -63 -170.5t-39.5 -169.5t-13.5 -160t13 -144.5t41.5 -120.5t69.5 -89.5t100 -51t130 -6t162.5 47.5t195.5 108q202 135 414 383 q111 130 180 239q244 376 180 691q-12 56 -24 84q62 49 105 114t59 132t-13 128.5t-106 96.5q-69 33 -148 37t-156 -17.5t-152.5 -56.5t-147 -84.5t-130 -98t-110.5 -100.5q-292 -302 -448 -602q-187 -95 -321 -267t-208 -456q-2 -1 -0.5 -3.5zM123.5 195q3.5 73 17.5 149 t37.5 152t54.5 147q55 130 132 258q98 38 244.5 71t263.5 55t254 69t237 114q23 17 113 86q16 -51 20 -79q60 -314 -180 -682q-76 -118 -178 -238q-211 -244 -410 -379q-97 -65 -181 -100t-146.5 -40t-112.5 12t-82 55.5t-53 92t-27.5 119t-3 138.5zM375 915 q190 300 366 486q38 41 81.5 82t100.5 88t114 86t122 71.5t125.5 49.5t123.5 15.5t116 -26.5q62 -30 90 -75t25 -93.5t-26 -101.5t-57.5 -98t-76.5 -84q-52 130 -170 182q-72 30 -156 12q-4 0 -4 -6q0 -2 6 -2q78 15 150 -14q104 -42 165 -178q-47 -44 -112 -88 q-97 -68 -229 -115t-244.5 -68t-260 -53.5t-249.5 -69.5zM1290 2021q-1 9 47 29q48 21 78 14q-20 -31 -85 -44q-40 -9 -40 1zM1415 2021q-1 9 47 29q48 21 78 14q-20 -31 -85 -44q-40 -9 -40 1z" />
<glyph unicode="&#xd9;" horiz-adv-x="1552" d="M-548 1162q11 -41 54 -70q52 -34 119 -25q73 10 145 71t124 177q1 1 0 3.5t-3 2.5q-4 2 -8 -2q-49 -114 -119 -174t-141 -68q-65 -6 -110 25q-39 25 -50 61.5t3.5 74t40.5 72t59 60.5q65 50 139 87t162 60.5t158.5 38t178.5 22.5t168 11t177 6q236 7 364 21 q-122 -175 -253.5 -392t-266.5 -468.5t-234 -504t-126 -435.5q-14 -97 -2 -162.5t42.5 -105.5t77 -56t101.5 -14t116 20t120 46t114 65q88 59 177 145.5t169.5 192t153 213t144.5 233t126.5 225.5t116.5 217q28 53 41 78q94 178 150.5 281.5t138 242t154 238.5t143.5 174 q77 80 152 125t155 56.5t164.5 -24t171.5 -118.5q3 -3 6 0q8 4 0 8q-89 85 -175.5 121.5t-168.5 25t-158 -57t-156 -127.5q-67 -70 -134.5 -163t-144.5 -223t-129 -224t-143 -263q-24 -44 -36 -67q-16 -29 -49 -92q-48 -91 -74.5 -140.5t-79 -145t-88 -155t-91 -149 t-99.5 -150.5t-102 -137t-110 -131t-112 -109.5t-119 -93.5q-64 -43 -124.5 -71t-118.5 -40.5t-103 -1.5t-77 46.5t-41 103.5t5 170q28 188 128.5 442.5t236.5 506t270.5 470t259.5 393.5l41 13q114 29 181.5 70.5t91.5 86.5q22 45 -1 81t-73 38q-49 3 -108 -28t-117 -101 q-39 -46 -125 -166q-118 -14 -373 -22q-110 -3 -177.5 -5.5t-170.5 -10.5t-177.5 -23.5t-161 -39t-161 -61.5t-139.5 -88q-33 -25 -60 -59.5t-44 -75t-6 -81.5zM111 811q4 11 37 -2.5t40 -24.5q55 -88 74 -137q-16 -6 -40 3.5t-38 23.5q-20 53 -73 137zM1040 1649 q147 206 228 243q31 14 52.5 3t23.5 -34.5t-9 -50.5q-49 -99 -264 -155q-30 -6 -31 -6zM1694 2345q4 11 37.5 -2.5t40.5 -24.5q53 -84 73 -137q-16 -6 -40 3.5t-38 23.5q-20 53 -73 137z" />
<glyph unicode="&#xda;" horiz-adv-x="1552" d="M-548 1162q11 -41 54 -70q52 -34 119 -25q73 10 145 71t124 177q1 1 0 3.5t-3 2.5q-4 2 -8 -2q-49 -114 -119 -174t-141 -68q-65 -6 -110 25q-39 25 -50 61.5t3.5 74t40.5 72t59 60.5q65 50 139 87t162 60.5t158.5 38t178.5 22.5t168 11t177 6q236 7 364 21 q-122 -175 -253.5 -392t-266.5 -468.5t-234 -504t-126 -435.5q-14 -97 -2 -162.5t42.5 -105.5t77 -56t101.5 -14t116 20t120 46t114 65q88 59 177 145.5t169.5 192t153 213t144.5 233t126.5 225.5t116.5 217q28 53 41 78q94 178 150.5 281.5t138 242t154 238.5t143.5 174 q77 80 152 125t155 56.5t164.5 -24t171.5 -118.5q3 -3 6 0q8 4 0 8q-89 85 -175.5 121.5t-168.5 25t-158 -57t-156 -127.5q-67 -70 -134.5 -163t-144.5 -223t-129 -224t-143 -263q-24 -44 -36 -67q-16 -29 -49 -92q-48 -91 -74.5 -140.5t-79 -145t-88 -155t-91 -149 t-99.5 -150.5t-102 -137t-110 -131t-112 -109.5t-119 -93.5q-64 -43 -124.5 -71t-118.5 -40.5t-103 -1.5t-77 46.5t-41 103.5t5 170q28 188 128.5 442.5t236.5 506t270.5 470t259.5 393.5l41 13q114 29 181.5 70.5t91.5 86.5q22 45 -1 81t-73 38q-49 3 -108 -28t-117 -101 q-39 -46 -125 -166q-118 -14 -373 -22q-110 -3 -177.5 -5.5t-170.5 -10.5t-177.5 -23.5t-161 -39t-161 -61.5t-139.5 -88q-33 -25 -60 -59.5t-44 -75t-6 -81.5zM1040 1649q147 206 228 243q31 14 52.5 3t23.5 -34.5t-9 -50.5q-49 -99 -264 -155q-30 -6 -31 -6zM1583 2181 q19 49 74 137q7 11 40.5 24.5t37.5 2.5q-55 -88 -74 -137q-14 -14 -38 -23.5t-40 -3.5zM1745 2181q19 49 74 137q7 11 40 24.5t37 2.5q-53 -84 -73 -137q-14 -14 -38 -23.5t-40 -3.5z" />
<glyph unicode="&#xdb;" horiz-adv-x="1552" d="M-548 1162q11 -41 54 -70q52 -34 119 -25q73 10 145 71t124 177q1 1 0 3.5t-3 2.5q-4 2 -8 -2q-49 -114 -119 -174t-141 -68q-65 -6 -110 25q-39 25 -50 61.5t3.5 74t40.5 72t59 60.5q65 50 139 87t162 60.5t158.5 38t178.5 22.5t168 11t177 6q236 7 364 21 q-122 -175 -253.5 -392t-266.5 -468.5t-234 -504t-126 -435.5q-14 -97 -2 -162.5t42.5 -105.5t77 -56t101.5 -14t116 20t120 46t114 65q88 59 177 145.5t169.5 192t153 213t144.5 233t126.5 225.5t116.5 217q28 53 41 78q94 178 150.5 281.5t138 242t154 238.5t143.5 174 q77 80 152 125t155 56.5t164.5 -24t171.5 -118.5q3 -3 6 0q8 4 0 8q-89 85 -175.5 121.5t-168.5 25t-158 -57t-156 -127.5q-67 -70 -134.5 -163t-144.5 -223t-129 -224t-143 -263q-24 -44 -36 -67q-16 -29 -49 -92q-48 -91 -74.5 -140.5t-79 -145t-88 -155t-91 -149 t-99.5 -150.5t-102 -137t-110 -131t-112 -109.5t-119 -93.5q-64 -43 -124.5 -71t-118.5 -40.5t-103 -1.5t-77 46.5t-41 103.5t5 170q28 188 128.5 442.5t236.5 506t270.5 470t259.5 393.5l41 13q114 29 181.5 70.5t91.5 86.5q22 45 -1 81t-73 38q-49 3 -108 -28t-117 -101 q-39 -46 -125 -166q-118 -14 -373 -22q-110 -3 -177.5 -5.5t-170.5 -10.5t-177.5 -23.5t-161 -39t-161 -61.5t-139.5 -88q-33 -25 -60 -59.5t-44 -75t-6 -81.5zM1040 1649q147 206 228 243q31 14 52.5 3t23.5 -34.5t-9 -50.5q-49 -99 -264 -155q-30 -6 -31 -6zM1569 2132 q20 53 73 137q7 11 40.5 24.5t37.5 2.5q-53 -84 -73 -137q-14 -14 -38 -23.5t-40 -3.5zM1759 2296q4 11 37.5 -2.5t40.5 -24.5q55 -88 74 -137q-16 -6 -40 3.5t-38 23.5q-19 49 -74 137z" />
<glyph unicode="&#xdc;" horiz-adv-x="1552" d="M-548 1162q11 -41 54 -70q52 -34 119 -25q73 10 145 71t124 177q1 1 0 3.5t-3 2.5q-4 2 -8 -2q-49 -114 -119 -174t-141 -68q-65 -6 -110 25q-39 25 -50 61.5t3.5 74t40.5 72t59 60.5q65 50 139 87t162 60.5t158.5 38t178.5 22.5t168 11t177 6q236 7 364 21 q-122 -175 -253.5 -392t-266.5 -468.5t-234 -504t-126 -435.5q-14 -97 -2 -162.5t42.5 -105.5t77 -56t101.5 -14t116 20t120 46t114 65q88 59 177 145.5t169.5 192t153 213t144.5 233t126.5 225.5t116.5 217q28 53 41 78q94 178 150.5 281.5t138 242t154 238.5t143.5 174 q77 80 152 125t155 56.5t164.5 -24t171.5 -118.5q3 -3 6 0q8 4 0 8q-89 85 -175.5 121.5t-168.5 25t-158 -57t-156 -127.5q-67 -70 -134.5 -163t-144.5 -223t-129 -224t-143 -263q-24 -44 -36 -67q-16 -29 -49 -92q-48 -91 -74.5 -140.5t-79 -145t-88 -155t-91 -149 t-99.5 -150.5t-102 -137t-110 -131t-112 -109.5t-119 -93.5q-64 -43 -124.5 -71t-118.5 -40.5t-103 -1.5t-77 46.5t-41 103.5t5 170q28 188 128.5 442.5t236.5 506t270.5 470t259.5 393.5l41 13q114 29 181.5 70.5t91.5 86.5q22 45 -1 81t-73 38q-49 3 -108 -28t-117 -101 q-39 -46 -125 -166q-118 -14 -373 -22q-110 -3 -177.5 -5.5t-170.5 -10.5t-177.5 -23.5t-161 -39t-161 -61.5t-139.5 -88q-33 -25 -60 -59.5t-44 -75t-6 -81.5zM1040 1649q147 206 228 243q31 14 52.5 3t23.5 -34.5t-9 -50.5q-49 -99 -264 -155q-30 -6 -31 -6zM1636 2142 q-1 9 47 29q48 21 78 14q-20 -31 -85 -44q-40 -9 -40 1zM1761 2142q-1 9 47 29q48 21 78 14q-20 -31 -85 -44q-40 -9 -40 1z" />
<glyph unicode="&#xdd;" horiz-adv-x="1705" d="M-1180 -1315q-2 -5 4 -8q7 0 7 4q69 186 261 257q125 46 377 60q29 1 103 5q298 8 455 43q9 -104 63 -170q38 -51 82 -70q433 -225 1048 1048q96 198 237 526l79 179q210 458 355 750t266 473q11 23 -19.5 41t-52.5 8q-147 -202 -414 -756q-161 -249 -422 -444 q-230 -173 -422 -221q-28 -5 -50 -5.5t-36.5 10t-25 23.5t-16 33.5t-7.5 39.5t-1 43.5t3 44.5t6 42q34 165 146 401q94 208 223 429.5t238 371.5q142 39 174 113q7 13 3 33t-18 30q-35 25 -94 2q-51 -21 -98 -79q-15 -17 -82 -109q-57 -7 -252 -16q-43 1 -95 -1t-128.5 -9 t-147 -18.5t-142.5 -33.5t-123 -51t-81 -74t-24 -100q6 -39 39 -62q41 -21 81 -16q50 5 99 46.5t84 121.5l-10 4q-32 -76 -79 -116.5t-94 -45.5q-43 -6 -75 17q-29 19 -35 53q-30 249 711 275q5 0 8 0.5t7 0.5h7q153 4 242 13q-125 -179 -267 -431t-231 -468 q-86 -219 -96 -334q-16 -147 65 -191q27 -12 66 -12q57 0 106 14q193 48 428 222q232 177 387 393q-55 -112 -208 -449q-13 -29 -57 -130q-261 -598 -453 -940q-460 -821 -743 -683q-3 1 -5 2q-44 23 -80 68q-47 65 -59 166q249 59 401 211q126 126 109 226q-12 67 -83 91 q-85 29 -185 -22q-70 -36 -125 -105q-57 -72 -95 -172q-34 -90 -34 -184q0 -25 2 -35q-35 -8 -76.5 -15t-71 -11t-81.5 -8t-71.5 -5t-81.5 -4t-73 -4q-70 -3 -111 -4.5t-105.5 -7t-103.5 -12t-93.5 -19t-90 -28.5t-77 -40t-70.5 -54.5t-55.5 -71t-45.5 -89.5zM35 -907 q0 89 35 182q38 101 94 168q93 115 208 132q89 13 136 -38q52 -57 10 -150q-26 -59 -88 -120q-153 -153 -395 -207v33zM1315 1858q10 14 25.5 34.5t41 51t48.5 48.5t34 13q19 -8 9 -45q-6 -21 -22.5 -37.5t-43 -29.5t-44 -19.5t-48.5 -15.5zM1747 2234q54 86 74 138 q13 13 37 22.5t40 3.5q-20 -53 -73 -137q-7 -11 -40.5 -24.5t-37.5 -2.5z" />
<glyph unicode="&#xe0;" horiz-adv-x="985" d="M-114 86.5q1 -35.5 20.5 -60t56.5 -26.5q41 -2 117 33q140 68 303 231q-61 -122 -61 -186q0 -35 20 -54t52.5 -21t61 1.5t58.5 11.5q135 36 266.5 112t216.5 177q1 1 1 5t-1 5q-6 3 -12 0q-85 -98 -213 -173t-264 -111q-48 -14 -44 44q3 49 46 152q29 68 72 140t75 112 q11 14 -20 30q-45 23 -85 8q-19 -7 -30 -23q-65 -96 -112 -181q-149 -176 -338 -268q-45 -23 -47 33q-2 72 58 190q72 144 164 200q71 43 136 15q4 -2 10 4q0 9 -4 11q-109 46 -205.5 11.5t-167.5 -113t-110 -183.5q-10 -27 -15.5 -59t-4.5 -67.5zM111 811q4 11 37 -2.5 t40 -24.5q55 -88 74 -137q-16 -6 -40 3.5t-38 23.5q-20 53 -73 137zM336 811q4 11 37.5 -2.5t40.5 -24.5q53 -84 73 -137q-16 -6 -39.5 3.5t-37.5 23.5q-19 49 -74 137z" />
<glyph unicode="&#xe1;" horiz-adv-x="985" d="M-114 86.5q1 -35.5 20.5 -60t56.5 -26.5q41 -2 117 33q140 68 303 231q-61 -122 -61 -186q0 -35 20 -54t52.5 -21t61 1.5t58.5 11.5q135 36 266.5 112t216.5 177q1 1 1 5t-1 5q-6 3 -12 0q-85 -98 -213 -173t-264 -111q-48 -14 -44 44q3 49 46 152q29 68 72 140t75 112 q11 14 -20 30q-45 23 -85 8q-19 -7 -30 -23q-65 -96 -112 -181q-149 -176 -338 -268q-45 -23 -47 33q-2 72 58 190q72 144 164 200q71 43 136 15q4 -2 10 4q0 9 -4 11q-109 46 -205.5 11.5t-167.5 -113t-110 -183.5q-10 -27 -15.5 -59t-4.5 -67.5zM420 647q19 49 74 137 q7 11 40 24.5t37 2.5q-53 -84 -73 -137q-14 -14 -38 -23.5t-40 -3.5z" />
<glyph unicode="&#xe2;" horiz-adv-x="985" d="M-114 86.5q-1 35.5 4.5 67.5t15.5 59q39 105 110 183.5t167.5 113t205.5 -11.5q4 -2 4 -11q-6 -6 -10 -4q-105 44 -217 -86q-82 -97 -123 -225q-34 -105 -7 -128q13 -11 36 1q189 92 338 268q47 85 112 181q27 39 88 25q41 -10 48 -29q3 -6 -1 -11q-32 -40 -75 -112 t-72 -140q-85 -205 -14 -198q6 0 12 2q136 36 264 111t213 173q6 3 12 0q1 -1 1 -5t-1 -5q-85 -101 -216.5 -177t-266.5 -112q-30 -8 -58.5 -11.5t-61 -1.5t-52.5 21t-20 54q0 64 61 186q-163 -163 -303 -231q-76 -35 -117 -33q-37 2 -56.5 26.5t-20.5 60zM313 647 q47 116 96.5 151t95.5 -5t91 -146q-16 -6 -40 3.5t-38 23.5q-16 42 -63 121q-43 -67 -64 -121q-14 -14 -38 -23.5t-40 -3.5z" />
<glyph unicode="&#xe3;" horiz-adv-x="985" d="M-114 86.5q1 -35.5 20.5 -60t56.5 -26.5q41 -2 117 33q140 68 303 231q-61 -122 -61 -186q0 -35 20 -54t52.5 -21t61 1.5t58.5 11.5q135 36 266.5 112t216.5 177q1 1 1 5t-1 5q-6 3 -12 0q-85 -98 -213 -173t-264 -111q-48 -14 -44 44q3 49 46 152q29 68 72 140t75 112 q11 14 -20 30q-45 23 -85 8q-19 -7 -30 -23q-65 -96 -112 -181q-149 -176 -338 -268q-45 -23 -47 33q-2 72 58 190q72 144 164 200q71 43 136 15q4 -2 10 4q0 9 -4 11q-109 46 -205.5 11.5t-167.5 -113t-110 -183.5q-10 -27 -15.5 -59t-4.5 -67.5zM293 700q44 38 69 45 q5 2 9.5 2.5t8.5 -0.5t7 -2t7 -4.5t6 -5t7 -7t7 -7.5q25 -26 48.5 -31t40 3t44.5 20.5t53 15.5q-5 -1 -39 -22.5t-55 -30.5q-24 -12 -43 -12q-19 2 -40.5 18t-37 29.5t-40 13.5t-52.5 -25z" />
<glyph unicode="&#xe4;" horiz-adv-x="985" d="M-114 86.5q1 -35.5 20.5 -60t56.5 -26.5q41 -2 117 33q140 68 303 231q-61 -122 -61 -186q0 -35 20 -54t52.5 -21t61 1.5t58.5 11.5q135 36 266.5 112t216.5 177q1 1 1 5t-1 5q-6 3 -12 0q-85 -98 -213 -173t-264 -111q-48 -14 -44 44q3 49 46 152q29 68 72 140t75 112 q11 14 -20 30q-45 23 -85 8q-19 -7 -30 -23q-65 -96 -112 -181q-149 -176 -338 -268q-45 -23 -47 33q-2 72 58 190q72 144 164 200q71 43 136 15q4 -2 10 4q0 9 -4 11q-109 46 -205.5 11.5t-167.5 -113t-110 -183.5q-10 -27 -15.5 -59t-4.5 -67.5zM346 668q2 9 47 28 q50 22 78 15q-20 -31 -85 -45q-43 -9 -40 2zM471 668q2 9 47 28q50 22 78 15q-20 -31 -85 -45q-43 -9 -40 2z" />
<glyph unicode="&#xe7;" horiz-adv-x="722" d="M-95.5 129q-4.5 37 9.5 88q21 83 83.5 163.5t151.5 131t173 43.5q65 -5 79 -41q10 -28 -20 -46q-15 -9 -37 -11q-6 0 -6 8q0 6 6 6q38 3 43 27q4 21 -18 30q-20 7 -47 -4q-88 -36 -157.5 -121.5t-96.5 -181.5q-14 -50 -13.5 -89.5t18.5 -70.5t59.5 -37.5t109.5 9.5 q136 41 272.5 120t208.5 162q0 1 1.5 2t3.5 0.5t3 -2.5q6 -3 2 -10q-72 -85 -210.5 -166t-276.5 -121q-40 -10 -77.5 -16t-76.5 -6.5t-70 7t-58 22.5t-41 41t-18.5 63zM-63 -360q18 22 29 52.5t16.5 54t16.5 45.5t37 35.5t70 16.5q0 9 1.5 28t1.5 32t-2 27.5t-8.5 22 t-18.5 7.5q-19 0 -10 15q6 10 14 10h12q44 0 50.5 -10.5t2.5 -74.5q-1 -29 -2 -46q-1 -7 -2 -11t-5 -6t-7 -2.5t-11 -1.5t-13 -2q-39 3 -64.5 -11.5t-37 -40t-18 -51.5t-12.5 -51.5t-14 -35.5q-19 -19 -26 -2z" />
<glyph unicode="&#xe8;" horiz-adv-x="731" d="M-103 154q-2 -117 101 -150q90 -28 246 16q141 39 282.5 120t214.5 167q1 1 1 5t-1 5q-7 4 -10 -2q-73 -82 -212 -162t-277 -120q-73 -17 -118.5 -6.5t-64.5 46t-14.5 88.5t31.5 120l2 6q110 15 180 53q93 49 117 119.5t-29 98.5t-160 -7q-112 -44 -200 -167 q-86 -120 -89 -230zM86 303q57 113 133 176q82 67 127 48q32 -13 21 -56q-14 -59 -93 -108q-10 -6 -20 -11q-55 -29 -168 -49zM111 811q4 11 37 -2.5t40 -24.5q55 -88 74 -137q-16 -6 -40 3.5t-38 23.5q-20 53 -73 137zM203 811q4 11 37.5 -2.5t40.5 -24.5q53 -84 73 -137 q-16 -6 -40 3.5t-38 23.5q-20 53 -73 137z" />
<glyph unicode="&#xe9;" horiz-adv-x="731" d="M-103 154q-2 -117 101 -150q90 -28 246 16q141 39 282.5 120t214.5 167q1 1 1 5t-1 5q-7 4 -10 -2q-73 -82 -212 -162t-277 -120q-73 -17 -118.5 -6.5t-64.5 46t-14.5 88.5t31.5 120l2 6q110 15 180 53q93 49 117 119.5t-29 98.5t-160 -7q-112 -44 -200 -167 q-86 -120 -89 -230zM86 303q57 113 133 176q82 67 127 48q32 -13 21 -56q-14 -59 -93 -108q-10 -6 -20 -11q-55 -29 -168 -49zM238 647q20 53 73 137q7 11 40.5 24.5t37.5 2.5q-55 -88 -74 -137q-14 -14 -37.5 -23.5t-39.5 -3.5z" />
<glyph unicode="&#xea;" horiz-adv-x="731" d="M-79 264q47 124 150 214q56 50 115 73q107 35 160 7t29 -98.5t-117 -119.5q-70 -38 -180 -53q-2 -4 -2 -6q-27 -67 -31.5 -120t14.5 -88.5t64.5 -46t118.5 6.5q138 40 277 120t212 162q3 6 10 2q1 -1 1 -5t-1 -5q-73 -86 -214.5 -167t-282.5 -120q-245 -69 -320 36 q-54 75 -3 208zM86 303q113 20 168 49q86 45 110 108q17 46 -12 64q-40 25 -118 -33q-7 -6 -15 -12q-76 -63 -133 -176zM135 647q47 116 96.5 151t95.5 -5t91 -146q-16 -6 -40 3.5t-38 23.5q-14 37 -64 121q-40 -63 -63 -121q-14 -14 -38 -23.5t-40 -3.5z" />
<glyph unicode="&#xeb;" horiz-adv-x="731" d="M-103 154q-2 -117 101 -150q90 -28 246 16q141 39 282.5 120t214.5 167q1 1 1 5t-1 5q-7 4 -10 -2q-73 -82 -212 -162t-277 -120q-73 -17 -118.5 -6.5t-64.5 46t-14.5 88.5t31.5 120l2 6q110 15 180 53q93 49 117 119.5t-29 98.5t-160 -7q-112 -44 -200 -167 q-86 -120 -89 -230zM86 303q57 113 133 176q82 67 127 48q32 -13 21 -56q-14 -59 -93 -108q-10 -6 -20 -11q-55 -29 -168 -49zM180 668q2 9 47 28q50 22 78 15q-20 -31 -85 -45q-43 -9 -40 2zM305 668q2 9 47 28q50 22 78 15q-20 -31 -85 -45q-43 -9 -40 2z" />
<glyph unicode="&#xec;" horiz-adv-x="532" d="M-133 78q1 77 71.5 210t131.5 208q32 40 95 27q39 -9 47 -27q2 -5 -1 -9q-85 -137 -105 -172q-165 -292 -57 -283q11 1 25 5q84 24 180 74q190 98 278 204q6 3 13 0q3 -3 0 -10q-89 -107 -283 -207q-89 -45 -180 -75q-81 -23 -133 -23q-82 0 -82 78zM168 682q0 19 13 32 t32 13t32 -13t13 -32t-13 -32t-32 -13t-32 13t-13 32zM215 979q4 11 37.5 -2.5t40.5 -24.5q55 -88 74 -137q-16 -6 -40 3.5t-38 23.5q-19 49 -74 137z" />
<glyph unicode="&#xed;" horiz-adv-x="532" d="M-133 78q1 77 71.5 210t131.5 208q32 40 95 27q39 -9 47 -27q2 -5 -1 -9q-85 -137 -105 -172q-165 -292 -57 -283q11 1 25 5q84 24 180 74q190 98 278 204q6 3 13 0q3 -3 0 -10q-89 -107 -283 -207q-89 -45 -180 -75q-81 -23 -133 -23q-82 0 -82 78zM168 682q0 19 13 32 t32 13t32 -13t13 -32t-13 -32t-32 -13t-32 13t-13 32zM244 815q20 53 73 137q7 11 40.5 24.5t37.5 2.5q-53 -84 -73 -137q-14 -14 -38 -23.5t-40 -3.5z" />
<glyph unicode="&#xee;" horiz-adv-x="532" d="M-133 78q1 77 71.5 210t131.5 208q32 40 95 27q39 -9 47 -27q2 -5 -1 -9q-85 -137 -105 -172q-165 -292 -57 -283q11 1 25 5q84 24 180 74q190 98 278 204q6 3 13 0q3 -3 0 -10q-89 -107 -283 -207q-89 -45 -180 -75q-81 -23 -133 -23q-82 0 -82 78zM111 797 q47 116 96 151t95 -4.5t91 -146.5q-16 -6 -40.5 3.5t-37.5 22.5q-16 42 -63 121q-43 -67 -64 -121q-13 -13 -37 -22.5t-40 -3.5zM168 682q0 19 13 32t32 13t32 -13t13 -32t-13 -32t-32 -13t-32 13t-13 32z" />
<glyph unicode="&#xef;" horiz-adv-x="532" d="M-133 78q1 77 71.5 210t131.5 208q32 40 95 27q39 -9 47 -27q2 -5 -1 -9q-85 -137 -105 -172q-165 -292 -57 -283q11 1 25 5q84 24 180 74q190 98 278 204q6 3 13 0q3 -3 0 -10q-89 -107 -283 -207q-89 -45 -180 -75q-81 -23 -133 -23q-82 0 -82 78zM158 803q2 9 47 28 q50 22 78 15q-20 -31 -85 -45q-43 -9 -40 2zM168 682q0 19 13 32t32 13t32 -13t13 -32t-13 -32t-32 -13t-32 13t-13 32zM283 803q2 9 47 28q50 22 78 15q-20 -31 -85 -45q-43 -9 -40 2z" />
<glyph unicode="&#xf1;" horiz-adv-x="1005" d="M-182 31q-15 -29 29 -30q50 -2 99 20q12 5 17 10l62 116q308 318 452 375q48 21 77 4t11 -69q-16 -49 -110 -189q-38 -59 -56.5 -89t-38 -70.5t-20.5 -63.5q0 -42 51 -45q39 0 113 23q110 40 188 79q255 130 324 205q2 1 2 5t-2 5q-7 4 -10 -2q-35 -35 -126.5 -91.5 t-195.5 -108.5q-75 -37 -184 -78q-26 -8 -17 26q12 42 123 218q25 39 37 59q18 31 27 48t22.5 51.5t10 61t-24.5 44.5q-39 24 -92 19.5t-113 -27.5q-147 -60 -426 -344q142 279 262 450q0 29 -54.5 34.5t-76.5 -11.5q-49 -69 -101 -155.5t-84 -146.5t-90.5 -172.5 t-84.5 -160.5zM354 803q43 37 70 45q6 2 11.5 2t9 -1t8 -4t7 -5.5t7.5 -8t8 -8.5q25 -26 48.5 -31t40.5 3t45 20.5t53 15.5q-5 -1 -20 -10.5t-36.5 -22.5t-38.5 -20q-24 -12 -43 -12q-19 2 -40.5 18t-37 30t-40 14t-52.5 -25z" />
<glyph unicode="&#xf2;" horiz-adv-x="948" d="M-93 228q-9 -52 3.5 -100.5t46.5 -82.5q45 -45 133 -45q112 0 254 109q58 47 111 102q44 -26 84 -39q67 -22 135 -21.5t144 40t143 116.5q0 8 -3 8q-7 7 -10 0q-64 -74 -137 -111.5t-138 -38t-130 18.5q-41 15 -78 39q192 215 176 344q-5 49 -37.5 73t-78 23t-89.5 -12 t-80 -30q-45 20 -92.5 11.5t-96 -33.5t-91 -67.5t-79 -91t-59 -104.5t-31.5 -108zM20 72q-18 83 20 187.5t111 190t154 121.5q-9 -15 -16 -36q-28 -98 47 -209q40 -57 106 -105q-62 -65 -108 -102q-134 -105 -246 -105q-55 0 -68 58zM111 811q4 11 37 -2.5t40 -24.5 q55 -88 74 -137q-16 -6 -40 3.5t-38 23.5q-20 53 -73 137zM287 956q4 11 37.5 -2t40.5 -24q53 -84 73 -137q-16 -6 -40.5 3.5t-37.5 22.5q-20 53 -73 137zM303 530q10 27 25 48q32 6 65 0q1 -1 8 2q2 0 2 2q7 3 0 10q-20 16 -30 20q25 16 64 26.5t80 11.5t72.5 -19.5 t37.5 -63.5q5 -33 -6 -73t-24.5 -68t-46.5 -73.5t-46 -61t-51 -60.5q-61 41 -105 105q-71 109 -45 194z" />
<glyph unicode="&#xf3;" horiz-adv-x="948" d="M-93 228q-9 -52 3.5 -100.5t46.5 -82.5q45 -45 133 -45q112 0 254 109q58 47 111 102q44 -26 84 -39q67 -22 135 -21.5t144 40t143 116.5q0 8 -3 8q-7 7 -10 0q-64 -74 -137 -111.5t-138 -38t-130 18.5q-41 15 -78 39q192 215 176 344q-5 49 -37.5 73t-78 23t-89.5 -12 t-80 -30q-45 20 -92.5 11.5t-96 -33.5t-91 -67.5t-79 -91t-59 -104.5t-31.5 -108zM20 72q-18 83 20 187.5t111 190t154 121.5q-9 -15 -16 -36q-28 -98 47 -209q40 -57 106 -105q-62 -65 -108 -102q-134 -105 -246 -105q-55 0 -68 58zM303 530q10 27 25 48q32 6 65 0 q1 -1 8 2q2 0 2 2q7 3 0 10q-20 16 -30 20q25 16 64 26.5t80 11.5t72.5 -19.5t37.5 -63.5q5 -33 -6 -73t-24.5 -68t-46.5 -73.5t-46 -61t-51 -60.5q-61 41 -105 105q-71 109 -45 194zM356 793q19 49 74 137q7 11 40.5 24t37.5 2q-55 -88 -74 -137q-13 -13 -37.5 -22.5 t-40.5 -3.5z" />
<glyph unicode="&#xf4;" horiz-adv-x="948" d="M-93 228q9 52 31.5 108t59 104.5t79 91t91 67.5t96 33.5t92.5 -11.5q36 19 80 30t89.5 12t78 -23t37.5 -73q16 -129 -176 -344q37 -24 78 -39q65 -19 130 -18.5t138 38t137 111.5q3 7 10 0q3 0 3 -8q-67 -77 -143 -116.5t-144 -40t-135 21.5q-40 13 -84 39 q-53 -55 -111 -102q-142 -109 -254 -109q-88 0 -133 45q-34 34 -46.5 82.5t-3.5 100.5zM20 72q13 -58 68 -58q112 0 246 105q46 37 108 102q-66 48 -106 105q-75 111 -47 209q7 21 16 36q-81 -36 -154 -121.5t-111 -190t-20 -187.5zM231 797q47 116 96.5 151t95.5 -5 t91 -146q-16 -6 -40.5 3.5t-37.5 22.5q-16 42 -63 121q-43 -67 -64 -121q-13 -13 -37.5 -22.5t-40.5 -3.5zM303 530q-26 -85 45 -194q44 -64 105 -105q38 45 51 60.5t46 61t46.5 73.5t24.5 68t6 73q-6 43 -37.5 63.5t-72.5 19.5t-80 -11.5t-64 -26.5q10 -4 30 -20 q7 -7 0 -10l-2 -2q-7 -3 -8 -2q-33 6 -65 0q-15 -21 -25 -48z" />
<glyph unicode="&#xf5;" horiz-adv-x="948" d="M-93 228q-9 -52 3.5 -100.5t46.5 -82.5q45 -45 133 -45q112 0 254 109q58 47 111 102q44 -26 84 -39q67 -22 135 -21.5t144 40t143 116.5q0 8 -3 8q-7 7 -10 0q-64 -74 -137 -111.5t-138 -38t-130 18.5q-41 15 -78 39q192 215 176 344q-5 49 -37.5 73t-78 23t-89.5 -12 t-80 -30q-45 20 -92.5 11.5t-96 -33.5t-91 -67.5t-79 -91t-59 -104.5t-31.5 -108zM20 72q-18 83 20 187.5t111 190t154 121.5q-9 -15 -16 -36q-28 -98 47 -209q40 -57 106 -105q-62 -65 -108 -102q-134 -105 -246 -105q-55 0 -68 58zM283 803q44 38 69 45q6 2 11.5 2t9 -1 t8 -4t7 -5.5t7.5 -8t8 -8.5q25 -26 48.5 -31t40.5 3t45 20.5t53 15.5q-5 -1 -39 -22.5t-55 -30.5q-24 -12 -43 -12q-19 2 -40.5 18t-37 30t-40 14t-52.5 -25zM303 530q10 27 25 48q32 6 65 0q1 -1 8 2q2 0 2 2q7 3 0 10q-20 16 -30 20q25 16 64 26.5t80 11.5t72.5 -19.5 t37.5 -63.5q5 -33 -6 -73t-24.5 -68t-46.5 -73.5t-46 -61t-51 -60.5q-61 41 -105 105q-71 109 -45 194z" />
<glyph unicode="&#xf6;" horiz-adv-x="948" d="M-93 228q-9 -52 3.5 -100.5t46.5 -82.5q45 -45 133 -45q112 0 254 109q58 47 111 102q44 -26 84 -39q67 -22 135 -21.5t144 40t143 116.5q0 8 -3 8q-7 7 -10 0q-64 -74 -137 -111.5t-138 -38t-130 18.5q-41 15 -78 39q192 215 176 344q-5 49 -37.5 73t-78 23t-89.5 -12 t-80 -30q-45 20 -92.5 11.5t-96 -33.5t-91 -67.5t-79 -91t-59 -104.5t-31.5 -108zM20 72q-18 83 20 187.5t111 190t154 121.5q-9 -15 -16 -36q-28 -98 47 -209q40 -57 106 -105q-62 -65 -108 -102q-134 -105 -246 -105q-55 0 -68 58zM303 530q10 27 25 48q32 6 65 0 q1 -1 8 2q2 0 2 2q7 3 0 10q-20 16 -30 20q25 16 64 26.5t80 11.5t72.5 -19.5t37.5 -63.5q5 -33 -6 -73t-24.5 -68t-46.5 -73.5t-46 -61t-51 -60.5q-61 41 -105 105q-71 109 -45 194zM318 802q-1 9 47 29q50 22 77 15q-21 -31 -86 -45q-38 -8 -38 1zM442 803q2 9 47 28 q50 22 78 15q-20 -31 -85 -45q-43 -9 -40 2z" />
<glyph unicode="&#xf7;" horiz-adv-x="653" d="M37 297q-12 -1 31 -33q286 7 532 -4q14 0 -31 33q-174 8 -532 4zM250 6q-1 9 47 29q48 21 78 14q-20 -31 -85 -44q-40 -9 -40 1zM250 487q-1 9 47 29q48 21 78 14q-20 -31 -85 -44q-40 -9 -40 1z" />
<glyph unicode="&#xf8;" horiz-adv-x="948" d="M-93 228q9 52 31.5 108t59 104.5t79 91t91 67.5t96 33.5t92.5 -11.5q40 21 101 34q22 31 52.5 72t33.5 45q18 16 44 7.5t48.5 -27.5t15.5 -25q-13 -5 -67 -76q48 -19 57 -84q16 -129 -176 -344q37 -24 78 -39q65 -19 130 -18.5t138 38t137 111.5q3 7 10 0q3 0 3 -8 q-67 -77 -143 -116.5t-144 -40t-135 21.5q-40 13 -84 39q-53 -55 -111 -102q-99 -79 -186 -101q-87 -144 -109 -186l-129 -4q44 84 107 188q-43 12 -70 39q-34 34 -46.5 82.5t-3.5 100.5zM20 72q7 -27 21 -41q96 157 250 387q-17 60 -2 117q7 21 16 36q-81 -36 -154 -121.5 t-111 -190t-20 -187.5zM170 27q72 21 164 92q46 37 108 102q-60 43 -96 88zM303 434q50 76 103 148h-3l-2 -2q-7 -3 -8 -2q-33 6 -65 0q-15 -21 -25 -48q-13 -41 0 -96zM356 324q41 -57 97 -93q38 45 51 60.5t46 61t46.5 73.5t24.5 68t6 73q-8 52 -54 72q-83 -110 -217 -315 zM373 612q10 -4 30 -20q5 -5 3 -10l40 59q-33 -7 -73 -29z" />
<glyph unicode="&#xf9;" horiz-adv-x="974" d="M-131 78q0 -78 80 -78q52 0 133 23q93 31 178 75l57 31q-58 -126 -75 -201q-11 -44 0 -67q15 -38 73 -29q25 5 84 27l43 20q132 67 296.5 192.5t248.5 223.5q1 1 1 5t-1 5q-7 3 -12 -2q-83 -97 -245.5 -221t-295.5 -191l-39 -18q-35 -15 -7 74q31 94 101 235 q86 173 177 305q7 15 -19 29.5t-56.5 16t-49.5 -14.5q-77 -97 -185 -311q-8 -14 -26 -55l-76 -41q-96 -50 -180 -74q-75 -23 -66 49q12 103 170 349q24 38 35 52q14 28 -28 36q-48 8 -95 -14q-12 -6 -20 -13q-37 -56 -57.5 -89t-61 -103.5t-61.5 -128t-21 -97.5zM111 811 q4 11 37 -2.5t40 -24.5q55 -88 74 -137q-16 -6 -40 3.5t-38 23.5q-20 53 -73 137zM287 956q4 11 37.5 -2t40.5 -24q53 -84 73 -137q-16 -6 -40.5 3.5t-37.5 22.5q-20 53 -73 137z" />
<glyph unicode="&#xfa;" horiz-adv-x="974" d="M-131 78q0 -78 80 -78q52 0 133 23q93 31 178 75l57 31q-58 -126 -75 -201q-11 -44 0 -67q15 -38 73 -29q25 5 84 27l43 20q132 67 296.5 192.5t248.5 223.5q1 1 1 5t-1 5q-7 3 -12 -2q-83 -97 -245.5 -221t-295.5 -191l-39 -18q-35 -15 -7 74q31 94 101 235 q86 173 177 305q7 15 -19 29.5t-56.5 16t-49.5 -14.5q-77 -97 -185 -311q-8 -14 -26 -55l-76 -41q-96 -50 -180 -74q-75 -23 -66 49q12 103 170 349q24 38 35 52q14 28 -28 36q-48 8 -95 -14q-12 -6 -20 -13q-37 -56 -57.5 -89t-61 -103.5t-61.5 -128t-21 -97.5zM381 793 q19 49 74 137q7 11 40 24t37 2q-53 -84 -73 -137q-13 -13 -37.5 -22.5t-40.5 -3.5z" />
<glyph unicode="&#xfb;" horiz-adv-x="974" d="M-131 78q0 40 21 97.5t61.5 128t61 103.5t57.5 89q33 28 93 29q51 0 53 -24q1 -7 -3 -14q-52 -71 -120 -195q-144 -262 -49 -260q13 0 30 5q84 24 180 74l76 41q18 41 26 55q108 214 185 311q19 16 49.5 14.5t56.5 -16t19 -29.5q-91 -132 -177 -305q-83 -167 -107 -258 q-17 -63 13 -51l39 18q133 67 295.5 191t245.5 221q5 5 12 2q1 -1 1 -5t-1 -5q-84 -98 -248.5 -223.5t-296.5 -192.5l-43 -20q-59 -22 -84 -27q-58 -9 -73 29q-11 23 0 67q17 75 75 201l-57 -31q-85 -44 -178 -75q-81 -23 -133 -23q-80 0 -80 78zM231 715q47 116 96.5 151 t95.5 -5t91 -146q-16 -6 -40.5 3.5t-37.5 22.5q-16 42 -63 121q-43 -67 -64 -121q-13 -13 -37.5 -22.5t-40.5 -3.5z" />
<glyph unicode="&#xfc;" horiz-adv-x="974" d="M-131 78q0 -78 80 -78q52 0 133 23q93 31 178 75l57 31q-58 -126 -75 -201q-11 -44 0 -67q15 -38 73 -29q25 5 84 27l43 20q132 67 296.5 192.5t248.5 223.5q1 1 1 5t-1 5q-7 3 -12 -2q-83 -97 -245.5 -221t-295.5 -191l-39 -18q-35 -15 -7 74q31 94 101 235 q86 173 177 305q7 15 -19 29.5t-56.5 16t-49.5 -14.5q-77 -97 -185 -311q-8 -14 -26 -55l-76 -41q-96 -50 -180 -74q-75 -23 -66 49q12 103 170 349q24 38 35 52q14 28 -28 36q-48 8 -95 -14q-12 -6 -20 -13q-37 -56 -57.5 -89t-61 -103.5t-61.5 -128t-21 -97.5zM287 748 q2 9 47 28q50 22 78 15q-20 -31 -85 -45q-43 -9 -40 2zM412 748q2 9 47 28q50 22 78 15q-20 -31 -85 -45q-43 -9 -40 2z" />
<glyph unicode="&#xfd;" horiz-adv-x="968" d="M-620.5 -1102q12.5 -54 53.5 -79t94 -25.5t112 20.5t109 60q53 41 104.5 97.5t98.5 127.5t87 137.5t84 155.5t73.5 151t72 155t64.5 138q162 65 315.5 167t333.5 292q2 1 1.5 5t-3.5 5q-3 7 -10 0q-175 -186 -324.5 -286.5t-304.5 -161.5q92 187 299 641q5 14 -23.5 30.5 t-58.5 19.5t-45 -11q-103 -228 -174 -379q-59 -35 -84 -47q-102 -52 -178 -74q-76 -23 -67 50q13 106 181 367q13 20 21 33q15 28 -36 36q-49 8 -84 -2q-2 0 -3 -1q-53 -53 -136 -212t-83 -230q0 -78 80 -78q49 0 133 23q88 28 178 75q25 11 68 37q-2 -5 -162 -344 q-146 -52 -252 -107.5t-219 -162.5q-230 -213 -307 -484q-21 -85 -8.5 -139zM-611 -1080.5q-5 47.5 11 113.5q68 243 303 478q76 70 160 123t143 78.5t150 58.5q-11 -22 -54.5 -113.5t-64.5 -133t-64 -127t-74.5 -138.5t-74 -121.5t-83.5 -121.5t-83 -95q-46 -48 -92.5 -73 t-82.5 -23t-62.5 24.5t-31.5 70zM328 700q21 56 73 138q7 11 40.5 24t37.5 2q-53 -84 -73 -137q-14 -14 -38 -23.5t-40 -3.5z" />
<glyph unicode="&#xff;" horiz-adv-x="968" d="M-620.5 -1102q12.5 -54 53.5 -79t94 -25.5t112 20.5t109 60q53 41 104.5 97.5t98.5 127.5t87 137.5t84 155.5t73.5 151t72 155t64.5 138q162 65 315.5 167t333.5 292q2 1 1.5 5t-3.5 5q-3 7 -10 0q-175 -186 -324.5 -286.5t-304.5 -161.5q92 187 299 641q5 14 -23.5 30.5 t-58.5 19.5t-45 -11q-103 -228 -174 -379q-59 -35 -84 -47q-102 -52 -178 -74q-76 -23 -67 50q13 106 181 367q13 20 21 33q15 28 -36 36q-49 8 -84 -2q-2 0 -3 -1q-53 -53 -136 -212t-83 -230q0 -78 80 -78q49 0 133 23q88 28 178 75q25 11 68 37q-2 -5 -162 -344 q-146 -52 -252 -107.5t-219 -162.5q-230 -213 -307 -484q-21 -85 -8.5 -139zM-611 -1080.5q-5 47.5 11 113.5q68 243 303 478q76 70 160 123t143 78.5t150 58.5q-11 -22 -54.5 -113.5t-64.5 -133t-64 -127t-74.5 -138.5t-74 -121.5t-83.5 -121.5t-83 -95q-46 -48 -92.5 -73 t-82.5 -23t-62.5 24.5t-31.5 70zM252 803q2 9 47 28q50 22 78 15q-20 -31 -85 -45q-43 -9 -40 2zM377 803q2 9 47 28q50 22 78 15q-20 -31 -85 -45q-43 -9 -40 2z" />
<glyph unicode="&#x2000;" horiz-adv-x="1200" />
<glyph unicode="&#x2001;" horiz-adv-x="2400" />
<glyph unicode="&#x2002;" horiz-adv-x="1200" />
<glyph unicode="&#x2003;" horiz-adv-x="2400" />
<glyph unicode="&#x2004;" horiz-adv-x="800" />
<glyph unicode="&#x2005;" horiz-adv-x="600" />
<glyph unicode="&#x2006;" horiz-adv-x="400" />
<glyph unicode="&#x2007;" horiz-adv-x="400" />
<glyph unicode="&#x2008;" horiz-adv-x="300" />
<glyph unicode="&#x2009;" horiz-adv-x="480" />
<glyph unicode="&#x200a;" horiz-adv-x="133" />
<glyph unicode="&#x2010;" horiz-adv-x="677" d="M43 297q358 4 532 -4l29 -24q8 -9 2 -9q-246 11 -532 4l-5 3q-41 30 -26 30z" />
<glyph unicode="&#x2011;" horiz-adv-x="677" d="M43 297q358 4 532 -4l29 -24q8 -9 2 -9q-246 11 -532 4l-5 3q-41 30 -26 30z" />
<glyph unicode="&#x2012;" horiz-adv-x="677" d="M43 297q358 4 532 -4l29 -24q8 -9 2 -9q-246 11 -532 4l-5 3q-41 30 -26 30z" />
<glyph unicode="&#x2013;" horiz-adv-x="1130" d="M45 297q644 4 957 -4l52 -24q14 -9 3 -9q-442 11 -956 4l-9 3q-74 30 -47 30z" />
<glyph unicode="&#x2014;" horiz-adv-x="2153" d="M52 297q1288 4 1913 -4l105 -24q28 -9 7 -9q-885 11 -1913 4l-18 3q-147 30 -94 30z" />
<glyph unicode="&#x2018;" horiz-adv-x="425" d="M98 670q13 61 72.5 102t128.5 51q25 2 -11 -17q-11 -6 -35 -18l-30 -16q-38 -28 -47 -76q-13 -13 -37.5 -22.5t-40.5 -3.5z" />
<glyph unicode="&#x2019;" horiz-adv-x="368" d="M80 618q-25 -2 13 19l34 17q25 13 29 16q38 28 47 75q14 14 38 23.5t40 3.5q-13 -61 -72.5 -102.5t-128.5 -51.5z" />
<glyph unicode="&#x201c;" horiz-adv-x="591" d="M98 670q13 61 72.5 102t128.5 51q25 2 -11 -17q-11 -6 -35 -18l-30 -16q-38 -28 -47 -76q-13 -13 -37.5 -22.5t-40.5 -3.5zM268 670q13 61 72.5 102t128.5 51q25 2 -11 -17q-11 -6 -35 -18q-26 -13 -30 -16q-38 -28 -47 -76q-13 -13 -37.5 -22.5t-40.5 -3.5z" />
<glyph unicode="&#x201d;" horiz-adv-x="561" d="M80 618q-25 -2 13 19l34 17q25 13 29 16q38 28 47 75q14 14 38 23.5t40 3.5q-13 -61 -72.5 -102.5t-128.5 -51.5zM252 618q-25 -2 13 19l34 17q25 13 29 16q38 28 47 75q14 14 38 23.5t40 3.5q-13 -61 -72.5 -102.5t-128.5 -51.5z" />
<glyph unicode="&#x202f;" horiz-adv-x="480" />
<glyph unicode="&#x205f;" horiz-adv-x="600" />
<glyph unicode="&#x20ac;" horiz-adv-x="995" d="M43 203h88q0 2 1 7t1 7q10 36 35 88q-15 0 -46 -1t-48 -1l-5 3q-41 30 -26 30q25 0 72.5 1t70.5 1q62 97 160.5 160.5t194.5 56.5q65 -5 79 -41q10 -28 -20 -46q-15 -9 -37 -11q-6 0 -6 8q0 6 6 6q38 3 43 27q4 21 -18 30q-20 7 -47 -4q-122 -51 -205 -186q119 0 239 -6 l29 -24q8 -9 2 -9q-147 6 -287 6q-19 -36 -32 -84q-4 -12 -4 -16q145 0 292 -6l29 -24q8 -9 2 -9q-173 6 -330 6q-13 -86 30 -127.5t155 -11.5q136 41 272.5 120t208.5 162q0 1 1.5 2t3.5 0.5t3 -2.5q6 -3 2 -10q-72 -85 -210.5 -166t-276.5 -121q-67 -17 -127 -20.5 t-113 9.5t-80.5 54.5t-19.5 108.5h-51l-5 3q-41 30 -26 30z" />
<glyph unicode="&#x2122;" horiz-adv-x="886" d="M16 1151q18 5 39 -5t34 -21.5t32 -32.5q-22 22 -33.5 32.5t-32 20t-37.5 4.5q-2 0 -2 2zM115 1071q4 12 8 16l-2 5l4 -2q17 22 43 26q35 5 42 -21q5 -23 -14 -36q-28 -18 -71 26q-5 -5 -8 -14q-14 -37 8 -65t55 -7q26 16 55 67.5t59 115.5t48 90q-30 -3 -57 2 q-34 3 -62 16q-26 13 -35 31v14q0 -8 2 -12q5 -16 35 -31q25 -12 60 -16q28 -6 57 -2q41 56 80 72q6 4 18 4q9 0 11.5 -7t-2.5 -14q-18 -28 -82 -51h-5q-20 -28 -52 -96.5t-63.5 -121.5t-62.5 -67q-36 -17 -59.5 11.5t-9.5 66.5zM125 1087q46 -46 73 -25q17 14 9 35 q-8 22 -39 17q-25 -4 -43 -27zM336 1042q0 24 12 45q13 23 33 33q8 4 22 4l13 -6l6 -12q0 -15 -6 -21q4 6 4 21q0 4 -6 10l-11 6q-14 0 -22 -4q-15 -8 -31 -31q-12 -21 -12 -45q0 -23 8 -34q7 -11 14 -13q9 -3 21 0q21 10 29 23q8 11 21.5 34.5t14.5 24.5q3 2 3 4 q41 77 63 123q52 103 74 133q1 3 8.5 0t7.5 -6q-7 -45 -18 -88q-28 -135 -29 -145q32 60 54 98t58.5 83.5t63.5 53.5q13 0 17 -4q-4 -11 -14.5 -33t-14.5 -34q-49 -108 -74 -183q-11 -34 -16 -55h-2q-31 -115 1 -132q17 -10 38 18q20 28 16 63q-3 21 -12 33q10 -8 14 -33 q5 -46 -28 -75q-28 -25 -47 -6q-27 28 1 130q-22 0 -57 -14q-74 -28 -109 -72q29 43 109 74q27 11 57 14l19 59q35 95 76 183l26 65q-20 -6 -42 -27t-47 -60t-39.5 -63t-39.5 -72t-26 -50h-2q0 29 32 184q19 85 19 92q-15 -21 -72 -133q-32 -66 -63 -123l-2 -4l-37 -59 q-18 -18 -31 -23q-12 -3 -21 0t-16 13q-8 16 -8 36zM362 1280h5q64 24 79 51q4 5 3 11.5t-9 3.5q-31 -13 -55 -41zM631 1024q22 -3 35 -16q-13 13 -35 16z" />
<glyph unicode="&#x25fc;" horiz-adv-x="563" d="M0 0v563h563v-563h-563z" />
</font>
</defs>
</svg>
